<?xml version="1.0" encoding="UTF-8"?><svg xmlns="http://www.w3.org/2000/svg" viewBox="0 0 1360.09 675.65"><defs><style>.cls-1,.cls-2{font-family:ArialMT, Arial;}.cls-3{font-size:12px;}.cls-3,.cls-4{font-family:Arial-Black, 'Arial Black';font-weight:800;}.cls-3,.cls-4,.cls-5,.cls-6,.cls-7{fill:#e94c54;}.cls-8{stroke:#0071bc;stroke-width:3px;}.cls-8,.cls-9,.cls-10,.cls-11{fill:none;stroke-miterlimit:10;}.cls-4,.cls-12{font-size:18px;}.cls-13{fill:#009245;}.cls-14{fill:#0071bc;}.cls-15,.cls-2{fill:#333;}.cls-6,.cls-7,.cls-16{font-family:Arial-BoldMT, Arial;font-weight:700;}.cls-17{letter-spacing:-.06em;}.cls-9,.cls-10{stroke-width:2px;}.cls-9,.cls-10,.cls-11{stroke:#e94c54;}.cls-7{font-size:14px;}.cls-2{font-size:21px;}.cls-10{stroke-dasharray:0 0 3.96 3.96;}.cls-11{stroke-width:.25px;}</style></defs><g id="grid"><text class="cls-4" transform="translate(19.57 46.48)"><tspan x="0" y="0">1</tspan></text><text class="cls-4" transform="translate(83.43 663.55)"><tspan x="0" y="0">1</tspan></text><text class="cls-4" transform="translate(133.52 663.55)"><tspan x="0" y="0">2</tspan></text><text class="cls-4" transform="translate(183.61 663.55)"><tspan x="0" y="0">3</tspan></text><text class="cls-4" transform="translate(233.7 663.55)"><tspan x="0" y="0">4</tspan></text><text class="cls-4" transform="translate(283.8 663.55)"><tspan x="0" y="0">5</tspan></text><text class="cls-4" transform="translate(333.89 663.55)"><tspan x="0" y="0">6</tspan></text><text class="cls-4" transform="translate(383.98 663.55)"><tspan x="0" y="0">7</tspan></text><text class="cls-4" transform="translate(434.07 663.55)"><tspan x="0" y="0">8</tspan></text><text class="cls-4" transform="translate(484.16 663.55)"><tspan x="0" y="0">9</tspan></text><text class="cls-4" transform="translate(528.25 663.55)"><tspan x="0" y="0">10</tspan></text><text class="cls-7" transform="translate(955.34 36.98)"><tspan x="0" y="0">context parameters (hypothetical):</tspan><tspan x="0" y="19.8">100 x 100m grid</tspan><tspan x="0" y="39.6">600m walking distance threshold</tspan><tspan x="0" y="59.4">400m green span</tspan></text><text class="cls-2" transform="translate(1022.75 566.71)"><tspan x="0" y="0">centrality</tspan></text><text class="cls-2" transform="translate(1022.75 514.42)"><tspan x="0" y="0">built cell</tspan></text><text class="cls-2" transform="translate(1022.75 467.78)"><tspan x="0" y="0">green periphery</tspan></text><text class="cls-2" transform="translate(1022.75 620.78)"><tspan x="0" y="0">candidate location</tspan></text><text class="cls-4" transform="translate(19.57 97.02)"><tspan x="0" y="0">2</tspan></text><text class="cls-4" transform="translate(19.57 147.57)"><tspan x="0" y="0">3</tspan></text><text class="cls-4" transform="translate(19.57 198.12)"><tspan x="0" y="0">4</tspan></text><text class="cls-4" transform="translate(19.57 248.66)"><tspan x="0" y="0">5</tspan></text><text class="cls-4" transform="translate(19.57 299.21)"><tspan x="0" y="0">6</tspan></text><text class="cls-4" transform="translate(19.57 349.76)"><tspan x="0" y="0">7</tspan></text><text class="cls-4" transform="translate(19.57 400.3)"><tspan x="0" y="0">8</tspan></text><text class="cls-4" transform="translate(19.57 450.85)"><tspan x="0" y="0">9</tspan></text><text class="cls-4" transform="translate(13.57 501.39)"><tspan x="0" y="0">10</tspan></text><text class="cls-4" transform="translate(13.57 551.94)"><tspan x="0" y="0">11</tspan></text><text class="cls-4" transform="translate(13.57 602.49)"><tspan x="0" y="0">12</tspan></text><line class="cls-11" x1="89.43" y1="621.21" x2="89.43" y2="19.42"/><line class="cls-11" x1="139.53" y1="621.21" x2="139.53" y2="19.42"/><line class="cls-11" x1="189.62" y1="621.21" x2="189.62" y2="19.42"/><line class="cls-11" x1="239.71" y1="621.21" x2="239.71" y2="19.42"/><line class="cls-11" x1="289.8" y1="621.21" x2="289.8" y2="19.42"/><line class="cls-11" x1="339.89" y1="621.21" x2="339.89" y2="19.42"/><line class="cls-11" x1="389.98" y1="621.21" x2="389.98" y2="19.42"/><line class="cls-11" x1="440.07" y1="621.21" x2="440.07" y2="19.42"/><line class="cls-11" x1="490.16" y1="621.21" x2="490.16" y2="19.42"/><line class="cls-11" x1="540.25" y1="621.21" x2="540.25" y2="19.42"/><line class="cls-11" x1="590.35" y1="621.21" x2="590.35" y2="19.42"/><path class="cls-14" d="m987.3,603.73c7.44,0,13.49,6.05,13.49,13.49s-6.05,13.49-13.49,13.49-13.49-6.05-13.49-13.49,6.05-13.49,13.49-13.49m0-3c-9.1,0-16.49,7.38-16.49,16.49s7.38,16.49,16.49,16.49,16.49-7.38,16.49-16.49-7.38-16.49-16.49-16.49h0Z"/><line class="cls-8" x1="969.47" y1="599.39" x2="975.65" y2="605.56"/><line class="cls-8" x1="998.95" y1="628.87" x2="1005.13" y2="635.04"/><line class="cls-8" x1="998.95" y1="605.65" x2="1005.13" y2="599.47"/><line class="cls-8" x1="969.56" y1="635.04" x2="975.74" y2="628.87"/><text class="cls-4" transform="translate(578.34 663.55)"><tspan x="0" y="0">11</tspan></text><text class="cls-4" transform="translate(628.43 663.55)"><tspan x="0" y="0">12</tspan></text><text class="cls-4" transform="translate(678.52 663.55)"><tspan x="0" y="0">13</tspan></text><text class="cls-4" transform="translate(728.61 663.55)"><tspan x="0" y="0">14</tspan></text><text class="cls-4" transform="translate(778.7 663.55)"><tspan x="0" y="0">15</tspan></text><text class="cls-4" transform="translate(828.79 663.55)"><tspan x="0" y="0">16</tspan></text><line class="cls-11" x1="58.1" y1="41.48" x2="894.68" y2="41.48"/><line class="cls-11" x1="58.1" y1="92.02" x2="894.68" y2="92.02"/><line class="cls-11" x1="58.1" y1="142.57" x2="894.68" y2="142.57"/><line class="cls-11" x1="58.1" y1="193.12" x2="894.68" y2="193.12"/><line class="cls-11" x1="58.1" y1="243.66" x2="894.68" y2="243.66"/><line class="cls-11" x1="58.1" y1="294.21" x2="894.68" y2="294.21"/><line class="cls-11" x1="58.1" y1="344.75" x2="894.68" y2="344.75"/><line class="cls-11" x1="58.1" y1="395.3" x2="894.68" y2="395.3"/><line class="cls-11" x1="58.1" y1="445.85" x2="894.68" y2="445.85"/><line class="cls-11" x1="58.1" y1="496.39" x2="894.68" y2="496.39"/><line class="cls-11" x1="58.1" y1="546.94" x2="894.68" y2="546.94"/><line class="cls-11" x1="58.1" y1="597.49" x2="894.68" y2="597.49"/><line class="cls-11" x1="640.44" y1="621.21" x2="640.44" y2="19.42"/><line class="cls-11" x1="690.53" y1="621.21" x2="690.53" y2="19.42"/><line class="cls-11" x1="740.62" y1="621.21" x2="740.62" y2="19.42"/><line class="cls-11" x1="790.71" y1="621.21" x2="790.71" y2="19.42"/><line class="cls-11" x1="840.8" y1="621.21" x2="840.8" y2="19.42"/></g><g id="itx"><circle class="cls-13" cx="89.43" cy="142.57" r="7.5"/><circle class="cls-13" cx="139.53" cy="193.12" r="7.5"/><circle class="cls-13" cx="139.53" cy="92.02" r="7.5"/><circle class="cls-13" cx="189.62" cy="92.02" r="7.5"/><circle class="cls-13" cx="239.71" cy="92.02" r="7.5"/><circle class="cls-13" cx="289.8" cy="142.57" r="7.5"/><circle class="cls-13" cx="339.89" cy="92.02" r="7.5"/><circle class="cls-13" cx="389.98" cy="41.48" r="7.5"/><circle class="cls-13" cx="440.07" cy="92.02" r="7.5"/><circle class="cls-13" cx="440.07" cy="142.57" r="7.5"/><circle class="cls-13" cx="440.07" cy="193.12" r="7.5"/><circle class="cls-13" cx="89.43" cy="243.66" r="7.5"/><circle class="cls-13" cx="89.43" cy="294.21" r="7.5"/><circle class="cls-13" cx="89.43" cy="344.75" r="7.5"/><circle class="cls-13" cx="139.53" cy="395.3" r="7.5"/><circle class="cls-13" cx="139.53" cy="445.85" r="7.5"/><circle class="cls-13" cx="389.98" cy="597.49" r="7.5"/><circle class="cls-13" cx="440.07" cy="597.49" r="7.5"/><circle class="cls-13" cx="490.16" cy="546.94" r="7.5"/><circle class="cls-13" cx="490.16" cy="294.21" r="7.5"/><circle class="cls-13" cx="540.25" cy="496.39" r="7.5"/><circle class="cls-13" cx="540.25" cy="294.21" r="7.5"/><circle class="cls-13" cx="590.35" cy="344.75" r="7.5"/><circle class="cls-13" cx="590.35" cy="395.3" r="7.5"/><circle class="cls-13" cx="590.35" cy="445.85" r="7.5"/><circle class="cls-13" cx="987.3" cy="461.25" r="7.5"/><circle class="cls-13" cx="239.71" cy="496.39" r="7.5"/><circle class="cls-13" cx="189.62" cy="496.39" r="7.5"/><circle class="cls-13" cx="339.89" cy="546.94" r="7.5"/><circle class="cls-13" cx="289.8" cy="546.94" r="7.5"/></g><g id="built"><circle class="cls-15" cx="189.62" cy="142.57" r="12.8"/><circle class="cls-15" cx="239.71" cy="142.57" r="12.8"/><circle class="cls-15" cx="339.89" cy="142.57" r="12.8"/><circle class="cls-15" cx="389.98" cy="142.57" r="12.8"/><circle class="cls-15" cx="440.07" cy="344.75" r="12.8"/><circle class="cls-15" cx="440.07" cy="293.88" r="12.8"/><circle class="cls-15" cx="440.07" cy="395.3" r="12.8"/><circle class="cls-15" cx="189.62" cy="445.85" r="12.8"/><circle class="cls-15" cx="239.71" cy="445.85" r="12.8"/><circle class="cls-15" cx="289.8" cy="445.85" r="12.8"/><circle class="cls-15" cx="289.8" cy="496.39" r="12.8"/><circle class="cls-15" cx="339.89" cy="496.39" r="12.8"/><circle class="cls-15" cx="389.98" cy="496.39" r="12.8"/><circle class="cls-15" cx="440.07" cy="496.39" r="12.8"/><circle class="cls-15" cx="389.98" cy="546.94" r="12.8"/><circle class="cls-15" cx="440.07" cy="546.94" r="12.8"/><circle class="cls-15" cx="490.16" cy="496.39" r="12.8"/><circle class="cls-15" cx="339.89" cy="445.85" r="12.8"/><circle class="cls-15" cx="389.98" cy="445.85" r="12.8"/><circle class="cls-15" cx="440.07" cy="445.85" r="12.8"/><circle class="cls-15" cx="490.16" cy="344.75" r="12.8"/><circle class="cls-15" cx="490.16" cy="395.3" r="12.8"/><circle class="cls-15" cx="490.16" cy="445.85" r="12.8"/><circle class="cls-15" cx="540.25" cy="344.75" r="12.8"/><circle class="cls-15" cx="540.25" cy="395.3" r="12.8"/><circle class="cls-15" cx="540.25" cy="445.85" r="12.8"/><circle class="cls-15" cx="987.3" cy="508.58" r="12.8"/><circle class="cls-15" cx="339.89" cy="294.21" r="12.8"/><circle class="cls-15" cx="389.98" cy="294.21" r="12.8"/><circle class="cls-15" cx="139.53" cy="344.75" r="12.8"/><circle class="cls-15" cx="189.62" cy="344.75" r="12.8"/><circle class="cls-15" cx="239.71" cy="344.75" r="12.8"/><circle class="cls-15" cx="289.8" cy="344.75" r="12.8"/><circle class="cls-15" cx="339.89" cy="344.75" r="12.8"/><circle class="cls-15" cx="389.98" cy="344.75" r="12.8"/><circle class="cls-15" cx="189.62" cy="395.3" r="12.8"/><circle class="cls-15" cx="239.71" cy="395.3" r="12.8"/><circle class="cls-15" cx="289.8" cy="395.3" r="12.8"/><circle class="cls-15" cx="339.89" cy="395.3" r="12.8"/><circle class="cls-15" cx="389.98" cy="395.3" r="12.8"/><circle class="cls-15" cx="139.53" cy="142.57" r="12.8"/><circle class="cls-15" cx="389.98" cy="92.02" r="12.8"/><circle class="cls-15" cx="189.62" cy="193.12" r="12.8"/><circle class="cls-15" cx="239.71" cy="193.12" r="12.8"/><circle class="cls-15" cx="289.8" cy="193.12" r="12.8"/><circle class="cls-15" cx="339.89" cy="193.12" r="12.8"/><circle class="cls-15" cx="389.98" cy="193.12" r="12.8"/><circle class="cls-15" cx="139.53" cy="243.66" r="12.8"/><circle class="cls-15" cx="189.62" cy="243.66" r="12.8"/><circle class="cls-15" cx="239.71" cy="243.66" r="12.8"/><circle class="cls-15" cx="289.8" cy="243.66" r="12.8"/><circle class="cls-15" cx="339.89" cy="243.66" r="12.8"/><circle class="cls-15" cx="389.98" cy="243.66" r="12.8"/><circle class="cls-15" cx="139.53" cy="294.21" r="12.8"/><circle class="cls-15" cx="189.62" cy="294.21" r="12.8"/><circle class="cls-15" cx="239.71" cy="294.21" r="12.8"/><circle class="cls-13" cx="440.07" cy="243.66" r="7.5"/></g><g id="centres"><path class="cls-5" d="m289.8,285.05c5.05,0,9.16,4.11,9.16,9.15s-4.11,9.15-9.16,9.15-9.15-4.11-9.15-9.15,4.11-9.15,9.15-9.15m0-9c-10.03,0-18.15,8.13-18.15,18.15s8.13,18.15,18.15,18.15,18.16-8.13,18.16-18.15-8.13-18.15-18.16-18.15h0Z"/><path class="cls-5" d="m987.3,551.68c5.05,0,9.16,4.11,9.16,9.15s-4.11,9.16-9.16,9.16-9.16-4.11-9.16-9.16,4.11-9.15,9.16-9.15m0-9c-10.03,0-18.16,8.13-18.16,18.15s8.13,18.16,18.16,18.16,18.16-8.13,18.16-18.16-8.13-18.15-18.16-18.15h0Z"/></g><g id="Scenario_1"><text class="cls-12" transform="translate(955.45 139.48)"><tspan class="cls-16"><tspan x="0" y="0">Neighbouring centralities:</tspan></tspan><tspan class="cls-16"><tspan x="0" y="27.6">Location:</tspan></tspan><tspan class="cls-6"><tspan x="0" y="55.2">y=8, x=</tspan><tspan class="cls-17" x="61.06" y="55.2">1</tspan><tspan x="70.08" y="55.2">1</tspan></tspan><tspan class="cls-1"><tspan x="0" y="110.4">Distance to closest centrality?</tspan></tspan><tspan class="cls-6"><tspan x="0" y="138">632m</tspan></tspan><tspan class="cls-1"><tspan x="0" y="193.2">Exceeds distance threshold so cannot be built.</tspan></tspan><tspan class="cls-1"><tspan x="0" y="220.8">New “neighbouring centrality” is permitted.</tspan></tspan><tspan class="cls-1"><tspan x="0" y="248.4">(Per random probability paramete</tspan><tspan class="cls-17" x="268.13" y="248.4">r</tspan><tspan x="273.13" y="248.4">.)</tspan></tspan></text><path class="cls-14" d="m590.34,381.81c7.44,0,13.49,6.05,13.49,13.49s-6.05,13.49-13.49,13.49-13.49-6.05-13.49-13.49,6.05-13.49,13.49-13.49m0-3c-9.1,0-16.49,7.38-16.49,16.49s7.38,16.49,16.49,16.49,16.49-7.38,16.49-16.49-7.38-16.49-16.49-16.49h0Z"/><line class="cls-8" x1="572.52" y1="377.47" x2="578.69" y2="383.65"/><line class="cls-8" x1="602" y1="406.95" x2="608.17" y2="413.13"/><line class="cls-8" x1="602" y1="383.74" x2="608.17" y2="377.56"/><line class="cls-8" x1="572.6" y1="413.13" x2="578.78" y2="406.95"/><text class="cls-3" transform="translate(611.71 387.8)"><tspan x="0" y="0">8,11</tspan></text><text class="cls-3" transform="translate(515.23 365.94) rotate(18.54)"><tspan x="0" y="0">632m</tspan></text><line class="cls-9" x1="289.74" y1="294.47" x2="291.64" y2="295.11"/><line class="cls-10" x1="295.4" y1="296.37" x2="586.57" y2="394.03"/><line class="cls-9" x1="588.45" y1="394.66" x2="590.35" y2="395.3"/></g></svg>