<?xml version="1.0" encoding="UTF-8"?><svg xmlns="http://www.w3.org/2000/svg" viewBox="0 0 560 600" font-family="Arial, sans-serif"><rect width="560" height="600" fill="white"/><text x="20" y="38" fill="#D32333" font-weight="800" font-size="22">Green space</text><rect x="20.0" y="56.0" width="520.0" height="520.0" rx="10" fill="#eef1ee"/><path d="M 363.4,272.3 L 354.8,291.0 L 347.3,287.1 L 334.1,283.6 L 342.1,263.7 L 363.4,272.3 Z" fill="#3f8f47" fill-rule="evenodd" stroke="#2f7d33" stroke-width="1"/><path d="M 271.1,359.9 L 272.0,360.9 L 274.7,357.8 L 279.0,362.0 L 273.1,374.3 L 261.0,367.7 L 263.4,364.3 L 256.5,358.5 L 261.9,355.4 L 262.0,355.6 L 263.8,359.9 L 263.9,359.8 L 264.7,361.5 L 266.4,362.1 L 272.2,358.2 L 271.1,359.9 Z" fill="#3f8f47" fill-rule="evenodd" stroke="#2f7d33" stroke-width="1"/><path d="M 281.4,353.9 L 285.1,353.4 L 285.3,357.6 L 281.4,360.3 L 279.0,359.3 L 277.7,356.9 L 281.4,353.9 Z" fill="#3f8f47" fill-rule="evenodd" stroke="#2f7d33" stroke-width="1"/><path d="M 376.5,424.3 L 371.9,445.8 L 326.5,436.0 L 319.1,463.5 L 307.0,472.5 L 299.3,481.8 L 265.0,465.7 L 266.7,461.7 L 267.4,454.6 L 231.6,438.6 L 139.3,374.9 L 141.5,372.6 L 140.7,371.3 L 138.8,372.8 L 128.3,353.2 L 130.9,353.2 L 132.4,351.9 L 138.0,358.6 L 144.2,362.8 L 145.3,366.1 L 147.8,366.3 L 157.9,361.9 L 172.9,352.9 L 176.0,350.5 L 178.9,348.6 L 182.9,344.9 L 184.0,344.0 L 184.5,343.4 L 185.0,342.9 L 199.3,325.2 L 198.2,322.4 L 201.0,317.1 L 202.2,317.4 L 201.7,319.0 L 203.9,321.3 L 206.3,320.3 L 206.1,317.8 L 208.2,317.4 L 211.1,318.0 L 213.7,320.5 L 209.8,324.7 L 209.6,326.2 L 208.8,327.3 L 209.3,328.3 L 209.2,329.2 L 209.8,329.3 L 211.2,332.1 L 210.8,332.6 L 211.6,332.8 L 211.9,333.4 L 227.6,336.4 L 237.7,335.8 L 237.1,336.8 L 241.3,340.1 L 248.2,340.7 L 249.5,340.9 L 252.6,342.3 L 251.4,343.4 L 242.8,342.6 L 236.6,345.6 L 234.4,347.7 L 234.4,347.7 L 234.4,347.7 L 230.8,351.0 L 228.3,354.8 L 228.6,355.0 L 228.0,356.1 L 223.4,356.3 L 228.9,347.3 L 216.5,343.7 L 210.6,356.1 L 216.9,359.2 L 213.9,362.9 L 217.2,365.1 L 223.5,357.4 L 226.7,356.3 L 227.7,357.1 L 226.8,359.0 L 226.7,359.1 L 224.3,364.2 L 218.2,370.2 L 208.4,391.6 L 208.6,394.3 L 210.6,397.2 L 218.8,406.2 L 212.3,412.0 L 211.0,416.0 L 213.1,420.4 L 231.9,434.3 L 235.8,435.9 L 238.5,435.9 L 246.0,431.0 L 249.9,430.8 L 246.0,440.5 L 252.3,443.4 L 261.0,445.7 L 270.2,445.7 L 273.9,443.3 L 272.7,450.0 L 285.9,458.8 L 286.4,461.5 L 284.7,464.4 L 285.9,469.1 L 288.7,470.3 L 292.2,468.4 L 300.4,468.2 L 308.1,459.1 L 313.1,456.2 L 316.4,451.6 L 317.5,445.4 L 322.4,432.2 L 336.0,434.6 L 340.5,432.8 L 360.6,433.4 L 364.0,432.0 L 368.1,424.9 L 372.4,421.9 L 376.5,424.3 Z" fill="#3f8f47" fill-rule="evenodd" stroke="#2f7d33" stroke-width="1"/><path d="M 238.7,320.8 L 232.1,316.9 L 227.6,312.4 L 224.0,316.4 L 222.2,314.9 L 217.2,319.3 L 214.3,316.9 L 225.0,303.2 L 223.2,301.6 L 227.2,299.6 L 231.6,291.9 L 232.5,292.2 L 233.6,284.5 L 235.7,283.7 L 240.8,287.1 L 239.2,289.6 L 240.1,290.6 L 236.8,294.2 L 236.5,298.3 L 240.2,301.5 L 245.9,309.8 L 238.7,320.8 Z" fill="#3f8f47" fill-rule="evenodd" stroke="#2f7d33" stroke-width="1"/><path d="M 278.1,320.4 L 283.6,313.9 L 292.1,312.9 L 303.4,322.8 L 304.0,323.3 L 302.9,324.4 L 302.8,324.4 L 302.1,325.1 L 292.8,333.9 L 277.0,323.3 L 278.1,320.4 Z" fill="#3f8f47" fill-rule="evenodd" stroke="#2f7d33" stroke-width="1"/><path d="M 247.9,340.6 L 241.3,340.1 L 237.1,336.8 L 244.0,326.1 L 251.1,329.1 L 259.5,326.7 L 254.6,329.7 L 247.9,340.6 Z" fill="#3f8f47" fill-rule="evenodd" stroke="#2f7d33" stroke-width="1"/><path d="M 266.0,352.0 L 255.5,357.6 L 253.5,355.3 L 253.5,354.9 L 254.3,354.0 L 253.6,353.3 L 264.3,341.5 L 267.3,342.5 L 267.3,342.4 L 267.6,342.5 L 269.2,340.7 L 268.4,342.9 L 269.2,346.6 L 266.0,352.0 Z" fill="#3f8f47" fill-rule="evenodd" stroke="#2f7d33" stroke-width="1"/><path d="M 59.6,500.7 L 56.9,502.7 L 52.9,500.5 L 53.0,498.8 L 49.7,495.3 L 52.5,491.9 L 58.2,496.5 L 56.7,498.3 L 59.6,500.7 Z" fill="#3f8f47" fill-rule="evenodd" stroke="#2f7d33" stroke-width="1"/><path d="M 65.7,386.3 L 71.4,385.8 L 70.7,397.6 L 65.9,398.4 L 65.7,386.3 Z" fill="#3f8f47" fill-rule="evenodd" stroke="#2f7d33" stroke-width="1"/><path d="M 536.4,119.2 L 519.9,114.3 L 514.0,103.9 L 502.9,96.7 L 510.6,83.0 L 523.7,65.5 L 536.6,76.2 L 540.0,83.4 L 540.0,112.8 L 536.4,119.2 Z" fill="#3f8f47" fill-rule="evenodd" stroke="#2f7d33" stroke-width="1"/><path d="M 324.4,254.4 L 328.4,244.0 L 333.8,243.7 L 342.2,248.6 L 337.3,260.2 L 324.4,254.4 Z" fill="#3f8f47" fill-rule="evenodd" stroke="#2f7d33" stroke-width="1"/><path d="M 342.7,248.9 L 355.3,249.2 L 369.7,253.9 L 363.5,271.4 L 337.4,259.6 L 342.7,248.9 Z" fill="#3f8f47" fill-rule="evenodd" stroke="#2f7d33" stroke-width="1"/><path d="M 305.9,231.6 L 305.8,234.2 L 315.7,235.1 L 315.9,232.5 L 335.6,239.7 L 345.2,241.5 L 346.4,242.8 L 355.4,243.0 L 362.5,247.1 L 363.7,249.8 L 362.7,251.7 L 355.3,249.2 L 342.7,248.9 L 336.0,243.4 L 327.1,241.3 L 326.5,242.4 L 320.8,240.3 L 320.3,241.0 L 318.5,239.6 L 312.4,240.4 L 300.0,238.2 L 286.4,238.3 L 278.5,239.8 L 269.9,238.2 L 257.4,231.7 L 258.1,228.7 L 305.9,231.6 Z" fill="#3f8f47" fill-rule="evenodd" stroke="#2f7d33" stroke-width="1"/><path d="M 255.6,229.9 L 254.6,231.7 L 255.7,234.5 L 254.3,237.5 L 248.7,234.5 L 243.6,233.3 L 244.8,230.5 L 255.6,229.9 Z" fill="#3f8f47" fill-rule="evenodd" stroke="#2f7d33" stroke-width="1"/><path d="M 318.5,239.6 L 320.3,241.0 L 320.8,240.3 L 326.5,242.4 L 327.1,241.3 L 334.6,242.9 L 337.6,244.2 L 337.8,245.6 L 333.8,243.7 L 320.3,244.6 L 305.8,240.5 L 286.8,240.3 L 286.8,240.3 L 285.4,240.3 L 277.5,241.5 L 272.1,240.3 L 272.1,240.4 L 268.4,239.6 L 267.1,240.2 L 266.6,238.4 L 267.1,237.4 L 278.5,239.8 L 287.0,238.2 L 300.0,238.2 L 310.9,240.1 L 318.5,239.6 Z" fill="#3f8f47" fill-rule="evenodd" stroke="#2f7d33" stroke-width="1"/><path d="M 350.3,240.2 L 350.0,242.7 L 346.4,242.8 L 345.2,241.5 L 335.6,239.7 L 326.3,235.8 L 326.8,234.4 L 350.3,240.2 Z" fill="#3f8f47" fill-rule="evenodd" stroke="#2f7d33" stroke-width="1"/><path d="M 333.8,286.3 L 347.7,289.7 L 353.6,292.9 L 351.8,299.4 L 350.9,298.9 L 349.7,301.2 L 351.1,301.9 L 342.0,305.0 L 333.3,303.0 L 333.8,286.3 Z" fill="#3f8f47" fill-rule="evenodd" stroke="#2f7d33" stroke-width="1"/><path d="M 392.3,177.3 L 386.4,165.0 L 385.6,159.1 L 388.7,153.1 L 403.1,144.6 L 424.7,155.8 L 420.6,156.6 L 417.8,166.5 L 392.3,177.3 Z" fill="#3f8f47" fill-rule="evenodd" stroke="#2f7d33" stroke-width="1"/><path d="M 341.9,117.5 L 353.1,108.9 L 359.0,121.4 L 341.9,117.5 Z" fill="#3f8f47" fill-rule="evenodd" stroke="#2f7d33" stroke-width="1"/><path d="M 329.0,310.0 L 327.5,312.2 L 332.1,316.4 L 332.3,318.0 L 328.0,320.2 L 324.0,319.6 L 320.2,316.0 L 319.5,311.4 L 321.9,306.8 L 324.2,305.3 L 328.6,305.3 L 329.0,310.0 Z" fill="#3f8f47" fill-rule="evenodd" stroke="#2f7d33" stroke-width="1"/><path d="M 204.1,233.3 L 205.9,234.6 L 200.2,242.1 L 188.4,233.6 L 192.5,233.5 L 198.3,229.3 L 204.4,231.6 L 204.1,233.3 Z" fill="#3f8f47" fill-rule="evenodd" stroke="#2f7d33" stroke-width="1"/><path d="M 155.8,322.9 L 157.3,317.8 L 159.0,315.6 L 162.4,312.1 L 165.9,309.9 L 175.7,320.7 L 168.1,328.9 L 160.3,330.5 L 155.8,322.9 Z" fill="#3f8f47" fill-rule="evenodd" stroke="#2f7d33" stroke-width="1"/><path d="M 220.6,293.2 L 220.9,293.4 L 225.1,291.0 L 229.6,285.4 L 233.2,283.0 L 241.1,281.1 L 242.7,279.3 L 243.4,270.8 L 244.2,271.3 L 243.2,280.4 L 231.8,284.3 L 225.3,292.5 L 224.4,291.8 L 220.8,294.0 L 220.6,293.2 Z" fill="#3f8f47" fill-rule="evenodd" stroke="#2f7d33" stroke-width="1"/><path d="M 261.9,213.6 L 259.8,214.6 L 244.0,210.2 L 248.3,208.7 L 262.4,211.7 L 261.9,213.6 Z" fill="#3f8f47" fill-rule="evenodd" stroke="#2f7d33" stroke-width="1"/><path d="M 303.3,305.6 L 305.0,308.7 L 304.3,310.6 L 284.8,313.5 L 282.4,315.3 L 280.8,309.7 L 303.3,305.6 Z" fill="#3f8f47" fill-rule="evenodd" stroke="#2f7d33" stroke-width="1"/><path d="M 358.4,303.1 L 359.2,321.7 L 357.7,320.1 L 353.4,321.4 L 349.8,321.1 L 348.3,305.6 L 358.4,303.1 Z" fill="#3f8f47" fill-rule="evenodd" stroke="#2f7d33" stroke-width="1"/><path d="M 350.4,325.7 L 355.4,331.8 L 359.4,341.2 L 360.4,348.6 L 358.4,355.5 L 355.8,356.4 L 347.5,356.1 L 344.9,356.8 L 342.2,359.5 L 337.4,360.4 L 332.4,364.0 L 329.9,367.4 L 329.6,375.9 L 325.7,375.6 L 323.5,373.9 L 325.0,370.6 L 324.6,361.8 L 327.3,358.4 L 328.8,352.5 L 331.9,346.5 L 332.2,337.4 L 332.4,329.0 L 349.3,321.2 L 350.4,325.7 Z" fill="#3f8f47" fill-rule="evenodd" stroke="#2f7d33" stroke-width="1"/><path d="M 254.5,354.3 L 253.6,353.3 L 257.8,348.3 L 259.4,348.9 L 259.8,350.1 L 256.5,356.4 L 255.3,356.9 L 253.8,354.8 L 254.5,354.3 Z" fill="#3f8f47" fill-rule="evenodd" stroke="#2f7d33" stroke-width="1"/><path d="M 278.5,363.8 L 273.1,374.3 L 272.5,373.7 L 275.7,367.9 L 271.8,364.9 L 274.7,362.5 L 277.3,363.1 L 278.1,360.6 L 278.5,363.8 Z" fill="#3f8f47" fill-rule="evenodd" stroke="#2f7d33" stroke-width="1"/><path d="M 261.5,262.7 L 261.6,259.0 L 259.2,259.2 L 257.9,256.7 L 255.9,258.4 L 259.3,272.7 L 262.9,274.6 L 262.0,276.5 L 266.0,278.4 L 266.0,279.5 L 258.8,285.7 L 256.5,281.5 L 254.2,282.6 L 247.7,280.3 L 247.2,282.3 L 243.6,282.7 L 243.2,279.9 L 244.6,277.6 L 245.3,270.0 L 248.2,271.0 L 247.3,267.8 L 245.0,268.2 L 244.9,264.5 L 240.9,255.3 L 237.8,252.5 L 236.9,249.9 L 237.4,233.9 L 241.8,233.4 L 245.3,228.9 L 258.1,228.6 L 253.9,240.3 L 271.4,252.9 L 274.6,255.3 L 274.7,255.3 L 279.2,258.6 L 287.8,261.4 L 285.1,264.4 L 265.4,254.9 L 261.5,262.7 Z" fill="#3f8f47" fill-rule="evenodd" stroke="#2f7d33" stroke-width="1"/><path d="M 279.0,248.8 L 282.3,251.5 L 279.2,258.6 L 274.7,255.4 L 279.0,248.8 Z" fill="#3f8f47" fill-rule="evenodd" stroke="#2f7d33" stroke-width="1"/><path d="M 373.9,420.8 L 373.3,418.4 L 374.8,415.9 L 381.0,416.3 L 385.6,419.5 L 384.8,424.5 L 382.7,426.5 L 373.9,420.8 Z" fill="#3f8f47" fill-rule="evenodd" stroke="#2f7d33" stroke-width="1"/><path d="M 394.7,423.4 L 411.4,424.1 L 414.4,422.0 L 418.3,426.4 L 416.7,430.3 L 394.2,426.2 L 394.7,423.4 Z" fill="#3f8f47" fill-rule="evenodd" stroke="#2f7d33" stroke-width="1"/><path d="M 428.4,374.8 L 430.2,377.0 L 430.8,381.1 L 429.5,386.2 L 428.6,386.3 L 426.9,399.8 L 424.1,402.2 L 423.0,413.2 L 419.3,420.3 L 418.5,425.0 L 415.1,421.0 L 418.3,409.6 L 417.8,404.0 L 421.8,391.5 L 421.9,391.5 L 422.0,390.8 L 422.7,388.7 L 422.7,385.9 L 422.7,385.8 L 422.7,385.8 L 422.7,385.0 L 422.7,385.0 L 422.8,379.9 L 422.7,379.9 L 422.7,377.9 L 419.8,371.7 L 418.0,371.0 L 416.0,371.9 L 416.0,368.8 L 430.5,368.5 L 428.4,374.8 Z" fill="#3f8f47" fill-rule="evenodd" stroke="#2f7d33" stroke-width="1"/><path d="M 420.4,421.3 L 423.3,415.8 L 428.1,400.3 L 428.7,391.4 L 430.4,389.0 L 432.0,381.5 L 432.4,378.4 L 431.1,375.9 L 433.0,374.0 L 431.2,371.2 L 432.4,369.4 L 431.3,367.8 L 439.5,367.4 L 433.6,393.9 L 423.5,426.5 L 420.1,425.7 L 420.4,421.3 Z" fill="#3f8f47" fill-rule="evenodd" stroke="#2f7d33" stroke-width="1"/><path d="M 371.9,445.8 L 368.4,445.0 L 371.1,431.2 L 367.4,444.8 L 331.9,437.2 L 332.0,436.2 L 349.7,439.2 L 361.8,438.6 L 366.3,439.4 L 369.4,429.9 L 373.5,423.0 L 376.5,424.3 L 371.9,445.8 Z" fill="#3f8f47" fill-rule="evenodd" stroke="#2f7d33" stroke-width="1"/><path d="M 316.4,396.9 L 315.5,399.1 L 305.5,405.6 L 309.7,409.9 L 307.2,411.6 L 303.5,405.7 L 321.1,392.5 L 316.4,396.9 Z" fill="#3f8f47" fill-rule="evenodd" stroke="#2f7d33" stroke-width="1"/><path d="M 309.8,410.2 L 305.4,406.3 L 315.5,399.1 L 316.4,396.9 L 320.4,393.8 L 323.2,395.0 L 324.5,393.9 L 326.4,396.6 L 309.8,410.2 Z" fill="#3f8f47" fill-rule="evenodd" stroke="#2f7d33" stroke-width="1"/><path d="M 350.7,435.8 L 340.5,434.1 L 333.7,435.4 L 324.6,432.9 L 336.0,434.6 L 340.5,432.8 L 360.6,433.4 L 364.0,432.0 L 368.1,424.9 L 372.8,422.1 L 366.3,432.6 L 350.7,435.8 Z" fill="#3f8f47" fill-rule="evenodd" stroke="#2f7d33" stroke-width="1"/><path d="M 316.1,458.0 L 307.8,464.0 L 305.4,462.2 L 315.6,453.0 L 321.2,435.5 L 322.6,435.9 L 316.1,458.0 Z" fill="#3f8f47" fill-rule="evenodd" stroke="#2f7d33" stroke-width="1"/><path d="M 300.5,473.0 L 293.2,471.4 L 294.0,468.6 L 300.4,468.2 L 305.4,462.2 L 307.8,464.0 L 300.5,473.0 Z" fill="#3f8f47" fill-rule="evenodd" stroke="#2f7d33" stroke-width="1"/><path d="M 332.0,436.2 L 331.9,437.2 L 326.3,436.7 L 319.6,461.9 L 311.7,464.9 L 311.1,463.6 L 317.7,459.1 L 324.0,434.4 L 332.0,436.2 Z" fill="#3f8f47" fill-rule="evenodd" stroke="#2f7d33" stroke-width="1"/><path d="M 272.4,439.1 L 274.3,439.0 L 273.3,446.8 L 268.7,447.9 L 272.4,439.1 Z" fill="#3f8f47" fill-rule="evenodd" stroke="#2f7d33" stroke-width="1"/><path d="M 286.8,473.2 L 283.5,470.6 L 281.0,460.3 L 270.0,454.7 L 269.8,451.4 L 268.0,450.6 L 268.7,447.9 L 272.6,447.5 L 272.7,450.0 L 274.2,451.9 L 285.0,457.7 L 286.4,460.9 L 284.7,464.4 L 285.9,469.1 L 288.7,470.3 L 292.2,468.4 L 294.0,468.6 L 293.2,471.4 L 290.2,473.1 L 286.8,473.2 Z" fill="#3f8f47" fill-rule="evenodd" stroke="#2f7d33" stroke-width="1"/><path d="M 253.2,447.8 L 253.1,447.5 L 265.6,449.4 L 267.4,454.6 L 253.2,447.8 Z" fill="#3f8f47" fill-rule="evenodd" stroke="#2f7d33" stroke-width="1"/><path d="M 256.8,444.9 L 267.0,445.9 L 265.4,448.2 L 259.1,447.6 L 245.0,442.5 L 246.0,440.5 L 256.8,444.9 Z" fill="#3f8f47" fill-rule="evenodd" stroke="#2f7d33" stroke-width="1"/><path d="M 416.8,350.6 L 416.2,349.1 L 417.1,348.8 L 422.0,351.6 L 424.0,355.8 L 423.4,366.6 L 419.2,367.4 L 420.6,365.7 L 420.9,355.4 L 420.1,350.6 L 416.8,350.6 Z" fill="#3f8f47" fill-rule="evenodd" stroke="#2f7d33" stroke-width="1"/><path d="M 226.0,432.9 L 211.1,422.7 L 213.1,420.4 L 231.9,434.3 L 235.8,435.9 L 234.9,437.4 L 226.0,432.9 Z" fill="#3f8f47" fill-rule="evenodd" stroke="#2f7d33" stroke-width="1"/><path d="M 207.8,418.8 L 209.1,423.0 L 200.6,417.3 L 202.6,414.4 L 207.8,418.8 Z" fill="#3f8f47" fill-rule="evenodd" stroke="#2f7d33" stroke-width="1"/><path d="M 403.1,369.2 L 414.0,368.2 L 415.5,372.1 L 394.3,374.3 L 403.1,369.2 Z" fill="#3f8f47" fill-rule="evenodd" stroke="#2f7d33" stroke-width="1"/><path d="M 142.4,367.6 L 142.4,365.6 L 140.6,366.0 L 131.6,352.4 L 132.4,351.9 L 138.0,358.6 L 144.2,362.8 L 145.3,366.1 L 147.2,366.2 L 147.4,368.1 L 143.3,369.8 L 141.0,368.4 L 140.7,366.7 L 142.4,367.6 Z" fill="#3f8f47" fill-rule="evenodd" stroke="#2f7d33" stroke-width="1"/><path d="M 131.8,361.2 L 128.3,353.2 L 130.7,352.5 L 133.6,358.8 L 139.1,364.3 L 139.8,366.9 L 138.1,368.9 L 140.7,371.3 L 138.8,372.8 L 131.8,361.2 Z" fill="#3f8f47" fill-rule="evenodd" stroke="#2f7d33" stroke-width="1"/><path d="M 123.0,340.6 L 109.1,321.8 L 111.3,320.7 L 112.7,321.4 L 117.8,331.1 L 122.3,336.5 L 128.4,349.9 L 127.3,349.7 L 123.0,340.6 Z" fill="#3f8f47" fill-rule="evenodd" stroke="#2f7d33" stroke-width="1"/><path d="M 222.4,292.8 L 226.2,291.5 L 231.8,284.3 L 243.2,280.4 L 241.7,290.6 L 245.1,293.7 L 251.3,304.9 L 253.5,312.2 L 253.9,312.1 L 254.4,313.6 L 247.2,315.2 L 243.0,314.8 L 245.9,309.8 L 240.2,301.5 L 236.5,298.3 L 236.8,294.2 L 240.1,290.6 L 239.2,289.6 L 240.8,287.1 L 235.7,283.7 L 233.6,284.5 L 232.5,292.2 L 231.6,291.9 L 227.2,299.6 L 223.2,301.6 L 225.0,303.2 L 214.3,316.9 L 211.5,314.1 L 206.5,313.7 L 208.8,310.7 L 214.0,308.1 L 215.4,305.0 L 215.2,304.3 L 215.5,303.4 L 214.5,300.3 L 215.3,295.7 L 218.8,296.4 L 221.4,295.0 L 222.4,292.8 Z" fill="#3f8f47" fill-rule="evenodd" stroke="#2f7d33" stroke-width="1"/><path d="M 269.2,456.7 L 279.5,462.0 L 282.2,470.6 L 285.9,473.9 L 291.1,476.0 L 297.3,474.3 L 300.9,474.8 L 302.3,478.2 L 299.3,481.8 L 265.0,465.7 L 266.7,461.7 L 267.7,450.9 L 269.2,451.6 L 269.2,456.7 Z" fill="#3f8f47" fill-rule="evenodd" stroke="#2f7d33" stroke-width="1"/><path d="M 171.3,269.7 L 184.2,279.4 L 180.5,279.4 L 175.7,275.5 L 167.1,266.9 L 164.0,260.6 L 166.1,255.2 L 167.9,256.5 L 170.1,253.5 L 168.3,252.2 L 172.9,246.1 L 175.5,246.2 L 174.5,243.8 L 184.3,230.6 L 188.0,233.3 L 166.4,262.6 L 171.3,269.7 Z" fill="#3f8f47" fill-rule="evenodd" stroke="#2f7d33" stroke-width="1"/><path d="M 199.8,291.1 L 184.4,280.9 L 185.6,279.6 L 206.5,292.8 L 207.7,292.5 L 213.4,295.3 L 213.3,296.4 L 199.8,291.1 Z" fill="#3f8f47" fill-rule="evenodd" stroke="#2f7d33" stroke-width="1"/><path d="M 109.3,268.0 L 111.5,268.2 L 113.1,270.9 L 115.3,271.8 L 145.4,280.2 L 144.5,281.6 L 135.3,279.0 L 108.4,270.7 L 109.3,268.0 Z" fill="#3f8f47" fill-rule="evenodd" stroke="#2f7d33" stroke-width="1"/><path d="M 195.6,213.6 L 210.9,219.7 L 209.6,222.2 L 197.1,216.7 L 192.1,218.1 L 195.6,213.6 Z" fill="#3f8f47" fill-rule="evenodd" stroke="#2f7d33" stroke-width="1"/><path d="M 231.5,228.1 L 232.3,229.8 L 231.0,232.3 L 216.2,226.2 L 210.8,222.0 L 211.5,220.0 L 231.5,228.1 Z" fill="#3f8f47" fill-rule="evenodd" stroke="#2f7d33" stroke-width="1"/><path d="M 126.5,307.9 L 108.0,321.4 L 126.9,305.9 L 145.0,282.1 L 126.5,307.9 Z" fill="#3f8f47" fill-rule="evenodd" stroke="#2f7d33" stroke-width="1"/><path d="M 226.6,231.3 L 232.7,235.5 L 232.2,235.7 L 221.5,230.1 L 207.7,224.6 L 207.5,225.1 L 197.6,221.1 L 195.3,223.8 L 191.2,221.0 L 197.0,219.1 L 209.5,223.4 L 226.6,231.3 Z" fill="#3f8f47" fill-rule="evenodd" stroke="#2f7d33" stroke-width="1"/><path d="M 173.5,501.8 L 168.1,499.1 L 167.7,497.6 L 176.1,500.2 L 173.8,510.3 L 173.0,509.9 L 173.5,501.8 Z" fill="#3f8f47" fill-rule="evenodd" stroke="#2f7d33" stroke-width="1"/><path d="M 476.5,398.3 L 474.1,403.1 L 473.7,408.4 L 466.1,407.3 L 465.2,411.2 L 470.8,412.4 L 471.6,413.9 L 474.8,413.5 L 472.1,415.1 L 470.3,420.4 L 474.0,423.8 L 467.2,434.4 L 460.5,434.3 L 459.8,432.7 L 457.5,432.3 L 448.2,431.9 L 447.4,442.0 L 446.3,442.9 L 445.6,431.7 L 424.3,429.8 L 425.1,427.3 L 458.6,429.9 L 465.4,406.3 L 474.4,396.8 L 476.5,398.3 Z" fill="#3f8f47" fill-rule="evenodd" stroke="#2f7d33" stroke-width="1"/><path d="M 451.7,324.5 L 455.0,325.2 L 457.9,320.3 L 464.2,321.9 L 465.9,315.3 L 465.2,312.5 L 457.5,310.8 L 456.4,311.5 L 456.4,310.0 L 464.8,310.6 L 467.4,312.9 L 467.8,314.8 L 465.3,323.0 L 459.9,322.6 L 458.1,327.5 L 451.1,325.6 L 447.9,327.8 L 447.0,332.9 L 448.7,337.2 L 448.0,345.0 L 443.0,357.7 L 442.2,357.2 L 446.0,331.1 L 447.7,325.3 L 450.9,319.6 L 451.9,320.2 L 451.7,324.5 Z" fill="#3f8f47" fill-rule="evenodd" stroke="#2f7d33" stroke-width="1"/><path d="M 226.5,125.9 L 226.6,128.9 L 228.4,129.9 L 225.6,143.6 L 218.4,145.0 L 217.5,146.7 L 207.1,144.5 L 204.9,142.9 L 206.2,141.7 L 221.5,143.7 L 223.4,142.0 L 225.1,133.3 L 224.2,130.3 L 200.1,122.3 L 201.0,119.6 L 226.5,125.9 Z" fill="#3f8f47" fill-rule="evenodd" stroke="#2f7d33" stroke-width="1"/><path d="M 223.1,119.2 L 230.5,113.5 L 230.5,114.7 L 222.7,121.3 L 204.7,117.3 L 223.1,119.2 Z" fill="#3f8f47" fill-rule="evenodd" stroke="#2f7d33" stroke-width="1"/><path d="M 142.8,444.6 L 141.6,446.8 L 119.5,438.6 L 120.3,437.1 L 142.8,444.6 Z" fill="#3f8f47" fill-rule="evenodd" stroke="#2f7d33" stroke-width="1"/><path d="M 432.3,165.8 L 432.4,159.0 L 431.1,152.9 L 437.7,164.2 L 434.7,166.3 L 432.3,165.8 Z" fill="#3f8f47" fill-rule="evenodd" stroke="#2f7d33" stroke-width="1"/><path d="M 439.1,114.5 L 454.4,102.5 L 445.4,120.9 L 428.9,129.0 L 427.4,119.8 L 435.5,118.9 L 439.1,114.5 Z" fill="#3f8f47" fill-rule="evenodd" stroke="#2f7d33" stroke-width="1"/><path d="M 276.3,274.3 L 274.5,272.6 L 275.7,272.4 L 276.8,268.5 L 279.8,269.1 L 280.1,266.6 L 277.0,266.1 L 276.9,262.7 L 283.3,266.8 L 281.3,272.2 L 279.6,270.8 L 276.3,274.3 Z" fill="#3f8f47" fill-rule="evenodd" stroke="#2f7d33" stroke-width="1"/><path d="M 150.1,61.5 L 145.0,66.6 L 142.0,64.0 L 136.2,62.7 L 137.4,56.0 L 150.9,56.0 L 149.0,59.8 L 150.1,61.5 Z" fill="#3f8f47" fill-rule="evenodd" stroke="#2f7d33" stroke-width="1"/><path d="M 289.0,550.8 L 284.4,549.4 L 279.1,553.6 L 283.2,545.0 L 291.2,547.4 L 289.0,550.8 Z" fill="#3f8f47" fill-rule="evenodd" stroke="#2f7d33" stroke-width="1"/><path d="M 378.9,519.8 L 377.3,523.0 L 378.8,525.8 L 382.4,528.2 L 381.5,530.4 L 376.2,528.7 L 375.7,528.3 L 375.7,528.6 L 364.6,525.1 L 370.1,514.6 L 378.9,519.8 Z" fill="#3f8f47" fill-rule="evenodd" stroke="#2f7d33" stroke-width="1"/><path d="M 176.6,456.2 L 175.0,456.6 L 174.0,453.8 L 171.5,453.5 L 172.7,447.3 L 175.8,449.8 L 176.6,456.2 Z" fill="#3f8f47" fill-rule="evenodd" stroke="#2f7d33" stroke-width="1"/><path d="M 481.3,256.3 L 523.9,222.7 L 535.5,209.3 L 539.4,211.0 L 528.7,225.6 L 518.4,232.3 L 487.6,257.3 L 489.6,265.8 L 470.7,261.6 L 477.3,256.2 L 481.3,256.3 Z" fill="#3f8f47" fill-rule="evenodd" stroke="#2f7d33" stroke-width="1"/><path d="M 69.7,373.4 L 59.8,373.3 L 51.9,371.8 L 51.9,363.8 L 75.4,360.7 L 69.7,373.4 Z" fill="#3f8f47" fill-rule="evenodd" stroke="#2f7d33" stroke-width="1"/><path d="M 168.9,96.2 L 179.3,100.9 L 179.2,101.7 L 172.8,101.6 L 163.1,98.5 L 165.3,91.7 L 168.9,96.2 Z" fill="#3f8f47" fill-rule="evenodd" stroke="#2f7d33" stroke-width="1"/><path d="M 418.7,236.3 L 421.5,232.6 L 424.9,233.2 L 426.5,235.9 L 427.2,252.0 L 421.4,251.1 L 418.7,236.3 Z" fill="#3f8f47" fill-rule="evenodd" stroke="#2f7d33" stroke-width="1"/><path d="M 423.5,307.3 L 405.9,304.8 L 410.9,305.1 L 413.2,303.4 L 423.7,305.0 L 423.5,307.3 Z" fill="#3f8f47" fill-rule="evenodd" stroke="#2f7d33" stroke-width="1"/><path d="M 357.7,320.1 L 358.5,321.7 L 359.6,321.2 L 363.0,353.9 L 361.4,353.1 L 360.7,350.7 L 359.8,340.4 L 355.8,331.1 L 351.3,325.1 L 349.8,321.1 L 357.7,320.1 Z" fill="#3f8f47" fill-rule="evenodd" stroke="#2f7d33" stroke-width="1"/><path d="M 195.6,467.8 L 198.0,468.9 L 202.3,475.5 L 215.6,480.9 L 214.1,485.0 L 202.1,479.7 L 195.1,478.5 L 193.6,477.1 L 194.2,473.5 L 190.9,472.1 L 195.6,467.8 Z" fill="#3f8f47" fill-rule="evenodd" stroke="#2f7d33" stroke-width="1"/><path d="M 28.2,329.0 L 30.0,325.1 L 32.8,324.7 L 36.7,326.1 L 29.7,337.8 L 28.2,329.0 Z" fill="#3f8f47" fill-rule="evenodd" stroke="#2f7d33" stroke-width="1"/><path d="M 396.6,324.4 L 401.4,315.2 L 405.6,318.1 L 408.4,339.2 L 392.4,344.6 L 391.5,343.2 L 396.6,324.4 Z" fill="#3f8f47" fill-rule="evenodd" stroke="#2f7d33" stroke-width="1"/><path d="M 230.1,553.4 L 239.0,555.0 L 234.5,572.0 L 227.8,564.5 L 230.1,553.4 Z" fill="#3f8f47" fill-rule="evenodd" stroke="#2f7d33" stroke-width="1"/><path d="M 114.8,389.3 L 117.1,391.0 L 104.9,398.5 L 79.4,418.1 L 78.9,417.4 L 70.6,420.7 L 69.6,418.3 L 79.5,413.1 L 114.8,389.3 Z" fill="#3f8f47" fill-rule="evenodd" stroke="#2f7d33" stroke-width="1"/><path d="M 318.7,303.0 L 320.2,302.7 L 319.9,301.3 L 321.0,301.2 L 320.2,297.2 L 323.1,295.4 L 324.2,302.9 L 318.8,304.3 L 315.8,300.9 L 317.5,299.3 L 318.7,303.0 Z" fill="#3f8f47" fill-rule="evenodd" stroke="#2f7d33" stroke-width="1"/><path d="M 436.0,166.8 L 442.9,161.0 L 451.9,179.4 L 443.4,168.2 L 429.3,177.6 L 430.8,171.4 L 432.6,171.4 L 436.0,166.8 Z" fill="#3f8f47" fill-rule="evenodd" stroke="#2f7d33" stroke-width="1"/><path d="M 484.0,73.7 L 495.5,90.0 L 502.7,97.4 L 494.7,93.9 L 482.1,76.1 L 482.1,76.1 L 480.8,74.3 L 480.8,57.9 L 481.9,56.0 L 485.7,56.0 L 486.2,59.0 L 484.0,73.7 Z" fill="#3f8f47" fill-rule="evenodd" stroke="#2f7d33" stroke-width="1"/><path d="M 397.6,187.4 L 394.8,191.2 L 385.4,188.8 L 384.5,181.9 L 393.8,178.2 L 394.9,185.4 L 397.6,187.4 Z" fill="#3f8f47" fill-rule="evenodd" stroke="#2f7d33" stroke-width="1"/><path d="M 290.4,306.4 L 278.2,309.2 L 277.6,305.7 L 289.5,303.7 L 290.4,306.4 Z" fill="#3f8f47" fill-rule="evenodd" stroke="#2f7d33" stroke-width="1"/><path d="M 236.1,568.7 L 240.6,555.5 L 242.2,557.1 L 236.4,576.0 L 234.5,575.9 L 236.1,568.7 Z" fill="#3f8f47" fill-rule="evenodd" stroke="#2f7d33" stroke-width="1"/><path d="M 41.8,170.5 L 42.6,173.4 L 41.9,174.3 L 20.0,175.6 L 20.0,171.2 L 41.8,170.5 Z" fill="#3f8f47" fill-rule="evenodd" stroke="#2f7d33" stroke-width="1"/><path d="M 421.7,431.3 L 415.7,447.9 L 382.7,426.5 L 384.8,424.5 L 421.7,431.3 Z" fill="#3f8f47" fill-rule="evenodd" stroke="#2f7d33" stroke-width="1"/><path d="M 427.3,339.3 L 437.0,337.2 L 435.8,338.0 L 437.2,340.0 L 437.1,343.6 L 441.7,344.6 L 443.1,343.5 L 441.5,354.6 L 425.7,354.3 L 421.1,348.9 L 415.8,347.5 L 414.4,344.0 L 427.3,339.3 Z" fill="#3f8f47" fill-rule="evenodd" stroke="#2f7d33" stroke-width="1"/><path d="M 439.7,366.0 L 424.8,366.7 L 425.7,354.3 L 441.5,354.6 L 439.7,366.0 Z" fill="#3f8f47" fill-rule="evenodd" stroke="#2f7d33" stroke-width="1"/><path d="M 284.9,418.6 L 285.9,416.2 L 289.5,416.9 L 290.9,420.0 L 291.6,422.9 L 289.8,423.9 L 290.7,426.8 L 289.8,426.9 L 284.9,418.6 Z" fill="#3f8f47" fill-rule="evenodd" stroke="#2f7d33" stroke-width="1"/><path d="M 329.5,394.1 L 331.6,395.4 L 330.3,397.6 L 310.6,413.2 L 307.9,411.9 L 329.5,394.1 Z" fill="#3f8f47" fill-rule="evenodd" stroke="#2f7d33" stroke-width="1"/><path d="M 204.6,390.6 L 207.1,385.8 L 209.8,388.1 L 209.7,388.9 L 208.4,391.6 L 208.6,394.3 L 210.6,397.2 L 218.8,406.2 L 215.5,409.7 L 212.7,409.5 L 211.4,410.8 L 212.3,412.0 L 211.0,416.0 L 213.1,420.4 L 211.1,422.7 L 204.6,414.8 L 197.5,412.0 L 202.7,404.1 L 204.6,390.6 Z" fill="#3f8f47" fill-rule="evenodd" stroke="#2f7d33" stroke-width="1"/><path d="M 212.2,375.6 L 214.4,368.9 L 220.7,360.0 L 226.7,356.3 L 227.7,357.1 L 226.8,359.0 L 226.7,359.1 L 224.3,364.2 L 218.2,370.2 L 213.8,381.5 L 209.8,378.7 L 212.2,375.6 Z" fill="#3f8f47" fill-rule="evenodd" stroke="#2f7d33" stroke-width="1"/><path d="M 235.0,335.6 L 235.6,336.8 L 234.1,340.5 L 228.1,339.2 L 228.2,336.4 L 235.0,335.6 Z" fill="#3f8f47" fill-rule="evenodd" stroke="#2f7d33" stroke-width="1"/><path d="M 228.2,336.4 L 228.1,339.2 L 213.5,335.9 L 213.3,333.8 L 228.2,336.4 Z" fill="#3f8f47" fill-rule="evenodd" stroke="#2f7d33" stroke-width="1"/><path d="M 207.6,331.8 L 207.8,330.0 L 209.2,329.0 L 209.3,329.1 L 209.2,329.2 L 209.3,329.3 L 210.8,332.6 L 213.3,333.8 L 214.0,340.3 L 208.5,336.6 L 207.6,331.8 Z" fill="#3f8f47" fill-rule="evenodd" stroke="#2f7d33" stroke-width="1"/><path d="M 198.3,364.9 L 199.7,360.9 L 205.2,359.5 L 210.1,355.3 L 210.6,356.9 L 199.3,365.5 L 198.3,364.9 Z" fill="#3f8f47" fill-rule="evenodd" stroke="#2f7d33" stroke-width="1"/><path d="M 206.5,372.2 L 198.5,365.9 L 210.6,356.1 L 216.9,359.2 L 206.5,372.2 Z" fill="#3f8f47" fill-rule="evenodd" stroke="#2f7d33" stroke-width="1"/><path d="M 183.3,383.6 L 184.5,385.1 L 186.1,387.7 L 185.3,389.0 L 186.3,393.2 L 181.4,392.9 L 179.1,387.2 L 176.7,385.9 L 178.8,383.8 L 183.3,383.6 Z" fill="#3f8f47" fill-rule="evenodd" stroke="#2f7d33" stroke-width="1"/><path d="M 187.7,374.1 L 193.1,375.1 L 194.9,377.8 L 189.3,377.7 L 185.4,380.0 L 186.3,375.3 L 187.7,374.1 Z" fill="#3f8f47" fill-rule="evenodd" stroke="#2f7d33" stroke-width="1"/><path d="M 198.4,329.3 L 206.8,321.9 L 207.4,325.4 L 205.0,329.0 L 202.3,328.8 L 201.1,330.5 L 198.6,330.9 L 188.0,345.7 L 183.6,350.6 L 182.4,349.1 L 198.4,329.3 Z" fill="#3f8f47" fill-rule="evenodd" stroke="#2f7d33" stroke-width="1"/><path d="M 158.9,381.3 L 161.9,384.3 L 161.4,385.9 L 154.9,383.7 L 149.0,378.9 L 158.9,381.3 Z" fill="#3f8f47" fill-rule="evenodd" stroke="#2f7d33" stroke-width="1"/><path d="M 150.6,369.9 L 143.5,372.6 L 142.6,371.7 L 148.9,367.9 L 156.0,365.6 L 181.7,349.6 L 187.1,354.9 L 185.5,356.9 L 186.1,358.2 L 179.8,362.6 L 178.2,365.0 L 177.2,365.0 L 178.4,362.0 L 176.9,359.9 L 174.1,359.7 L 172.0,361.4 L 166.7,362.8 L 161.4,366.5 L 160.7,368.9 L 159.2,369.9 L 156.0,368.8 L 152.6,372.8 L 150.6,369.9 Z" fill="#3f8f47" fill-rule="evenodd" stroke="#2f7d33" stroke-width="1"/><path d="M 198.4,322.1 L 201.0,317.1 L 202.2,317.4 L 201.7,319.0 L 203.0,321.0 L 204.8,321.1 L 205.2,319.7 L 206.2,321.5 L 198.4,328.2 L 197.4,327.6 L 199.3,325.2 L 198.4,322.1 Z" fill="#3f8f47" fill-rule="evenodd" stroke="#2f7d33" stroke-width="1"/><path d="M 167.7,378.0 L 165.6,378.7 L 162.2,375.6 L 166.5,373.8 L 166.6,372.6 L 164.9,371.5 L 165.6,369.7 L 173.2,367.3 L 174.5,364.5 L 177.7,364.0 L 167.7,378.0 Z" fill="#3f8f47" fill-rule="evenodd" stroke="#2f7d33" stroke-width="1"/><path d="M 454.2,365.1 L 452.6,366.5 L 441.7,365.6 L 442.1,362.1 L 447.4,362.9 L 448.1,358.2 L 455.7,359.1 L 454.2,365.1 Z" fill="#3f8f47" fill-rule="evenodd" stroke="#2f7d33" stroke-width="1"/><path d="M 453.3,309.1 L 452.5,312.0 L 450.0,310.2 L 446.1,310.8 L 439.8,320.0 L 437.7,319.1 L 432.5,324.6 L 431.1,328.3 L 425.5,331.1 L 425.6,333.6 L 421.4,338.8 L 421.9,341.0 L 414.2,343.4 L 415.8,347.5 L 421.1,348.9 L 425.7,354.3 L 441.5,354.6 L 437.9,377.4 L 433.6,393.9 L 423.3,427.3 L 415.7,447.9 L 373.9,420.8 L 373.3,418.4 L 374.8,415.9 L 381.0,416.3 L 385.6,419.5 L 384.8,424.5 L 394.2,426.2 L 394.7,423.4 L 411.4,424.1 L 415.1,421.0 L 418.3,409.6 L 417.8,404.0 L 421.8,391.5 L 421.9,391.5 L 422.0,390.8 L 422.7,388.7 L 422.7,385.9 L 422.7,385.8 L 422.7,385.8 L 422.7,385.0 L 422.7,385.0 L 422.8,379.9 L 422.7,379.9 L 422.7,377.9 L 420.8,372.6 L 420.5,365.7 L 420.6,365.7 L 420.9,355.4 L 420.1,350.6 L 416.8,350.6 L 415.3,349.5 L 412.2,340.5 L 414.3,339.8 L 415.1,341.2 L 417.9,340.3 L 421.4,336.3 L 424.1,329.9 L 428.9,326.1 L 429.1,325.9 L 429.1,325.9 L 430.4,324.9 L 439.1,315.0 L 439.4,315.3 L 442.7,310.9 L 444.4,309.0 L 453.3,309.1 Z" fill="#3f8f47" fill-rule="evenodd" stroke="#2f7d33" stroke-width="1"/><path d="M 427.6,326.9 L 429.1,325.9 L 429.0,325.4 L 430.2,324.1 L 430.4,324.9 L 435.7,318.3 L 438.9,314.8 L 439.4,315.3 L 442.8,310.8 L 442.7,310.8 L 444.4,309.0 L 453.3,309.1 L 452.5,312.0 L 450.0,310.2 L 446.1,310.8 L 439.8,320.0 L 436.9,318.7 L 429.8,328.1 L 424.5,330.2 L 427.6,326.9 Z" fill="#3f8f47" fill-rule="evenodd" stroke="#2f7d33" stroke-width="1"/><path d="M 415.1,341.2 L 417.9,340.3 L 423.2,332.9 L 425.6,332.2 L 425.6,333.6 L 421.4,338.8 L 421.9,341.0 L 413.3,343.5 L 412.2,340.5 L 414.3,339.8 L 415.1,341.2 Z" fill="#3f8f47" fill-rule="evenodd" stroke="#2f7d33" stroke-width="1"/><path d="M 271.0,436.4 L 268.5,436.1 L 266.9,435.2 L 265.6,431.8 L 267.8,427.6 L 272.5,424.0 L 279.9,426.7 L 280.4,425.6 L 278.3,424.5 L 278.4,419.5 L 284.8,417.0 L 284.9,418.6 L 281.1,419.3 L 279.6,421.7 L 279.4,423.3 L 281.5,426.1 L 280.7,429.0 L 277.7,429.7 L 276.5,426.7 L 274.3,425.4 L 272.2,425.4 L 268.9,427.6 L 270.8,431.0 L 269.4,433.4 L 270.4,435.6 L 276.9,435.9 L 271.0,436.4 Z" fill="#3f8f47" fill-rule="evenodd" stroke="#2f7d33" stroke-width="1"/><path d="M 414.3,395.9 L 421.1,394.1 L 418.3,402.5 L 414.3,401.4 L 414.3,395.9 Z" fill="#3f8f47" fill-rule="evenodd" stroke="#2f7d33" stroke-width="1"/><path d="M 376.2,409.7 L 401.7,400.6 L 404.0,407.8 L 407.3,411.6 L 407.4,417.0 L 409.3,420.6 L 411.9,420.1 L 413.3,409.8 L 418.0,411.3 L 415.1,421.0 L 412.8,423.7 L 394.7,423.4 L 394.2,426.2 L 384.8,424.5 L 385.6,419.5 L 381.0,416.3 L 374.8,415.9 L 376.2,409.7 Z" fill="#3f8f47" fill-rule="evenodd" stroke="#2f7d33" stroke-width="1"/><path d="M 323.8,389.3 L 331.9,382.5 L 328.5,388.7 L 330.5,393.3 L 323.8,389.3 Z" fill="#3f8f47" fill-rule="evenodd" stroke="#2f7d33" stroke-width="1"/><path d="M 372.7,420.0 L 337.7,397.0 L 338.4,395.8 L 337.2,395.0 L 335.5,397.0 L 331.1,394.1 L 329.0,389.5 L 332.3,382.3 L 333.7,381.2 L 339.1,381.5 L 347.2,378.5 L 349.4,378.7 L 353.4,384.7 L 351.4,396.0 L 352.9,402.6 L 365.7,409.1 L 368.6,409.1 L 368.7,409.1 L 368.7,409.1 L 375.2,409.2 L 372.7,420.0 Z" fill="#3f8f47" fill-rule="evenodd" stroke="#2f7d33" stroke-width="1"/><path d="M 301.8,393.5 L 308.0,380.7 L 320.1,376.6 L 323.2,374.3 L 326.9,376.4 L 330.2,376.9 L 331.9,382.0 L 302.0,405.9 L 300.8,403.7 L 301.8,393.5 Z" fill="#3f8f47" fill-rule="evenodd" stroke="#2f7d33" stroke-width="1"/><path d="M 303.1,385.0 L 305.7,382.6 L 301.2,393.2 L 300.3,401.5 L 296.6,395.5 L 303.1,385.0 Z" fill="#3f8f47" fill-rule="evenodd" stroke="#2f7d33" stroke-width="1"/><path d="M 305.3,409.7 L 310.6,413.2 L 330.3,397.6 L 331.6,395.4 L 372.4,421.9 L 368.1,424.9 L 364.0,432.0 L 360.6,433.4 L 340.5,432.8 L 336.0,434.6 L 322.4,432.2 L 317.5,445.4 L 316.4,451.6 L 313.1,456.2 L 308.1,459.1 L 300.4,468.2 L 292.2,468.4 L 288.7,470.3 L 285.9,469.1 L 284.7,464.4 L 286.4,461.5 L 285.9,458.8 L 272.7,450.0 L 274.3,439.0 L 272.4,439.1 L 272.6,437.9 L 280.2,438.0 L 286.6,434.7 L 292.8,425.2 L 301.1,417.2 L 302.3,406.7 L 303.5,405.7 L 305.3,409.7 Z" fill="#3f8f47" fill-rule="evenodd" stroke="#2f7d33" stroke-width="1"/><path d="M 333.7,435.4 L 340.5,434.1 L 350.7,435.8 L 355.7,434.7 L 361.9,434.1 L 366.3,432.6 L 373.0,422.2 L 366.4,433.0 L 361.9,434.4 L 349.2,436.3 L 330.8,435.5 L 324.8,434.0 L 333.7,435.4 Z" fill="#3f8f47" fill-rule="evenodd" stroke="#2f7d33" stroke-width="1"/><path d="M 213.9,362.9 L 216.9,359.2 L 216.0,358.7 L 217.5,355.7 L 218.9,356.3 L 217.8,357.5 L 218.6,358.9 L 219.8,356.8 L 224.8,356.7 L 220.7,360.0 L 217.2,365.1 L 213.9,362.9 Z" fill="#3f8f47" fill-rule="evenodd" stroke="#2f7d33" stroke-width="1"/><path d="M 343.5,316.5 L 341.9,313.7 L 342.2,310.8 L 340.2,308.7 L 340.9,307.1 L 347.8,315.9 L 349.3,321.2 L 343.5,323.9 L 342.1,320.8 L 343.5,316.5 Z" fill="#3f8f47" fill-rule="evenodd" stroke="#2f7d33" stroke-width="1"/><path d="M 344.8,311.1 L 340.9,307.1 L 347.9,306.1 L 349.3,321.2 L 344.8,311.1 Z" fill="#3f8f47" fill-rule="evenodd" stroke="#2f7d33" stroke-width="1"/><path d="M 211.3,343.6 L 216.5,343.7 L 210.3,356.2 L 209.4,354.9 L 208.5,355.3 L 211.8,350.8 L 212.6,346.3 L 214.7,345.5 L 214.8,344.3 L 211.2,344.7 L 209.2,350.1 L 207.1,350.9 L 211.3,343.6 Z" fill="#3f8f47" fill-rule="evenodd" stroke="#2f7d33" stroke-width="1"/><path d="M 201.4,355.3 L 209.2,350.1 L 211.2,344.7 L 214.8,344.3 L 214.7,345.5 L 212.6,346.3 L 212.6,348.9 L 208.6,356.7 L 205.2,359.5 L 199.7,360.9 L 201.4,355.3 Z" fill="#3f8f47" fill-rule="evenodd" stroke="#2f7d33" stroke-width="1"/><path d="M 234.1,340.5 L 230.3,344.9 L 225.4,345.3 L 228.1,339.2 L 234.1,340.5 Z" fill="#3f8f47" fill-rule="evenodd" stroke="#2f7d33" stroke-width="1"/><path d="M 229.7,347.3 L 235.4,341.8 L 234.7,340.6 L 236.3,337.3 L 241.8,341.6 L 252.5,342.7 L 242.8,342.6 L 236.6,345.6 L 234.4,347.7 L 234.4,347.7 L 234.4,347.7 L 230.8,351.0 L 228.3,354.8 L 228.6,355.0 L 228.0,356.1 L 225.5,355.7 L 229.7,347.3 Z" fill="#3f8f47" fill-rule="evenodd" stroke="#2f7d33" stroke-width="1"/><path d="M 214.0,340.3 L 214.0,342.4 L 210.8,343.1 L 209.5,344.6 L 207.6,338.6 L 207.6,333.7 L 208.0,335.9 L 214.0,340.3 Z" fill="#3f8f47" fill-rule="evenodd" stroke="#2f7d33" stroke-width="1"/><path d="M 198.6,330.9 L 201.1,330.5 L 195.0,341.6 L 189.1,348.1 L 189.6,350.7 L 192.6,352.8 L 185.6,352.4 L 183.6,350.6 L 198.6,330.9 Z" fill="#3f8f47" fill-rule="evenodd" stroke="#2f7d33" stroke-width="1"/><path d="M 200.3,353.7 L 193.5,352.8 L 189.4,350.0 L 189.8,347.1 L 195.2,341.8 L 199.9,333.5 L 199.1,337.4 L 197.3,339.3 L 197.0,344.1 L 193.0,344.2 L 189.9,349.4 L 191.4,351.0 L 205.1,349.8 L 206.2,347.2 L 206.0,342.6 L 208.4,342.5 L 208.6,347.2 L 206.2,351.4 L 200.3,353.7 Z" fill="#3f8f47" fill-rule="evenodd" stroke="#2f7d33" stroke-width="1"/><path d="M 211.2,381.4 L 203.4,375.9 L 213.9,362.9 L 217.2,365.1 L 209.8,378.7 L 212.3,380.8 L 211.2,381.4 Z" fill="#3f8f47" fill-rule="evenodd" stroke="#2f7d33" stroke-width="1"/><path d="M 153.8,374.3 L 162.2,375.6 L 165.6,378.7 L 154.5,379.8 L 155.3,375.9 L 153.7,375.0 L 153.0,372.9 L 153.8,374.3 Z" fill="#3f8f47" fill-rule="evenodd" stroke="#2f7d33" stroke-width="1"/><path d="M 169.4,377.5 L 170.9,375.0 L 172.9,375.7 L 178.4,370.6 L 178.8,369.0 L 180.6,369.0 L 191.1,361.9 L 177.1,372.4 L 167.9,380.9 L 164.5,381.2 L 169.4,377.5 Z" fill="#3f8f47" fill-rule="evenodd" stroke="#2f7d33" stroke-width="1"/><path d="M 146.9,370.7 L 151.4,370.1 L 153.7,375.0 L 155.3,375.9 L 154.5,379.8 L 166.6,378.4 L 174.1,369.1 L 188.9,357.6 L 188.6,358.8 L 190.1,358.6 L 201.5,370.0 L 202.5,376.2 L 211.3,382.2 L 208.5,383.6 L 204.6,390.6 L 203.8,401.3 L 197.3,412.2 L 170.2,395.2 L 169.8,392.8 L 167.6,390.6 L 163.2,388.6 L 161.3,389.0 L 145.0,377.4 L 142.3,371.9 L 143.5,372.6 L 146.9,370.7 Z" fill="#3f8f47" fill-rule="evenodd" stroke="#2f7d33" stroke-width="1"/><path d="M 266.7,461.7 L 267.7,450.9 L 269.2,451.6 L 269.0,459.0 L 267.8,463.4 L 266.0,466.2 L 265.0,465.7 L 266.7,461.7 Z" fill="#3f8f47" fill-rule="evenodd" stroke="#2f7d33" stroke-width="1"/><path d="M 173.6,352.0 L 178.9,348.6 L 179.6,348.0 L 179.6,348.0 L 180.6,349.8 L 171.3,356.1 L 169.4,354.8 L 173.6,352.0 Z" fill="#3f8f47" fill-rule="evenodd" stroke="#2f7d33" stroke-width="1"/><path d="M 152.2,364.4 L 157.9,361.9 L 167.6,355.8 L 168.9,355.0 L 170.3,356.5 L 156.3,364.8 L 147.8,366.8 L 152.2,364.4 Z" fill="#3f8f47" fill-rule="evenodd" stroke="#2f7d33" stroke-width="1"/><path d="M 195.8,355.9 L 199.4,353.9 L 202.9,353.6 L 199.9,356.6 L 198.1,364.6 L 189.7,356.3 L 195.8,355.9 Z" fill="#3f8f47" fill-rule="evenodd" stroke="#2f7d33" stroke-width="1"/><path d="M 311.8,271.2 L 311.8,267.0 L 317.0,249.8 L 319.1,248.9 L 319.7,246.4 L 327.8,245.5 L 316.3,272.6 L 311.8,271.2 Z" fill="#3f8f47" fill-rule="evenodd" stroke="#2f7d33" stroke-width="1"/><path d="M 309.1,269.6 L 309.8,272.0 L 308.0,272.5 L 307.4,272.3 L 307.2,272.0 L 301.5,270.2 L 287.2,265.0 L 289.7,262.0 L 309.1,269.6 Z" fill="#3f8f47" fill-rule="evenodd" stroke="#2f7d33" stroke-width="1"/><path d="M 325.4,297.4 L 323.9,293.9 L 328.7,288.5 L 331.8,291.9 L 328.3,296.2 L 325.4,297.4 Z" fill="#3f8f47" fill-rule="evenodd" stroke="#2f7d33" stroke-width="1"/><path d="M 412.2,279.4 L 412.2,279.4 L 411.0,284.9 L 407.9,285.3 L 402.1,282.2 L 408.2,283.6 L 410.0,277.3 L 410.0,274.8 L 408.1,274.6 L 408.9,272.8 L 413.4,274.4 L 412.2,279.4 Z" fill="#3f8f47" fill-rule="evenodd" stroke="#2f7d33" stroke-width="1"/><path d="M 391.3,264.6 L 383.3,263.6 L 376.7,261.2 L 373.1,266.5 L 377.9,269.8 L 375.4,270.4 L 371.8,268.8 L 368.8,273.6 L 369.0,274.8 L 368.2,274.5 L 357.4,291.1 L 360.7,293.2 L 360.1,294.2 L 355.4,291.5 L 371.6,257.9 L 377.1,259.8 L 380.2,256.4 L 381.9,251.4 L 425.2,269.2 L 457.4,277.5 L 458.0,295.2 L 455.1,308.5 L 443.9,308.3 L 446.6,297.5 L 447.1,284.9 L 444.8,281.4 L 442.2,280.9 L 442.3,280.8 L 431.5,278.8 L 431.4,278.9 L 421.9,277.1 L 408.9,272.8 L 394.0,265.9 L 392.2,269.0 L 391.2,268.7 L 391.3,264.6 Z" fill="#3f8f47" fill-rule="evenodd" stroke="#2f7d33" stroke-width="1"/><path d="M 427.0,171.1 L 427.4,169.3 L 428.3,169.5 L 426.7,174.5 L 416.5,177.8 L 413.8,168.6 L 420.0,165.3 L 422.6,165.7 L 422.2,168.0 L 420.2,167.8 L 419.9,169.9 L 427.0,171.1 Z" fill="#3f8f47" fill-rule="evenodd" stroke="#2f7d33" stroke-width="1"/><path d="M 508.2,454.5 L 540.0,444.3 L 540.0,449.7 L 509.2,457.8 L 508.2,454.5 Z" fill="#3f8f47" fill-rule="evenodd" stroke="#2f7d33" stroke-width="1"/><path d="M 194.6,213.3 L 195.1,213.6 L 145.2,281.8 L 194.6,213.3 Z" fill="#3f8f47" fill-rule="evenodd" stroke="#2f7d33" stroke-width="1"/><path d="M 190.3,222.2 L 194.7,224.8 L 190.5,230.5 L 186.2,227.4 L 190.3,222.2 Z" fill="#3f8f47" fill-rule="evenodd" stroke="#2f7d33" stroke-width="1"/><path d="M 197.6,221.1 L 207.5,225.0 L 205.5,229.9 L 199.3,226.9 L 190.8,231.2 L 188.2,230.9 L 185.3,228.7 L 186.2,227.4 L 190.5,230.5 L 197.6,221.1 Z" fill="#3f8f47" fill-rule="evenodd" stroke="#2f7d33" stroke-width="1"/><path d="M 142.4,447.5 L 142.3,447.1 L 169.0,453.5 L 170.9,454.8 L 171.4,460.7 L 170.4,455.6 L 142.4,447.5 Z" fill="#3f8f47" fill-rule="evenodd" stroke="#2f7d33" stroke-width="1"/><path d="M 271.6,118.7 L 278.0,125.5 L 271.9,136.6 L 268.6,135.7 L 266.7,136.8 L 266.0,138.7 L 269.4,140.7 L 271.1,138.0 L 276.4,140.2 L 274.2,145.3 L 275.9,146.2 L 266.3,160.2 L 250.1,150.5 L 271.6,118.7 Z" fill="#3f8f47" fill-rule="evenodd" stroke="#2f7d33" stroke-width="1"/><path d="M 376.2,261.0 L 372.4,266.7 L 368.9,265.3 L 371.8,258.4 L 376.2,261.0 Z" fill="#3f8f47" fill-rule="evenodd" stroke="#2f7d33" stroke-width="1"/><path d="M 103.3,326.8 L 103.5,329.4 L 101.0,334.9 L 98.0,333.0 L 95.7,336.4 L 95.3,337.9 L 98.0,339.9 L 96.1,344.3 L 92.7,342.1 L 91.7,339.7 L 96.2,330.1 L 104.4,322.3 L 109.1,321.8 L 103.3,326.8 Z" fill="#3f8f47" fill-rule="evenodd" stroke="#2f7d33" stroke-width="1"/><path d="M 190.3,137.8 L 190.7,131.7 L 191.7,131.7 L 192.8,137.9 L 197.3,142.3 L 196.8,149.9 L 195.2,149.8 L 190.3,137.8 Z" fill="#3f8f47" fill-rule="evenodd" stroke="#2f7d33" stroke-width="1"/><path d="M 106.6,242.4 L 100.3,235.8 L 103.4,233.6 L 115.7,243.0 L 113.0,246.5 L 106.6,242.4 Z" fill="#3f8f47" fill-rule="evenodd" stroke="#2f7d33" stroke-width="1"/><path d="M 321.2,226.9 L 321.8,229.4 L 279.0,222.4 L 274.8,218.5 L 263.6,215.3 L 265.1,211.6 L 321.2,226.9 Z" fill="#3f8f47" fill-rule="evenodd" stroke="#2f7d33" stroke-width="1"/><path d="M 246.7,240.4 L 247.4,236.0 L 244.1,236.1 L 243.7,234.6 L 248.0,235.0 L 251.5,237.7 L 252.4,240.9 L 250.7,244.0 L 246.7,240.4 Z" fill="#3f8f47" fill-rule="evenodd" stroke="#2f7d33" stroke-width="1"/><path d="M 420.6,250.6 L 378.4,241.1 L 378.6,239.9 L 420.3,249.3 L 420.6,250.6 Z" fill="#3f8f47" fill-rule="evenodd" stroke="#2f7d33" stroke-width="1"/><path d="M 442.5,255.5 L 427.4,252.0 L 427.4,250.6 L 443.7,254.2 L 442.5,255.5 Z" fill="#3f8f47" fill-rule="evenodd" stroke="#2f7d33" stroke-width="1"/><path d="M 27.9,306.1 L 20.0,296.0 L 20.0,274.0 L 44.1,265.8 L 46.0,257.1 L 52.9,252.9 L 58.2,251.4 L 61.9,237.2 L 85.4,230.2 L 101.2,222.1 L 105.2,228.2 L 99.4,232.0 L 88.8,235.4 L 87.2,237.1 L 83.0,251.5 L 77.7,259.5 L 72.6,264.0 L 68.1,265.9 L 55.7,266.1 L 50.2,272.0 L 39.2,279.8 L 38.3,282.8 L 40.6,287.7 L 40.3,291.2 L 36.3,295.6 L 35.2,301.7 L 32.0,306.0 L 27.9,306.1 Z" fill="#3f8f47" fill-rule="evenodd" stroke="#2f7d33" stroke-width="1"/><path d="M 102.6,320.2 L 92.9,329.0 L 89.7,337.1 L 86.4,341.6 L 78.5,337.5 L 82.5,324.2 L 87.7,321.0 L 90.0,317.7 L 89.8,307.9 L 93.5,308.0 L 94.5,312.7 L 107.1,318.6 L 107.3,320.3 L 102.6,320.2 Z" fill="#3f8f47" fill-rule="evenodd" stroke="#2f7d33" stroke-width="1"/><path d="M 62.2,332.0 L 47.5,323.4 L 33.5,310.7 L 32.7,308.3 L 36.9,302.8 L 37.9,297.0 L 38.6,297.0 L 38.2,301.2 L 40.1,300.8 L 40.2,309.4 L 44.3,314.5 L 58.3,317.5 L 58.3,318.3 L 71.1,319.9 L 71.5,321.3 L 78.2,322.5 L 86.9,319.5 L 88.7,317.9 L 87.6,319.7 L 82.0,323.5 L 77.7,336.3 L 77.0,336.9 L 62.2,332.0 Z" fill="#3f8f47" fill-rule="evenodd" stroke="#2f7d33" stroke-width="1"/><path d="M 63.4,302.0 L 69.3,300.8 L 72.5,303.5 L 71.3,305.7 L 69.7,305.3 L 69.7,305.3 L 62.2,303.4 L 59.8,302.1 L 59.7,301.9 L 63.4,302.0 Z" fill="#3f8f47" fill-rule="evenodd" stroke="#2f7d33" stroke-width="1"/><path d="M 446.1,310.8 L 450.0,310.2 L 452.5,312.0 L 452.3,314.9 L 447.0,324.2 L 445.1,330.0 L 444.1,329.9 L 445.9,322.6 L 439.8,320.0 L 446.1,310.8 Z" fill="#3f8f47" fill-rule="evenodd" stroke="#2f7d33" stroke-width="1"/><path d="M 56.4,452.2 L 59.4,458.2 L 59.1,458.3 L 59.7,460.2 L 58.0,461.1 L 58.1,461.2 L 55.1,462.7 L 55.7,464.6 L 57.2,466.4 L 60.3,466.5 L 63.7,474.3 L 63.1,475.6 L 59.9,472.5 L 58.1,473.0 L 58.3,474.6 L 62.2,477.7 L 61.0,480.3 L 57.9,482.4 L 55.2,476.7 L 41.7,469.6 L 42.5,467.0 L 52.4,455.1 L 56.4,452.2 Z" fill="#3f8f47" fill-rule="evenodd" stroke="#2f7d33" stroke-width="1"/><path d="M 154.6,328.2 L 147.2,328.4 L 149.3,322.4 L 149.3,322.4 L 149.7,321.4 L 154.1,322.7 L 155.2,324.7 L 154.6,328.2 Z" fill="#3f8f47" fill-rule="evenodd" stroke="#2f7d33" stroke-width="1"/><path d="M 148.9,455.4 L 151.5,455.2 L 171.4,460.7 L 171.5,464.5 L 173.4,466.7 L 171.4,465.9 L 171.4,466.8 L 163.4,470.0 L 157.1,471.1 L 153.7,475.3 L 153.7,487.4 L 152.2,488.9 L 137.5,486.5 L 135.4,480.8 L 148.9,455.4 Z" fill="#3f8f47" fill-rule="evenodd" stroke="#2f7d33" stroke-width="1"/><path d="M 245.0,442.5 L 234.9,437.4 L 235.8,435.9 L 238.5,435.9 L 246.0,431.0 L 248.6,430.4 L 250.1,432.1 L 245.0,442.5 Z" fill="#3f8f47" fill-rule="evenodd" stroke="#2f7d33" stroke-width="1"/><path d="M 330.5,367.6 L 332.8,364.4 L 337.3,361.2 L 342.8,359.8 L 345.4,357.4 L 355.5,357.0 L 358.4,358.9 L 358.6,359.9 L 350.3,369.6 L 345.4,378.8 L 337.5,381.3 L 332.3,380.4 L 329.6,371.9 L 330.5,367.6 Z" fill="#3f8f47" fill-rule="evenodd" stroke="#2f7d33" stroke-width="1"/><path d="M 233.7,416.0 L 237.3,416.9 L 237.5,416.8 L 254.1,420.2 L 258.0,415.2 L 261.9,433.4 L 266.7,437.1 L 272.0,437.6 L 269.1,445.3 L 256.8,444.9 L 246.0,440.5 L 250.1,432.1 L 248.6,430.4 L 246.0,431.0 L 238.5,435.9 L 231.9,434.3 L 211.9,418.8 L 211.4,413.4 L 218.8,406.2 L 226.0,411.2 L 226.2,411.1 L 233.7,416.0 Z" fill="#3f8f47" fill-rule="evenodd" stroke="#2f7d33" stroke-width="1"/><path d="M 286.5,433.9 L 279.8,437.4 L 265.8,436.1 L 261.6,431.1 L 258.7,414.2 L 262.4,412.0 L 270.8,411.3 L 288.1,402.2 L 300.3,401.5 L 301.7,407.4 L 301.0,415.8 L 288.5,429.6 L 286.5,433.9 Z" fill="#3f8f47" fill-rule="evenodd" stroke="#2f7d33" stroke-width="1"/><path d="M 349.5,436.6 L 364.7,434.0 L 366.9,433.0 L 372.9,423.1 L 373.5,422.6 L 374.2,423.1 L 369.4,429.9 L 366.3,439.4 L 361.8,438.6 L 349.7,439.2 L 331.0,435.9 L 349.5,436.6 Z" fill="#3f8f47" fill-rule="evenodd" stroke="#2f7d33" stroke-width="1"/><path d="M 28.6,471.6 L 23.2,471.5 L 20.8,470.1 L 25.2,465.4 L 22.4,464.4 L 22.0,462.4 L 20.0,461.9 L 20.0,460.1 L 27.9,462.4 L 28.6,471.6 Z" fill="#3f8f47" fill-rule="evenodd" stroke="#2f7d33" stroke-width="1"/><path d="M 153.6,279.8 L 153.6,279.8 L 145.2,291.2 L 131.2,311.0 L 129.0,312.6 L 129.0,312.6 L 117.0,321.7 L 120.9,329.0 L 122.2,330.1 L 122.3,330.4 L 126.2,333.7 L 127.5,346.0 L 124.3,338.5 L 124.6,335.1 L 121.4,333.2 L 117.9,329.1 L 113.8,319.0 L 122.2,312.5 L 129.7,310.6 L 131.5,306.0 L 130.5,304.3 L 161.8,261.2 L 176.6,279.1 L 182.6,284.6 L 198.9,293.6 L 214.5,298.1 L 214.5,300.3 L 206.6,298.3 L 205.5,299.9 L 206.0,298.2 L 203.8,297.1 L 200.9,296.2 L 190.9,292.3 L 187.1,290.0 L 186.9,290.0 L 179.7,285.0 L 170.2,272.9 L 164.3,268.9 L 159.3,271.8 L 156.6,275.6 L 156.6,275.6 L 153.6,279.8 Z" fill="#3f8f47" fill-rule="evenodd" stroke="#2f7d33" stroke-width="1"/><path d="M 174.4,465.7 L 172.5,464.6 L 172.1,455.4 L 174.0,453.8 L 175.6,459.2 L 175.3,464.9 L 174.4,465.7 Z" fill="#3f8f47" fill-rule="evenodd" stroke="#2f7d33" stroke-width="1"/><path d="M 323.8,226.1 L 324.7,217.7 L 332.2,203.4 L 339.7,213.1 L 339.9,229.3 L 344.1,230.3 L 343.5,231.7 L 323.8,226.1 Z" fill="#3f8f47" fill-rule="evenodd" stroke="#2f7d33" stroke-width="1"/></svg>