<?xml version="1.0" encoding="UTF-8"?><svg xmlns="http://www.w3.org/2000/svg" viewBox="0 0 560 600" font-family="Arial, sans-serif"><rect width="560" height="600" fill="white"/><text x="20" y="38" fill="#D32333" font-weight="800" font-size="22">Public-transport stops</text><rect x="20.0" y="56.0" width="520.0" height="520.0" rx="10" fill="#eef1ee"/><rect x="456.0" y="254.8" width="9.0" height="9.0" rx="2" fill="#1f6fbf"/><rect x="236.6" y="320.6" width="9.0" height="9.0" rx="2" fill="#1f6fbf"/><rect x="213.5" y="317.7" width="9.0" height="9.0" rx="2" fill="#1f6fbf"/><rect x="237.6" y="316.6" width="9.0" height="9.0" rx="2" fill="#1f6fbf"/><rect x="284.4" y="335.8" width="9.0" height="9.0" rx="2" fill="#1f6fbf"/><rect x="313.4" y="314.2" width="9.0" height="9.0" rx="2" fill="#1f6fbf"/><rect x="449.8" y="255.5" width="9.0" height="9.0" rx="2" fill="#1f6fbf"/><rect x="254.6" y="295.5" width="9.0" height="9.0" rx="2" fill="#1f6fbf"/><rect x="238.8" y="262.6" width="9.0" height="9.0" rx="2" fill="#1f6fbf"/><rect x="279.5" y="304.1" width="9.0" height="9.0" rx="2" fill="#1f6fbf"/><rect x="272.4" y="315.1" width="9.0" height="9.0" rx="2" fill="#1f6fbf"/><rect x="257.3" y="299.0" width="9.0" height="9.0" rx="2" fill="#1f6fbf"/><rect x="274.3" y="354.4" width="9.0" height="9.0" rx="2" fill="#1f6fbf"/><rect x="187.1" y="312.8" width="9.0" height="9.0" rx="2" fill="#1f6fbf"/><rect x="189.7" y="311.0" width="9.0" height="9.0" rx="2" fill="#1f6fbf"/><rect x="159.6" y="326.4" width="9.0" height="9.0" rx="2" fill="#1f6fbf"/><rect x="162.6" y="326.4" width="9.0" height="9.0" rx="2" fill="#1f6fbf"/><rect x="239.1" y="253.1" width="9.0" height="9.0" rx="2" fill="#1f6fbf"/><rect x="249.9" y="254.4" width="9.0" height="9.0" rx="2" fill="#1f6fbf"/><rect x="187.5" y="246.9" width="9.0" height="9.0" rx="2" fill="#1f6fbf"/><rect x="55.5" y="441.4" width="9.0" height="9.0" rx="2" fill="#1f6fbf"/><rect x="72.5" y="487.3" width="9.0" height="9.0" rx="2" fill="#1f6fbf"/><rect x="45.0" y="403.1" width="9.0" height="9.0" rx="2" fill="#1f6fbf"/><rect x="70.8" y="487.6" width="9.0" height="9.0" rx="2" fill="#1f6fbf"/><rect x="56.8" y="441.1" width="9.0" height="9.0" rx="2" fill="#1f6fbf"/><rect x="45.3" y="395.6" width="9.0" height="9.0" rx="2" fill="#1f6fbf"/><rect x="463.8" y="256.5" width="9.0" height="9.0" rx="2" fill="#1f6fbf"/><rect x="297.9" y="301.0" width="9.0" height="9.0" rx="2" fill="#1f6fbf"/><rect x="398.5" y="306.0" width="9.0" height="9.0" rx="2" fill="#1f6fbf"/><rect x="390.0" y="277.7" width="9.0" height="9.0" rx="2" fill="#1f6fbf"/><rect x="368.7" y="288.7" width="9.0" height="9.0" rx="2" fill="#1f6fbf"/><rect x="365.3" y="305.4" width="9.0" height="9.0" rx="2" fill="#1f6fbf"/><rect x="337.2" y="281.8" width="9.0" height="9.0" rx="2" fill="#1f6fbf"/><rect x="333.1" y="282.1" width="9.0" height="9.0" rx="2" fill="#1f6fbf"/><rect x="215.3" y="318.4" width="9.0" height="9.0" rx="2" fill="#1f6fbf"/></svg>