<?xml version="1.0" encoding="UTF-8"?><svg xmlns="http://www.w3.org/2000/svg" viewBox="0 0 560 600" font-family="Arial, sans-serif"><rect width="560" height="600" fill="white"/><text x="20" y="38" fill="#D32333" font-weight="800" font-size="22">Unbuildable (water, industrial, barriers)</text><rect x="20.0" y="56.0" width="520.0" height="520.0" rx="10" fill="#eef1ee"/><path d="M 88.6,554.2 L 90.7,550.2 L 94.5,548.9 L 98.2,550.6 L 99.8,554.8 L 98.0,558.6 L 94.2,560.1 L 90.0,558.1 L 88.6,554.2 Z" fill="#6f9fcf" fill-rule="evenodd" stroke="#5a86b5" stroke-width="1"/><path d="M 90.2,553.4 L 94.4,545.8 L 96.8,545.1 L 99.3,546.4 L 100.2,549.1 L 96.5,555.2 L 93.5,556.4 L 90.2,553.4 Z" fill="#6f9fcf" fill-rule="evenodd" stroke="#5a86b5" stroke-width="1"/><path d="M 523.6,286.0 L 483.7,282.3 L 447.1,274.8 L 411.4,263.7 L 374.0,249.5 L 334.6,239.0 L 297.0,232.3 L 295.1,230.8 L 294.6,228.0 L 298.0,225.1 L 308.9,226.4 L 353.9,236.0 L 376.5,242.5 L 432.0,262.9 L 468.5,272.1 L 512.0,278.1 L 540.0,278.9 L 540.0,286.3 L 523.6,286.0 Z" fill="#6f9fcf" fill-rule="evenodd" stroke="#5a86b5" stroke-width="1"/><path d="M 308.8,224.9 L 354.3,234.4 L 376.0,240.9 L 430.4,261.0 L 462.0,269.3 L 499.7,275.4 L 540.0,277.4 L 540.0,284.9 L 511.1,284.0 L 484.1,281.0 L 447.1,273.5 L 428.0,268.0 L 362.1,244.5 L 334.9,237.2 L 291.8,230.3 L 288.9,226.9 L 289.7,224.2 L 292.3,223.0 L 308.8,224.9 Z" fill="#6f9fcf" fill-rule="evenodd" stroke="#5a86b5" stroke-width="1"/><path d="M 246.9,211.0 L 251.8,214.7 L 260.2,217.5 L 293.9,223.2 L 295.9,225.1 L 296.0,228.0 L 292.3,230.4 L 252.6,223.0 L 246.1,220.2 L 241.7,216.6 L 239.5,212.7 L 239.2,209.5 L 240.8,207.1 L 243.6,206.6 L 245.7,207.9 L 246.9,211.0 Z" fill="#6f9fcf" fill-rule="evenodd" stroke="#5a86b5" stroke-width="1"/><path d="M 245.6,232.6 L 243.0,234.4 L 240.3,233.9 L 238.6,231.1 L 239.5,228.2 L 245.5,224.3 L 252.0,223.1 L 284.4,224.1 L 286.7,225.2 L 287.7,227.5 L 286.8,230.2 L 284.3,231.5 L 252.7,230.5 L 245.6,232.6 Z" fill="#6f9fcf" fill-rule="evenodd" stroke="#5a86b5" stroke-width="1"/><path d="M 210.7,209.5 L 227.9,211.0 L 231.9,209.4 L 233.6,206.8 L 236.0,206.1 L 238.6,207.3 L 239.5,209.9 L 237.7,214.0 L 234.3,216.6 L 229.2,218.3 L 221.7,218.6 L 202.9,215.3 L 190.9,210.9 L 189.1,207.2 L 190.5,204.8 L 193.3,204.1 L 210.7,209.5 Z" fill="#6f9fcf" fill-rule="evenodd" stroke="#5a86b5" stroke-width="1"/><path d="M 232.2,230.1 L 204.1,219.7 L 188.3,212.3 L 186.5,210.1 L 186.7,207.3 L 188.9,205.4 L 191.4,205.5 L 206.9,212.8 L 229.0,220.6 L 234.0,223.5 L 235.4,225.9 L 234.7,228.7 L 232.2,230.1 Z" fill="#6f9fcf" fill-rule="evenodd" stroke="#5a86b5" stroke-width="1"/><path d="M 261.6,276.5 L 258.5,278.2 L 255.2,276.2 L 255.1,273.0 L 257.7,269.4 L 260.6,269.2 L 262.8,271.0 L 263.1,273.5 L 261.6,276.5 Z" fill="#6f9fcf" fill-rule="evenodd" stroke="#5a86b5" stroke-width="1"/><path d="M 219.5,265.6 L 212.2,265.7 L 206.2,264.6 L 206.5,263.4 L 209.9,263.1 L 213.6,261.1 L 220.1,262.2 L 219.5,265.6 Z" fill="#6f9fcf" fill-rule="evenodd" stroke="#5a86b5" stroke-width="1"/><path d="M 204.4,264.1 L 198.1,261.4 L 193.7,258.4 L 194.3,257.5 L 202.0,258.9 L 202.5,261.2 L 204.6,262.9 L 204.4,264.1 Z" fill="#6f9fcf" fill-rule="evenodd" stroke="#5a86b5" stroke-width="1"/><path d="M 258.7,274.6 L 256.2,276.4 L 256.8,280.7 L 254.4,282.0 L 249.7,279.2 L 253.2,275.6 L 258.7,274.6 Z" fill="#6f9fcf" fill-rule="evenodd" stroke="#5a86b5" stroke-width="1"/><path d="M 259.5,272.4 L 256.2,259.9 L 256.3,258.0 L 258.1,256.8 L 258.7,259.0 L 261.6,259.4 L 261.8,264.2 L 268.1,265.3 L 265.5,267.4 L 261.9,267.8 L 259.5,272.4 Z" fill="#6f9fcf" fill-rule="evenodd" stroke="#5a86b5" stroke-width="1"/><path d="M 166.7,362.8 L 176.9,359.9 L 178.4,362.0 L 177.7,364.0 L 174.5,364.5 L 173.2,367.3 L 171.1,368.5 L 165.6,369.7 L 164.9,371.5 L 166.7,373.2 L 165.0,374.9 L 160.9,375.7 L 153.8,374.3 L 153.1,371.7 L 156.0,368.8 L 159.2,369.9 L 160.7,368.9 L 161.4,366.5 L 166.7,362.8 Z" fill="#6f9fcf" fill-rule="evenodd" stroke="#5a86b5" stroke-width="1"/><path d="M 202.6,350.4 L 191.4,351.0 L 189.9,349.4 L 193.0,344.2 L 197.0,344.1 L 197.3,339.3 L 199.1,337.4 L 199.4,334.8 L 202.6,330.5 L 204.3,329.8 L 205.1,333.1 L 204.4,339.2 L 206.4,344.6 L 205.8,349.0 L 202.6,350.4 Z" fill="#6f9fcf" fill-rule="evenodd" stroke="#5a86b5" stroke-width="1"/><path d="M 355.2,361.6 L 341.3,378.1 L 337.7,376.3 L 336.1,374.5 L 336.0,368.4 L 338.6,365.8 L 346.0,363.0 L 351.1,359.6 L 355.5,359.3 L 355.2,361.6 Z" fill="#6f9fcf" fill-rule="evenodd" stroke="#5a86b5" stroke-width="1"/><path d="M 114.2,358.5 L 102.3,353.8 L 101.0,351.6 L 101.5,348.9 L 103.9,347.3 L 115.9,351.5 L 117.9,354.8 L 116.8,357.4 L 114.2,358.5 Z" fill="#6f9fcf" fill-rule="evenodd" stroke="#5a86b5" stroke-width="1"/><path d="M 111.4,357.3 L 110.9,353.2 L 114.4,351.1 L 120.2,355.3 L 121.2,358.0 L 119.9,360.6 L 117.3,361.5 L 111.4,357.3 Z" fill="#6f9fcf" fill-rule="evenodd" stroke="#5a86b5" stroke-width="1"/><path d="M 119.7,353.0 L 121.7,356.6 L 119.2,359.9 L 112.5,358.1 L 110.7,355.9 L 110.9,353.1 L 113.1,351.3 L 119.7,353.0 Z" fill="#6f9fcf" fill-rule="evenodd" stroke="#5a86b5" stroke-width="1"/><path d="M 123.4,363.5 L 120.3,366.2 L 116.8,364.7 L 116.6,358.9 L 118.1,356.5 L 120.9,355.8 L 123.3,357.3 L 123.4,363.5 Z" fill="#6f9fcf" fill-rule="evenodd" stroke="#5a86b5" stroke-width="1"/><path d="M 115.4,360.2 L 117.2,356.4 L 121.0,356.4 L 123.4,361.6 L 123.0,364.4 L 120.7,366.1 L 117.9,365.7 L 115.4,360.2 Z" fill="#6f9fcf" fill-rule="evenodd" stroke="#5a86b5" stroke-width="1"/><path d="M 227.8,296.9 L 226.7,299.9 L 223.7,300.9 L 221.0,299.2 L 220.3,296.0 L 221.7,293.6 L 224.4,292.8 L 226.9,294.2 L 227.8,296.9 Z" fill="#6f9fcf" fill-rule="evenodd" stroke="#5a86b5" stroke-width="1"/><path d="M 225.2,303.0 L 222.2,304.0 L 219.7,302.7 L 218.9,299.9 L 220.4,297.2 L 223.2,296.4 L 225.7,297.8 L 226.5,300.5 L 225.2,303.0 Z" fill="#6f9fcf" fill-rule="evenodd" stroke="#5a86b5" stroke-width="1"/><path d="M 214.5,307.1 L 213.7,304.0 L 214.9,300.6 L 217.7,298.9 L 220.8,299.8 L 222.0,302.0 L 222.1,309.8 L 219.5,313.0 L 214.8,315.4 L 212.2,314.4 L 211.0,311.8 L 211.7,309.4 L 214.5,307.1 Z" fill="#6f9fcf" fill-rule="evenodd" stroke="#5a86b5" stroke-width="1"/><path d="M 239.8,278.4 L 244.7,274.0 L 248.2,275.5 L 248.7,278.6 L 245.9,283.2 L 241.1,285.9 L 234.6,287.3 L 226.4,296.5 L 222.0,295.9 L 221.1,291.9 L 227.0,284.2 L 230.8,280.9 L 239.8,278.4 Z" fill="#6f9fcf" fill-rule="evenodd" stroke="#5a86b5" stroke-width="1"/><path d="M 20.0,457.4 L 28.1,459.9 L 35.4,466.3 L 43.5,464.9 L 57.9,472.5 L 61.4,476.7 L 62.3,483.1 L 66.4,481.2 L 69.2,481.4 L 76.5,488.6 L 82.7,506.7 L 88.1,507.5 L 93.5,513.3 L 98.8,512.6 L 106.1,517.6 L 113.8,519.3 L 121.2,525.3 L 130.6,535.5 L 137.2,538.0 L 139.5,545.0 L 144.8,551.1 L 151.8,553.1 L 161.3,552.4 L 162.9,550.0 L 165.7,548.7 L 176.8,548.9 L 184.2,551.7 L 186.6,554.3 L 191.4,555.7 L 193.9,559.4 L 193.8,562.3 L 191.8,565.4 L 194.2,572.1 L 194.0,576.0 L 185.1,576.0 L 186.0,572.4 L 184.2,564.5 L 185.3,561.7 L 180.7,558.9 L 177.5,558.4 L 175.4,556.3 L 167.9,556.0 L 166.0,558.5 L 162.7,559.8 L 151.6,560.5 L 143.1,558.6 L 136.8,554.0 L 132.5,547.6 L 131.3,543.4 L 126.0,541.3 L 116.1,530.7 L 109.8,525.6 L 103.0,524.6 L 96.4,520.7 L 90.8,520.7 L 84.2,514.1 L 80.6,515.3 L 78.2,514.7 L 70.1,492.6 L 68.1,490.1 L 67.0,489.1 L 62.0,490.9 L 55.6,490.3 L 53.5,486.6 L 54.8,482.9 L 53.3,478.4 L 42.3,472.4 L 37.1,474.4 L 30.6,472.2 L 24.4,466.4 L 20.0,465.1 L 20.0,457.4 Z" fill="#6f9fcf" fill-rule="evenodd" stroke="#5a86b5" stroke-width="1"/><path d="M 536.3,497.7 L 529.3,512.3 L 527.8,530.5 L 540.0,551.3 L 540.0,565.6 L 522.7,537.3 L 520.4,531.5 L 522.2,509.8 L 530.2,493.3 L 537.7,487.1 L 540.0,483.2 L 540.0,494.8 L 536.3,497.7 Z" fill="#6f9fcf" fill-rule="evenodd" stroke="#5a86b5" stroke-width="1"/><path d="M 397.3,561.0 L 402.1,551.7 L 409.2,552.2 L 401.6,563.2 L 397.3,561.0 Z" fill="#6f9fcf" fill-rule="evenodd" stroke="#5a86b5" stroke-width="1"/><path d="M 409.2,473.9 L 408.5,472.7 L 412.4,461.1 L 426.9,459.4 L 429.4,470.4 L 409.2,473.9 Z" fill="#6f9fcf" fill-rule="evenodd" stroke="#5a86b5" stroke-width="1"/><path d="M 41.2,375.7 L 39.0,369.0 L 39.5,367.4 L 37.4,365.6 L 51.4,363.9 L 51.7,372.4 L 41.2,375.7 Z" fill="#6f9fcf" fill-rule="evenodd" stroke="#5a86b5" stroke-width="1"/><path d="M 368.3,147.0 L 348.8,108.9 L 348.8,106.1 L 350.8,104.1 L 353.3,103.9 L 355.3,105.4 L 375.0,143.9 L 388.2,179.1 L 388.0,181.6 L 386.3,183.4 L 383.4,183.6 L 381.3,181.7 L 368.3,147.0 Z" fill="#6f9fcf" fill-rule="evenodd" stroke="#5a86b5" stroke-width="1"/><path d="M 271.1,235.6 L 278.7,236.8 L 300.1,236.1 L 313.9,237.4 L 316.4,238.8 L 317.1,241.6 L 316.0,243.8 L 313.7,244.8 L 299.9,243.5 L 277.9,244.2 L 265.5,241.4 L 255.7,235.7 L 254.5,232.0 L 256.2,229.7 L 259.0,229.3 L 271.1,235.6 Z" fill="#6f9fcf" fill-rule="evenodd" stroke="#5a86b5" stroke-width="1"/><path d="M 321.5,239.3 L 335.0,239.7 L 343.7,244.8 L 355.7,245.0 L 363.6,247.5 L 365.7,249.3 L 365.9,252.2 L 362.3,254.7 L 354.7,252.4 L 341.7,252.2 L 333.1,247.0 L 329.9,247.6 L 322.3,246.3 L 319.5,244.2 L 319.5,241.3 L 321.5,239.3 Z" fill="#6f9fcf" fill-rule="evenodd" stroke="#5a86b5" stroke-width="1"/><path d="M 361.3,240.3 L 363.7,241.9 L 364.3,244.7 L 362.7,247.0 L 359.9,247.6 L 333.8,242.3 L 323.0,237.3 L 321.4,233.8 L 322.9,231.4 L 325.6,230.6 L 336.1,235.2 L 361.3,240.3 Z" fill="#6f9fcf" fill-rule="evenodd" stroke="#5a86b5" stroke-width="1"/><path d="M 331.4,237.5 L 334.8,235.0 L 338.4,237.5 L 337.3,244.5 L 335.0,246.7 L 332.2,246.6 L 330.3,244.5 L 331.4,237.5 Z" fill="#6f9fcf" fill-rule="evenodd" stroke="#5a86b5" stroke-width="1"/><path d="M 339.3,246.7 L 341.2,245.1 L 343.7,245.0 L 345.6,246.5 L 346.2,249.0 L 340.8,261.7 L 337.3,263.3 L 334.8,261.9 L 334.1,259.2 L 339.3,246.7 Z" fill="#6f9fcf" fill-rule="evenodd" stroke="#5a86b5" stroke-width="1"/><path d="M 283.2,248.2 L 281.4,246.4 L 281.0,243.9 L 283.1,237.8 L 286.2,236.2 L 289.4,238.2 L 289.2,242.5 L 296.5,245.1 L 298.0,248.3 L 296.8,250.9 L 294.1,251.9 L 283.2,248.2 Z" fill="#6f9fcf" fill-rule="evenodd" stroke="#5a86b5" stroke-width="1"/><path d="M 328.7,200.9 L 330.7,199.4 L 333.2,199.5 L 335.2,201.5 L 335.3,204.0 L 326.3,220.9 L 322.2,222.4 L 320.0,220.6 L 319.7,217.8 L 328.7,200.9 Z" fill="#6f9fcf" fill-rule="evenodd" stroke="#5a86b5" stroke-width="1"/><path d="M 366.3,255.1 L 368.1,253.4 L 370.6,253.2 L 372.6,254.6 L 373.3,257.3 L 367.2,273.7 L 363.2,275.7 L 360.8,274.2 L 360.2,271.4 L 366.3,255.1 Z" fill="#6f9fcf" fill-rule="evenodd" stroke="#5a86b5" stroke-width="1"/><path d="M 471.6,462.0 L 476.9,498.5 L 484.8,518.2 L 494.4,525.8 L 527.6,532.1 L 529.5,534.9 L 528.0,538.4 L 525.2,539.0 L 491.8,532.8 L 478.9,522.9 L 469.7,500.3 L 464.9,462.4 L 466.9,460.4 L 469.8,460.4 L 471.6,462.0 Z" fill="#6f9fcf" fill-rule="evenodd" stroke="#5a86b5" stroke-width="1"/><path d="M 288.5,171.4 L 311.7,153.0 L 319.9,148.4 L 323.9,150.1 L 324.4,152.5 L 323.2,154.8 L 315.7,159.3 L 294.3,176.1 L 273.1,210.7 L 271.0,212.0 L 268.5,211.8 L 266.6,209.6 L 266.8,206.8 L 288.5,171.4 Z" fill="#6f9fcf" fill-rule="evenodd" stroke="#5a86b5" stroke-width="1"/><path d="M 20.0,168.2 L 20.0,166.4 L 42.3,165.4 L 42.3,166.7 L 20.0,168.2 Z" fill="#6f9fcf" fill-rule="evenodd" stroke="#5a86b5" stroke-width="1"/><path d="M 438.3,344.0 L 440.1,345.3 L 438.5,346.5 L 438.8,351.1 L 438.4,352.8 L 437.2,353.0 L 436.7,348.6 L 434.3,348.4 L 432.5,346.0 L 434.4,344.3 L 438.3,344.0 Z" fill="#6f9fcf" fill-rule="evenodd" stroke="#5a86b5" stroke-width="1"/><path d="M 98.7,558.7 L 96.3,562.2 L 92.6,561.6 L 91.2,558.7 L 92.5,553.7 L 94.9,552.3 L 97.7,553.1 L 99.0,555.2 L 98.7,558.7 Z" fill="#6f9fcf" fill-rule="evenodd" stroke="#5a86b5" stroke-width="1"/><path d="M 99.2,553.1 L 96.5,556.6 L 92.3,555.1 L 91.8,551.2 L 94.6,545.7 L 97.4,545.2 L 99.7,546.9 L 99.2,553.1 Z" fill="#6f9fcf" fill-rule="evenodd" stroke="#5a86b5" stroke-width="1"/><path d="M 90.3,557.7 L 90.9,553.9 L 94.5,552.7 L 96.8,554.3 L 98.6,559.5 L 96.9,561.8 L 94.1,562.3 L 92.0,561.0 L 90.3,557.7 Z" fill="#6f9fcf" fill-rule="evenodd" stroke="#5a86b5" stroke-width="1"/><path d="M 96.0,539.0 L 97.8,537.2 L 100.3,536.9 L 103.1,540.3 L 99.9,550.4 L 96.7,552.6 L 94.1,551.6 L 92.8,549.1 L 96.0,539.0 Z" fill="#6f9fcf" fill-rule="evenodd" stroke="#5a86b5" stroke-width="1"/><path d="M 144.0,372.7 L 135.2,382.6 L 122.2,389.4 L 119.3,389.3 L 117.4,387.2 L 118.6,383.0 L 131.0,376.4 L 136.3,370.2 L 141.1,368.3 L 143.4,369.9 L 144.0,372.7 Z" fill="#6f9fcf" fill-rule="evenodd" stroke="#5a86b5" stroke-width="1"/><path d="M 325.6,221.2 L 330.2,210.2 L 332.1,208.3 L 334.1,209.5 L 333.5,218.6 L 329.6,223.6 L 326.7,222.8 L 325.6,221.2 Z" fill="#6f9fcf" fill-rule="evenodd" stroke="#5a86b5" stroke-width="1"/><path d="M 102.7,519.1 L 105.7,516.8 L 109.0,518.1 L 109.8,521.2 L 107.9,525.2 L 105.2,526.0 L 102.7,524.7 L 101.9,522.3 L 102.7,519.1 Z" fill="#6f9fcf" fill-rule="evenodd" stroke="#5a86b5" stroke-width="1"/><path d="M 102.5,521.3 L 110.8,459.7 L 116.0,369.3 L 117.5,366.9 L 120.3,366.2 L 122.7,367.7 L 123.4,370.1 L 118.2,460.3 L 112.6,508.1 L 109.6,521.8 L 106.9,524.1 L 104.1,523.7 L 102.5,521.3 Z" fill="#6f9fcf" fill-rule="evenodd" stroke="#5a86b5" stroke-width="1"/><path d="M 269.8,432.6 L 270.8,431.0 L 269.1,428.9 L 269.6,426.7 L 274.3,425.4 L 276.5,426.7 L 277.7,429.7 L 279.2,429.8 L 281.4,427.5 L 279.4,423.3 L 280.3,420.0 L 283.6,418.3 L 286.0,419.4 L 289.3,426.9 L 286.3,432.3 L 278.8,436.8 L 277.5,435.5 L 270.4,435.6 L 269.8,432.6 Z" fill="#6f9fcf" fill-rule="evenodd" stroke="#5a86b5" stroke-width="1"/><path d="M 224.0,304.1 L 220.9,304.8 L 218.3,302.5 L 218.5,299.3 L 221.3,296.9 L 224.1,296.9 L 226.1,299.0 L 226.0,301.8 L 224.0,304.1 Z" fill="#6f9fcf" fill-rule="evenodd" stroke="#5a86b5" stroke-width="1"/><path d="M 223.0,304.7 L 219.6,305.3 L 217.2,302.8 L 217.7,299.7 L 220.6,297.6 L 223.4,297.8 L 225.3,300.0 L 225.1,302.8 L 223.0,304.7 Z" fill="#6f9fcf" fill-rule="evenodd" stroke="#5a86b5" stroke-width="1"/><path d="M 473.8,413.0 L 465.2,411.2 L 465.7,408.9 L 468.0,409.4 L 468.5,407.2 L 473.7,408.4 L 474.6,409.2 L 473.8,413.0 Z" fill="#6f9fcf" fill-rule="evenodd" stroke="#5a86b5" stroke-width="1"/><path d="M 160.9,464.1 L 160.7,465.5 L 153.7,471.2 L 151.9,471.1 L 149.0,468.4 L 149.8,465.6 L 152.0,463.7 L 152.6,464.3 L 150.8,466.4 L 153.2,467.3 L 155.3,465.5 L 158.2,465.1 L 157.1,462.9 L 160.9,464.1 Z" fill="#6f9fcf" fill-rule="evenodd" stroke="#5a86b5" stroke-width="1"/><path d="M 43.0,129.1 L 44.7,122.1 L 46.6,122.5 L 47.2,123.1 L 43.3,135.2 L 43.0,129.1 Z" fill="#6f9fcf" fill-rule="evenodd" stroke="#5a86b5" stroke-width="1"/><path d="M 118.0,392.4 L 113.9,392.1 L 112.7,387.9 L 119.0,382.7 L 122.2,382.4 L 124.2,384.4 L 124.3,387.3 L 118.0,392.4 Z" fill="#6f9fcf" fill-rule="evenodd" stroke="#5a86b5" stroke-width="1"/><path d="M 35.4,437.2 L 43.3,428.2 L 54.5,426.4 L 59.0,419.7 L 65.9,417.6 L 69.2,419.5 L 68.9,423.6 L 63.3,426.1 L 58.7,432.7 L 54.5,435.0 L 47.4,434.5 L 38.4,446.3 L 35.5,447.6 L 32.9,446.5 L 31.9,443.9 L 35.4,437.2 Z" fill="#6f9fcf" fill-rule="evenodd" stroke="#5a86b5" stroke-width="1"/><path d="M 139.9,86.6 L 151.6,90.3 L 151.1,92.8 L 138.8,89.5 L 139.9,86.6 Z" fill="#6f9fcf" fill-rule="evenodd" stroke="#5a86b5" stroke-width="1"/><path d="M 103.9,354.6 L 53.3,332.4 L 47.8,328.9 L 32.1,316.1 L 31.1,313.9 L 31.8,311.5 L 34.2,309.9 L 36.6,310.4 L 56.7,325.8 L 106.4,347.6 L 108.3,351.6 L 106.7,354.0 L 103.9,354.6 Z" fill="#6f9fcf" fill-rule="evenodd" stroke="#5a86b5" stroke-width="1"/><path d="M 116.2,366.2 L 117.2,360.0 L 119.8,358.8 L 122.4,359.9 L 123.7,364.4 L 123.4,370.5 L 122.2,372.7 L 119.5,373.6 L 116.9,372.4 L 116.2,366.2 Z" fill="#6f9fcf" fill-rule="evenodd" stroke="#5a86b5" stroke-width="1"/><path d="M 95.7,540.8 L 102.4,520.3 L 104.7,518.7 L 107.5,519.2 L 109.2,523.3 L 102.2,542.9 L 99.7,544.2 L 97.0,543.3 L 95.7,540.8 Z" fill="#6f9fcf" fill-rule="evenodd" stroke="#5a86b5" stroke-width="1"/><path d="M 92.6,570.7 L 91.5,557.3 L 93.5,555.3 L 96.3,555.2 L 98.6,557.9 L 99.3,570.9 L 97.1,572.7 L 94.3,572.5 L 92.6,570.7 Z" fill="#6f9fcf" fill-rule="evenodd" stroke="#5a86b5" stroke-width="1"/><path d="M 92.4,570.0 L 94.2,566.0 L 98.3,566.3 L 99.6,568.4 L 100.6,576.0 L 93.7,576.0 L 92.4,570.0 Z" fill="#6f9fcf" fill-rule="evenodd" stroke="#5a86b5" stroke-width="1"/><path d="M 365.6,268.8 L 367.3,270.7 L 367.3,273.2 L 360.8,287.6 L 356.4,294.3 L 353.6,294.6 L 346.8,291.2 L 334.6,288.4 L 330.4,285.2 L 330.7,281.7 L 333.8,280.1 L 353.2,286.0 L 358.9,274.0 L 335.3,264.2 L 333.6,260.8 L 335.9,257.7 L 338.7,257.7 L 365.6,268.8 Z" fill="#6f9fcf" fill-rule="evenodd" stroke="#5a86b5" stroke-width="1"/><path d="M 47.3,156.6 L 49.5,157.8 L 50.4,160.1 L 49.7,162.5 L 47.3,164.0 L 20.0,159.9 L 20.0,152.4 L 47.3,156.6 Z" fill="#6f9fcf" fill-rule="evenodd" stroke="#5a86b5" stroke-width="1"/><path d="M 31.3,304.3 L 32.2,308.6 L 28.7,310.7 L 22.5,307.0 L 21.3,304.1 L 22.5,301.5 L 25.2,300.5 L 31.3,304.3 Z" fill="#6f9fcf" fill-rule="evenodd" stroke="#5a86b5" stroke-width="1"/><path d="M 20.2,290.6 L 28.5,303.0 L 28.4,305.8 L 26.3,307.7 L 23.1,307.4 L 20.0,303.8 L 20.2,290.6 Z" fill="#6f9fcf" fill-rule="evenodd" stroke="#5a86b5" stroke-width="1"/><path d="M 298.5,232.5 L 228.5,224.6 L 204.7,219.0 L 188.3,212.2 L 151.3,189.6 L 136.1,182.5 L 117.6,176.4 L 97.5,171.7 L 45.8,163.9 L 43.5,162.2 L 43.1,159.4 L 44.5,157.3 L 47.3,156.6 L 98.8,164.4 L 119.5,169.2 L 143.6,177.5 L 158.3,185.1 L 182.5,200.7 L 207.0,212.0 L 229.7,217.3 L 299.0,225.2 L 301.9,228.5 L 301.1,231.2 L 298.5,232.5 Z" fill="#6f9fcf" fill-rule="evenodd" stroke="#5a86b5" stroke-width="1"/><path d="M 90.3,161.3 L 122.9,168.7 L 144.3,176.0 L 160.4,183.7 L 189.6,202.1 L 205.1,209.0 L 232.0,215.8 L 293.3,223.0 L 295.7,224.6 L 296.1,227.8 L 292.5,230.4 L 236.9,224.1 L 202.8,216.1 L 186.1,208.7 L 156.7,190.1 L 141.4,182.9 L 106.1,172.0 L 82.1,167.7 L 79.8,165.5 L 79.9,162.6 L 81.9,160.7 L 90.3,161.3 Z" fill="#6f9fcf" fill-rule="evenodd" stroke="#5a86b5" stroke-width="1"/><path d="M 20.4,277.9 L 23.3,277.2 L 26.1,279.0 L 28.5,277.6 L 30.1,273.3 L 31.7,272.5 L 37.0,273.1 L 37.1,279.1 L 35.5,281.1 L 31.9,280.6 L 28.8,282.4 L 29.0,290.2 L 31.2,293.3 L 35.2,295.4 L 34.0,302.1 L 25.3,293.0 L 24.5,288.8 L 21.4,284.8 L 22.4,282.0 L 20.2,280.1 L 20.4,277.9 Z" fill="#6f9fcf" fill-rule="evenodd" stroke="#5a86b5" stroke-width="1"/><path d="M 29.8,314.9 L 27.5,311.5 L 30.2,308.0 L 34.3,308.9 L 38.4,312.8 L 37.9,315.6 L 35.6,317.2 L 29.8,314.9 Z" fill="#6f9fcf" fill-rule="evenodd" stroke="#5a86b5" stroke-width="1"/><path d="M 36.4,309.2 L 38.3,312.2 L 38.3,314.7 L 36.5,316.9 L 33.7,317.1 L 29.2,311.8 L 28.8,308.9 L 32.4,306.2 L 36.4,309.2 Z" fill="#6f9fcf" fill-rule="evenodd" stroke="#5a86b5" stroke-width="1"/><path d="M 21.5,305.6 L 22.7,301.3 L 26.8,301.0 L 30.8,307.5 L 30.6,310.7 L 28.4,312.5 L 25.6,312.1 L 21.5,305.6 Z" fill="#6f9fcf" fill-rule="evenodd" stroke="#5a86b5" stroke-width="1"/><path d="M 287.6,521.6 L 259.0,512.9 L 260.9,479.7 L 265.9,466.8 L 299.6,483.6 L 312.6,488.7 L 300.9,523.0 L 287.6,521.6 Z" fill="#6f9fcf" fill-rule="evenodd" stroke="#5a86b5" stroke-width="1"/><path d="M 392.8,477.0 L 383.2,473.0 L 381.8,470.8 L 383.1,468.7 L 391.2,469.6 L 395.1,472.0 L 392.8,477.0 Z" fill="#6f9fcf" fill-rule="evenodd" stroke="#5a86b5" stroke-width="1"/><path d="M 97.0,231.8 L 89.1,231.6 L 88.7,230.6 L 91.7,227.9 L 100.7,225.5 L 101.8,229.0 L 97.0,231.8 Z" fill="#6f9fcf" fill-rule="evenodd" stroke="#5a86b5" stroke-width="1"/><path d="M 74.5,237.2 L 75.4,235.6 L 84.0,235.2 L 84.0,236.9 L 79.3,239.2 L 74.5,237.2 Z" fill="#6f9fcf" fill-rule="evenodd" stroke="#5a86b5" stroke-width="1"/><path d="M 61.1,247.5 L 63.6,243.7 L 64.6,239.4 L 67.8,239.1 L 68.4,239.9 L 65.5,243.2 L 66.1,246.3 L 63.0,246.8 L 62.7,250.0 L 61.1,250.1 L 61.1,247.5 Z" fill="#6f9fcf" fill-rule="evenodd" stroke="#5a86b5" stroke-width="1"/><path d="M 46.0,273.6 L 57.4,263.1 L 58.4,257.3 L 60.4,255.2 L 59.9,253.7 L 62.6,252.4 L 62.4,256.2 L 60.1,257.8 L 58.0,264.6 L 53.8,267.1 L 50.0,271.9 L 46.0,273.6 Z" fill="#6f9fcf" fill-rule="evenodd" stroke="#5a86b5" stroke-width="1"/><path d="M 476.6,266.1 L 474.5,271.4 L 462.0,269.2 L 462.8,263.1 L 476.6,266.1 Z" fill="#6f9fcf" fill-rule="evenodd" stroke="#5a86b5" stroke-width="1"/><path d="M 484.0,257.0 L 487.4,257.6 L 489.0,263.6 L 485.3,264.6 L 479.5,263.3 L 479.6,261.6 L 482.2,259.5 L 481.7,258.6 L 484.0,257.0 Z" fill="#6f9fcf" fill-rule="evenodd" stroke="#5a86b5" stroke-width="1"/><path d="M 402.5,204.6 L 391.5,194.0 L 391.1,191.2 L 392.8,188.9 L 397.0,189.2 L 408.6,200.2 L 425.3,231.8 L 425.5,234.3 L 424.0,236.4 L 421.2,236.9 L 418.8,235.3 L 402.5,204.6 Z" fill="#6f9fcf" fill-rule="evenodd" stroke="#5a86b5" stroke-width="1"/><path d="M 391.5,194.3 L 390.3,191.4 L 391.9,188.6 L 395.0,188.1 L 397.7,190.0 L 398.4,192.8 L 396.9,195.2 L 394.1,195.8 L 391.5,194.3 Z" fill="#6f9fcf" fill-rule="evenodd" stroke="#5a86b5" stroke-width="1"/><path d="M 383.7,187.3 L 381.1,180.1 L 382.6,177.6 L 385.3,176.9 L 387.5,178.0 L 389.6,182.7 L 397.0,189.4 L 397.4,193.2 L 395.3,195.1 L 392.4,195.0 L 383.7,187.3 Z" fill="#6f9fcf" fill-rule="evenodd" stroke="#5a86b5" stroke-width="1"/><path d="M 381.0,181.0 L 381.6,177.9 L 384.0,176.4 L 387.1,177.3 L 388.5,180.0 L 387.8,182.7 L 385.4,184.2 L 382.6,183.6 L 381.0,181.0 Z" fill="#6f9fcf" fill-rule="evenodd" stroke="#5a86b5" stroke-width="1"/><path d="M 320.9,163.3 L 321.6,160.5 L 323.9,159.0 L 326.4,159.4 L 328.2,161.6 L 335.3,201.8 L 334.7,204.2 L 332.6,205.7 L 329.8,205.4 L 328.1,203.1 L 320.9,163.3 Z" fill="#6f9fcf" fill-rule="evenodd" stroke="#5a86b5" stroke-width="1"/><path d="M 320.7,161.7 L 322.3,158.6 L 325.4,158.0 L 327.8,160.0 L 328.2,163.6 L 326.5,165.8 L 323.7,166.2 L 321.4,164.5 L 320.7,161.7 Z" fill="#6f9fcf" fill-rule="evenodd" stroke="#5a86b5" stroke-width="1"/><path d="M 84.2,325.1 L 84.9,323.7 L 91.7,321.0 L 96.0,322.2 L 98.1,321.5 L 99.5,322.7 L 99.4,324.1 L 92.7,327.9 L 84.2,325.1 Z" fill="#6f9fcf" fill-rule="evenodd" stroke="#5a86b5" stroke-width="1"/><path d="M 236.8,235.7 L 228.1,226.9 L 228.8,224.2 L 231.2,222.7 L 236.6,225.6 L 240.8,232.2 L 239.5,234.8 L 236.8,235.7 Z" fill="#6f9fcf" fill-rule="evenodd" stroke="#5a86b5" stroke-width="1"/><path d="M 283.4,231.5 L 281.2,230.2 L 280.3,227.9 L 281.1,225.5 L 283.2,224.2 L 298.8,225.1 L 301.9,228.0 L 301.4,230.8 L 299.1,232.4 L 283.4,231.5 Z" fill="#6f9fcf" fill-rule="evenodd" stroke="#5a86b5" stroke-width="1"/><path d="M 34.0,455.1 L 32.9,466.3 L 31.6,468.4 L 28.8,469.2 L 26.3,467.8 L 25.3,460.6 L 27.1,454.7 L 29.2,452.8 L 32.1,453.0 L 34.0,455.1 Z" fill="#6f9fcf" fill-rule="evenodd" stroke="#5a86b5" stroke-width="1"/><path d="M 38.1,447.2 L 35.4,448.8 L 32.1,447.6 L 31.3,444.5 L 33.2,441.1 L 35.9,440.2 L 38.4,441.5 L 39.3,444.2 L 38.1,447.2 Z" fill="#6f9fcf" fill-rule="evenodd" stroke="#5a86b5" stroke-width="1"/><path d="M 67.2,424.8 L 64.0,424.5 L 62.4,422.2 L 62.8,419.4 L 65.5,417.5 L 68.3,418.0 L 69.9,420.3 L 69.5,423.1 L 67.2,424.8 Z" fill="#6f9fcf" fill-rule="evenodd" stroke="#5a86b5" stroke-width="1"/><path d="M 113.6,395.8 L 85.3,415.6 L 67.8,424.6 L 65.0,424.6 L 62.9,422.7 L 62.7,420.2 L 64.2,418.1 L 81.3,409.3 L 109.2,389.9 L 113.6,390.5 L 114.6,393.1 L 113.6,395.8 Z" fill="#6f9fcf" fill-rule="evenodd" stroke="#5a86b5" stroke-width="1"/><path d="M 112.6,396.4 L 109.4,396.5 L 107.3,394.1 L 107.9,391.0 L 110.7,389.1 L 113.5,389.4 L 115.3,391.6 L 114.9,394.5 L 112.6,396.4 Z" fill="#6f9fcf" fill-rule="evenodd" stroke="#5a86b5" stroke-width="1"/><path d="M 113.6,395.8 L 109.2,395.4 L 108.2,391.4 L 114.3,386.1 L 117.4,385.7 L 119.5,387.6 L 119.7,390.4 L 113.6,395.8 Z" fill="#6f9fcf" fill-rule="evenodd" stroke="#5a86b5" stroke-width="1"/><path d="M 33.9,457.7 L 31.2,460.0 L 28.1,459.3 L 26.7,456.4 L 27.8,453.1 L 30.3,451.7 L 33.0,452.5 L 34.3,454.6 L 33.9,457.7 Z" fill="#6f9fcf" fill-rule="evenodd" stroke="#5a86b5" stroke-width="1"/><path d="M 38.7,445.1 L 32.4,458.7 L 29.5,458.9 L 27.4,457.1 L 27.1,454.6 L 30.4,445.0 L 32.6,442.3 L 34.9,441.4 L 37.6,442.5 L 38.7,445.1 Z" fill="#6f9fcf" fill-rule="evenodd" stroke="#5a86b5" stroke-width="1"/><path d="M 327.9,202.3 L 329.1,199.4 L 332.2,198.4 L 334.8,200.2 L 335.5,203.5 L 334.0,205.9 L 331.2,206.6 L 328.8,205.2 L 327.9,202.3 Z" fill="#6f9fcf" fill-rule="evenodd" stroke="#5a86b5" stroke-width="1"/><path d="M 28.2,305.3 L 34.7,310.1 L 33.9,314.1 L 29.7,315.6 L 25.4,313.7 L 23.7,310.0 L 24.8,306.2 L 28.2,305.3 Z" fill="#6f9fcf" fill-rule="evenodd" stroke="#5a86b5" stroke-width="1"/><path d="M 29.0,303.1 L 32.9,303.8 L 35.6,306.7 L 36.0,311.0 L 33.9,313.4 L 30.7,313.3 L 25.5,308.7 L 25.8,304.9 L 29.0,303.1 Z" fill="#6f9fcf" fill-rule="evenodd" stroke="#5a86b5" stroke-width="1"/><path d="M 24.2,306.9 L 25.8,304.6 L 28.8,303.3 L 31.5,304.4 L 32.5,307.0 L 30.1,311.4 L 27.2,312.6 L 24.0,310.5 L 24.2,306.9 Z" fill="#6f9fcf" fill-rule="evenodd" stroke="#5a86b5" stroke-width="1"/><path d="M 27.5,311.5 L 31.6,306.3 L 35.0,307.3 L 36.1,310.3 L 34.5,313.6 L 31.9,315.2 L 28.8,314.4 L 27.5,311.5 Z" fill="#6f9fcf" fill-rule="evenodd" stroke="#5a86b5" stroke-width="1"/><path d="M 115.3,354.8 L 122.8,354.0 L 125.1,357.1 L 123.8,361.3 L 120.1,363.3 L 115.7,361.9 L 113.8,357.9 L 115.3,354.8 Z" fill="#6f9fcf" fill-rule="evenodd" stroke="#5a86b5" stroke-width="1"/><path d="M 116.7,352.7 L 120.2,352.1 L 123.0,353.3 L 124.2,355.8 L 123.3,358.5 L 118.1,360.0 L 115.5,359.0 L 114.4,355.7 L 116.7,352.7 Z" fill="#6f9fcf" fill-rule="evenodd" stroke="#5a86b5" stroke-width="1"/><path d="M 113.9,356.6 L 115.3,353.8 L 117.9,352.6 L 120.5,353.6 L 121.7,356.2 L 120.4,360.1 L 117.5,361.5 L 114.4,359.9 L 113.9,356.6 Z" fill="#6f9fcf" fill-rule="evenodd" stroke="#5a86b5" stroke-width="1"/><path d="M 119.9,360.8 L 116.9,355.5 L 118.9,352.7 L 122.1,352.7 L 124.6,355.2 L 124.9,358.5 L 123.1,360.7 L 119.9,360.8 Z" fill="#6f9fcf" fill-rule="evenodd" stroke="#5a86b5" stroke-width="1"/><path d="M 45.6,156.8 L 84.1,160.5 L 86.4,162.2 L 86.9,165.0 L 85.5,167.1 L 82.8,167.8 L 46.0,163.9 L 43.2,161.4 L 43.4,158.6 L 45.6,156.8 Z" fill="#6f9fcf" fill-rule="evenodd" stroke="#5a86b5" stroke-width="1"/><path d="M 220.2,143.4 L 217.4,142.1 L 216.5,139.0 L 213.0,141.0 L 211.2,139.8 L 210.2,132.8 L 211.7,128.7 L 214.1,128.4 L 223.3,132.6 L 218.3,136.6 L 219.5,137.8 L 221.9,136.2 L 223.1,136.8 L 222.3,141.7 L 220.2,143.4 Z" fill="#6f9fcf" fill-rule="evenodd" stroke="#5a86b5" stroke-width="1"/><path d="M 203.4,131.6 L 200.8,128.2 L 201.3,125.7 L 208.1,127.1 L 207.3,131.6 L 203.4,131.6 Z" fill="#6f9fcf" fill-rule="evenodd" stroke="#5a86b5" stroke-width="1"/><path d="M 208.3,140.7 L 203.9,141.6 L 203.0,140.7 L 202.8,138.8 L 205.2,134.2 L 208.3,135.0 L 208.3,140.7 Z" fill="#6f9fcf" fill-rule="evenodd" stroke="#5a86b5" stroke-width="1"/><path d="M 203.6,118.7 L 203.3,116.9 L 204.7,115.4 L 221.0,118.2 L 229.2,112.1 L 231.2,112.0 L 232.4,113.6 L 231.9,115.4 L 222.6,122.7 L 203.6,118.7 Z" fill="#6f9fcf" fill-rule="evenodd" stroke="#5a86b5" stroke-width="1"/><path d="M 137.2,481.5 L 140.9,476.4 L 144.6,480.9 L 144.7,478.7 L 141.8,473.3 L 146.8,469.8 L 143.2,474.4 L 149.1,471.4 L 151.1,478.7 L 150.4,486.4 L 139.8,485.1 L 137.2,481.5 Z" fill="#6f9fcf" fill-rule="evenodd" stroke="#5a86b5" stroke-width="1"/></svg>