<?xml version="1.0" encoding="UTF-8"?><svg xmlns="http://www.w3.org/2000/svg" viewBox="0 0 574 464" font-family="Arial, sans-serif"><rect width="574" height="464" fill="white"/><text x="34" y="44" fill="#D32333" font-weight="800" font-size="22">Green space</text><rect x="34.0" y="64.0" width="506.0" height="368.0" rx="14" fill="#eef1ee"/><path d="M 284.3,188.2 L 282.3,202.7 L 273.1,215.2 L 261.4,225.0 L 250.9,233.4 L 242.6,241.9 L 234.9,250.6 L 225.5,257.4 L 213.9,260.3 L 201.8,259.1 L 190.9,256.8 L 181.3,257.5 L 171.5,263.4 L 159.0,272.8 L 143.6,280.9 L 127.6,282.7 L 114.5,276.2 L 106.5,263.3 L 102.9,248.1 L 101.1,234.1 L 98.3,222.2 L 94.5,211.2 L 92.2,199.8 L 93.9,188.2 L 100.0,177.7 L 107.8,168.9 L 113.4,160.7 L 114.5,150.4 L 112.7,136.2 L 112.0,119.1 L 116.4,102.9 L 126.9,92.2 L 141.5,89.3 L 156.7,92.6 L 170.4,98.2 L 182.5,102.4 L 193.9,104.9 L 205.2,107.8 L 215.2,113.7 L 222.4,123.4 L 226.6,134.7 L 230.3,144.5 L 237.0,151.5 L 248.7,156.9 L 263.8,163.8 L 277.4,174.3 Z" fill="#3f8f47" stroke="#2f7d33" stroke-width="2"/><path d="M 522.6,340.0 L 521.6,353.3 L 520.1,366.6 L 514.9,379.1 L 505.4,388.9 L 494.2,396.3 L 484.8,404.0 L 478.4,415.7 L 472.9,432.5 L 464.6,451.5 L 451.3,466.7 L 434.1,472.3 L 416.3,466.9 L 401.3,453.8 L 389.7,439.3 L 379.6,427.6 L 369.0,419.4 L 357.8,411.9 L 348.5,402.3 L 343.2,389.7 L 341.8,376.2 L 340.7,363.6 L 335.7,352.3 L 325.3,340.0 L 312.4,324.5 L 303.2,305.9 L 303.4,287.2 L 314.1,272.5 L 331.8,264.2 L 350.8,260.6 L 367.2,258.1 L 380.3,253.7 L 392.2,247.7 L 404.9,243.2 L 418.4,243.2 L 431.3,247.8 L 442.9,253.7 L 454.6,256.6 L 469.1,254.9 L 487.8,251.1 L 508.7,250.3 L 527.0,257.0 L 537.5,271.6 L 538.6,290.6 L 533.2,309.7 L 526.6,326.0 Z" fill="#3f8f47" stroke="#2f7d33" stroke-width="2"/><path d="M 322.1,363.0 L 319.5,371.3 L 316.9,379.1 L 316.4,387.8 L 318.1,398.7 L 319.4,411.8 L 317.1,424.8 L 309.5,434.0 L 297.8,437.1 L 284.8,434.5 L 273.2,429.2 L 263.6,424.8 L 255.3,423.3 L 246.9,423.4 L 238.2,422.6 L 230.3,419.1 L 224.0,413.1 L 218.6,406.6 L 212.2,401.4 L 202.9,397.4 L 191.1,392.6 L 180.0,385.3 L 173.4,374.8 L 174.2,363.0 L 181.5,352.3 L 191.8,344.1 L 201.2,337.7 L 207.7,331.6 L 212.0,324.5 L 216.5,317.1 L 222.8,311.2 L 230.8,307.9 L 239.3,306.4 L 247.2,304.2 L 255.0,299.2 L 264.3,291.7 L 275.7,284.6 L 288.2,282.0 L 299.1,286.3 L 306.2,296.6 L 309.2,309.7 L 310.1,321.8 L 311.5,331.3 L 315.0,338.9 L 319.4,346.2 L 322.3,354.4 Z" fill="#3f8f47" stroke="#2f7d33" stroke-width="2"/></svg>