<?xml version="1.0" encoding="UTF-8"?><svg xmlns="http://www.w3.org/2000/svg" viewBox="0 0 560 600" font-family="Arial, sans-serif"><rect width="560" height="600" fill="white"/><text x="20" y="38" fill="#D32333" font-weight="800" font-size="22">Urban centres</text><rect x="20.0" y="56.0" width="520.0" height="520.0" rx="10" fill="#eef1ee"/><path d="M 401.2,495.3 L 391.3,492.4 L 391.9,486.6 L 397.9,490.4 L 402.2,491.6 L 401.2,495.3 Z" fill="#962858" fill-rule="evenodd" stroke="#6e1d40" stroke-width="1"/><path d="M 433.3,469.8 L 433.0,467.8 L 434.7,467.3 L 434.0,463.1 L 445.1,461.4 L 444.8,467.8 L 433.3,469.8 Z" fill="#962858" fill-rule="evenodd" stroke="#6e1d40" stroke-width="1"/><path d="M 452.5,390.3 L 449.9,385.7 L 458.1,380.8 L 461.0,385.6 L 452.5,390.3 Z" fill="#962858" fill-rule="evenodd" stroke="#6e1d40" stroke-width="1"/><path d="M 294.8,295.2 L 296.3,302.9 L 295.2,304.4 L 290.6,305.3 L 289.8,301.6 L 276.7,303.9 L 277.7,309.3 L 274.8,310.8 L 266.1,312.0 L 265.0,311.0 L 254.7,314.7 L 254.1,311.8 L 255.9,311.4 L 256.6,306.9 L 261.7,304.2 L 258.4,297.4 L 267.9,292.7 L 272.5,285.1 L 279.9,285.1 L 282.4,286.8 L 282.4,289.6 L 283.9,289.9 L 286.3,284.1 L 289.1,284.2 L 295.9,287.6 L 294.8,295.2 Z" fill="#962858" fill-rule="evenodd" stroke="#6e1d40" stroke-width="1"/><path d="M 219.3,272.1 L 207.3,270.9 L 206.7,267.9 L 195.8,263.7 L 183.5,255.1 L 187.0,250.5 L 183.3,247.6 L 184.1,246.0 L 181.0,243.7 L 188.4,233.6 L 200.2,242.1 L 208.1,231.6 L 205.5,229.9 L 207.7,224.6 L 221.5,230.1 L 232.7,236.0 L 233.7,245.9 L 243.9,263.9 L 242.7,279.3 L 241.1,281.1 L 233.2,283.0 L 229.6,285.4 L 225.1,291.0 L 220.9,293.4 L 218.7,292.6 L 219.3,272.1 Z" fill="#962858" fill-rule="evenodd" stroke="#6e1d40" stroke-width="1"/><path d="M 383.3,559.4 L 379.3,553.9 L 397.3,551.5 L 396.4,552.6 L 397.0,555.2 L 392.8,555.9 L 393.1,558.4 L 383.3,559.4 Z" fill="#962858" fill-rule="evenodd" stroke="#6e1d40" stroke-width="1"/><path d="M 147.2,328.4 L 154.6,328.2 L 154.2,331.4 L 150.2,333.8 L 147.2,328.4 Z" fill="#962858" fill-rule="evenodd" stroke="#6e1d40" stroke-width="1"/></svg>