<?xml version="1.0" encoding="UTF-8"?><svg xmlns="http://www.w3.org/2000/svg" viewBox="0 0 560 600" font-family="Arial, sans-serif"><rect width="560" height="600" fill="white"/><text x="20" y="38" fill="#D32333" font-weight="800" font-size="22">Industrial land</text><rect x="20.0" y="56.0" width="520.0" height="520.0" rx="10" fill="#eef1ee"/><path d="M 397.3,561.0 L 402.1,551.7 L 409.2,552.2 L 401.6,563.2 L 397.3,561.0 Z" fill="#7b6d8f" fill-rule="evenodd" stroke="#645a78" stroke-width="1"/><path d="M 409.2,473.9 L 408.5,472.7 L 412.4,461.1 L 426.9,459.4 L 429.4,470.4 L 409.2,473.9 Z" fill="#7b6d8f" fill-rule="evenodd" stroke="#645a78" stroke-width="1"/><path d="M 41.2,375.7 L 39.0,369.0 L 39.5,367.4 L 37.4,365.6 L 51.4,363.9 L 51.7,372.4 L 41.2,375.7 Z" fill="#7b6d8f" fill-rule="evenodd" stroke="#645a78" stroke-width="1"/><path d="M 287.6,521.6 L 259.0,512.9 L 260.9,479.7 L 265.9,466.8 L 299.6,483.6 L 312.6,488.7 L 300.9,523.0 L 287.6,521.6 Z" fill="#7b6d8f" fill-rule="evenodd" stroke="#645a78" stroke-width="1"/><path d="M 392.8,477.0 L 383.2,473.0 L 381.8,470.8 L 383.1,468.7 L 391.2,469.6 L 395.1,472.0 L 392.8,477.0 Z" fill="#7b6d8f" fill-rule="evenodd" stroke="#645a78" stroke-width="1"/><path d="M 476.6,266.1 L 474.5,271.4 L 462.0,269.2 L 462.8,263.1 L 476.6,266.1 Z" fill="#7b6d8f" fill-rule="evenodd" stroke="#645a78" stroke-width="1"/><path d="M 484.0,257.0 L 487.4,257.6 L 489.0,263.6 L 485.3,264.6 L 479.5,263.3 L 479.6,261.6 L 482.2,259.5 L 481.7,258.6 L 484.0,257.0 Z" fill="#7b6d8f" fill-rule="evenodd" stroke="#645a78" stroke-width="1"/></svg>