<?xml version="1.0" encoding="UTF-8"?><svg xmlns="http://www.w3.org/2000/svg" viewBox="0 0 574 464" font-family="Arial, sans-serif"><rect width="574" height="464" fill="white"/><text x="34" y="44" fill="#D32333" font-weight="800" font-size="22">Urban centres</text><rect x="34.0" y="64.0" width="506.0" height="368.0" rx="14" fill="#eef1ee"/><path d="M 268.2,225.0 L 271.0,232.3 L 269.3,239.4 L 264.2,245.1 L 257.9,249.3 L 252.2,252.8 L 247.4,256.5 L 242.9,260.3 L 237.7,263.0 L 231.7,263.6 L 225.7,262.0 L 220.4,259.8 L 215.7,259.2 L 210.5,261.2 L 203.8,265.0 L 195.7,268.0 L 187.6,268.1 L 181.3,264.3 L 178.0,257.5 L 177.1,249.9 L 177.0,242.8 L 176.4,236.7 L 175.3,230.9 L 174.9,225.0 L 176.6,219.3 L 180.5,214.5 L 185.2,210.8 L 188.8,207.3 L 190.3,202.5 L 190.4,195.5 L 191.2,187.0 L 194.2,179.1 L 200.0,174.3 L 207.3,173.6 L 214.6,176.0 L 221.1,179.5 L 226.9,182.4 L 232.4,184.4 L 237.9,186.6 L 242.4,190.4 L 245.3,195.8 L 246.5,201.8 L 247.4,207.1 L 249.9,211.1 L 255.1,214.6 L 262.1,218.9 Z" fill="#d94652" stroke="#a82d38" stroke-width="2"/><path d="M 443.6,317.0 L 439.7,322.2 L 436.3,326.6 L 434.0,330.9 L 432.0,335.2 L 429.1,339.1 L 425.0,341.6 L 420.2,342.8 L 415.7,343.5 L 412.1,345.3 L 408.7,349.2 L 404.6,354.6 L 399.1,359.5 L 392.7,361.6 L 386.8,359.8 L 382.3,355.0 L 379.4,349.0 L 377.2,343.5 L 374.9,339.1 L 372.1,335.2 L 369.8,331.0 L 369.0,326.2 L 370.0,321.4 L 371.7,317.0 L 372.6,313.0 L 371.5,308.5 L 369.0,302.7 L 366.9,295.7 L 367.2,288.7 L 370.7,283.5 L 376.7,281.1 L 383.4,281.1 L 389.6,282.1 L 394.8,282.5 L 399.6,282.2 L 404.4,281.9 L 409.1,283.0 L 413.1,285.9 L 416.2,289.6 L 419.1,292.8 L 423.0,294.5 L 428.7,295.3 L 435.7,296.5 L 442.2,299.5 L 446.1,304.6 L 446.4,310.9 Z" fill="#d94652" stroke="#a82d38" stroke-width="2"/></svg>