<?xml version="1.0" encoding="UTF-8"?><svg xmlns="http://www.w3.org/2000/svg" viewBox="0 0 574 464" font-family="Arial, sans-serif"><rect width="574" height="464" fill="white"/><text x="34" y="44" fill="#D32333" font-weight="800" font-size="22">Existing built</text><rect x="34.0" y="64.0" width="506.0" height="368.0" rx="14" fill="#eef1ee"/><path d="M 365.0,271.0 L 373.7,289.2 L 371.3,307.5 L 359.5,322.5 L 343.4,333.3 L 328.2,342.0 L 315.6,350.9 L 304.1,360.3 L 291.1,367.7 L 276.1,369.9 L 260.8,366.2 L 247.1,360.1 L 235.1,357.0 L 222.5,360.2 L 206.3,368.7 L 186.2,376.9 L 165.2,378.4 L 148.3,370.3 L 138.7,354.2 L 135.9,334.9 L 136.0,316.6 L 135.2,300.7 L 132.8,285.9 L 131.7,271.0 L 135.3,256.5 L 144.7,244.0 L 156.9,234.5 L 167.2,226.1 L 172.4,215.1 L 173.5,198.7 L 175.2,177.8 L 182.1,157.3 L 195.7,143.5 L 213.8,139.9 L 232.4,145.1 L 249.0,154.2 L 263.6,162.4 L 277.6,168.2 L 291.4,173.8 L 303.3,182.7 L 311.1,196.0 L 314.2,211.4 L 315.8,225.5 L 320.6,236.4 L 332.1,245.5 L 348.8,256.2 Z" fill="#7a7a7a" stroke="#555555" stroke-width="2"/><path d="M 499.0,294.0 L 489.9,306.1 L 482.7,316.6 L 477.8,326.9 L 473.1,337.3 L 466.0,346.1 L 456.0,351.8 L 444.6,354.4 L 434.5,356.7 L 426.3,362.3 L 418.4,372.8 L 408.3,386.1 L 395.0,397.0 L 379.9,400.5 L 366.1,394.9 L 356.0,382.7 L 349.4,368.5 L 344.0,356.1 L 337.9,346.2 L 331.0,337.2 L 325.8,327.1 L 324.5,315.7 L 327.1,304.3 L 330.7,294.0 L 331.5,284.3 L 327.7,273.2 L 321.1,258.9 L 316.6,242.1 L 318.5,226.0 L 328.0,214.8 L 342.8,210.1 L 358.8,210.5 L 373.0,212.4 L 385.1,212.7 L 396.3,211.4 L 407.7,210.9 L 418.6,214.0 L 427.9,221.1 L 435.3,229.7 L 442.7,236.4 L 452.9,239.5 L 467.3,240.9 L 484.3,244.0 L 499.1,251.8 L 507.0,264.6 L 506.2,279.7 Z" fill="#7a7a7a" stroke="#555555" stroke-width="2"/><path d="M 373.2,363.0 L 373.2,371.7 L 370.2,379.9 L 364.9,386.8 L 359.7,393.2 L 356.6,400.9 L 355.3,411.5 L 353.4,424.5 L 348.3,436.9 L 339.1,444.8 L 327.2,445.7 L 315.3,440.5 L 305.2,432.6 L 297.0,425.7 L 289.2,421.4 L 281.1,418.7 L 273.2,415.1 L 266.9,409.2 L 262.9,401.3 L 260.1,393.4 L 255.9,386.5 L 248.5,380.2 L 238.4,372.8 L 229.1,363.0 L 224.6,351.3 L 227.3,339.8 L 236.4,331.0 L 248.3,325.5 L 259.2,321.6 L 267.5,317.5 L 274.1,312.1 L 280.8,306.6 L 288.7,303.0 L 297.5,302.6 L 306.0,304.1 L 314.0,304.8 L 322.6,302.6 L 333.2,297.8 L 346.0,293.5 L 359.0,293.5 L 369.1,299.7 L 374.0,310.9 L 374.0,324.1 L 371.9,336.1 L 370.6,346.0 L 371.5,354.5 Z" fill="#7a7a7a" stroke="#555555" stroke-width="2"/></svg>