<?xml version="1.0" encoding="UTF-8"?><svg xmlns="http://www.w3.org/2000/svg" viewBox="0 0 560 600" font-family="Arial, sans-serif"><rect width="560" height="600" fill="white"/><text x="20" y="38" fill="#D32333" font-weight="800" font-size="22">Existing built fabric</text><rect x="20.0" y="56.0" width="520.0" height="520.0" rx="10" fill="#eef1ee"/><path d="M 401.2,495.3 L 391.3,492.4 L 391.9,486.6 L 397.9,490.4 L 402.2,491.6 L 401.2,495.3 Z" fill="#7d6240" fill-rule="evenodd" stroke="#5e4a30" stroke-width="1"/><path d="M 433.3,469.8 L 433.0,467.8 L 434.7,467.3 L 434.0,463.1 L 445.1,461.4 L 444.8,467.8 L 433.3,469.8 Z" fill="#7d6240" fill-rule="evenodd" stroke="#5e4a30" stroke-width="1"/><path d="M 273.1,312.6 L 275.1,314.0 L 275.4,318.7 L 265.0,319.7 L 263.9,314.4 L 273.1,312.6 Z" fill="#7d6240" fill-rule="evenodd" stroke="#5e4a30" stroke-width="1"/><path d="M 290.0,260.7 L 290.8,257.6 L 290.0,254.8 L 291.3,251.2 L 293.4,251.9 L 295.1,251.1 L 295.6,248.6 L 314.0,254.9 L 312.2,259.2 L 302.9,257.9 L 302.3,262.4 L 300.6,261.8 L 300.4,265.3 L 290.9,262.2 L 290.0,260.7 Z" fill="#7d6240" fill-rule="evenodd" stroke="#5e4a30" stroke-width="1"/><path d="M 222.6,333.6 L 220.9,333.0 L 220.8,330.4 L 224.4,330.6 L 226.3,328.9 L 233.3,330.0 L 233.4,332.2 L 228.8,331.3 L 228.5,332.3 L 222.6,333.6 Z" fill="#7d6240" fill-rule="evenodd" stroke="#5e4a30" stroke-width="1"/><path d="M 415.2,449.4 L 411.0,460.8 L 405.2,457.5 L 409.7,446.0 L 415.2,449.4 Z" fill="#7d6240" fill-rule="evenodd" stroke="#5e4a30" stroke-width="1"/><path d="M 399.9,479.4 L 404.9,481.0 L 402.5,490.6 L 396.4,487.8 L 399.9,479.4 Z" fill="#7d6240" fill-rule="evenodd" stroke="#5e4a30" stroke-width="1"/><path d="M 127.9,509.3 L 131.7,487.9 L 138.5,489.1 L 134.8,510.5 L 127.9,509.3 Z" fill="#7d6240" fill-rule="evenodd" stroke="#5e4a30" stroke-width="1"/><path d="M 115.0,493.7 L 119.1,479.7 L 121.4,479.9 L 120.3,485.2 L 123.8,486.1 L 124.7,490.0 L 129.1,492.1 L 127.9,498.2 L 115.0,493.7 Z" fill="#7d6240" fill-rule="evenodd" stroke="#5e4a30" stroke-width="1"/><path d="M 226.2,547.6 L 224.5,552.0 L 213.6,549.2 L 216.5,542.7 L 226.2,547.6 Z" fill="#7d6240" fill-rule="evenodd" stroke="#5e4a30" stroke-width="1"/><path d="M 288.9,562.0 L 291.7,557.3 L 300.9,560.4 L 298.3,568.2 L 295.7,570.7 L 292.3,569.4 L 289.1,563.9 L 288.9,562.0 Z" fill="#7d6240" fill-rule="evenodd" stroke="#5e4a30" stroke-width="1"/><path d="M 402.3,544.7 L 406.1,545.2 L 405.7,541.9 L 410.2,541.0 L 410.7,544.9 L 418.1,544.2 L 418.0,542.8 L 422.0,542.0 L 422.7,547.9 L 412.9,551.1 L 401.2,549.9 L 402.3,544.7 Z" fill="#7d6240" fill-rule="evenodd" stroke="#5e4a30" stroke-width="1"/><path d="M 374.7,532.1 L 375.7,528.3 L 377.2,529.8 L 381.5,530.4 L 382.4,528.2 L 378.8,525.8 L 377.3,523.0 L 378.9,519.8 L 390.9,525.3 L 385.5,536.7 L 374.7,532.1 Z" fill="#7d6240" fill-rule="evenodd" stroke="#5e4a30" stroke-width="1"/><path d="M 351.1,226.9 L 350.2,233.3 L 343.7,231.7 L 344.3,230.2 L 351.1,226.9 Z" fill="#7d6240" fill-rule="evenodd" stroke="#5e4a30" stroke-width="1"/><path d="M 459.4,75.0 L 461.6,72.3 L 466.1,72.3 L 470.7,74.9 L 480.8,74.3 L 482.1,76.1 L 465.2,88.3 L 459.4,75.0 Z" fill="#7d6240" fill-rule="evenodd" stroke="#5e4a30" stroke-width="1"/><path d="M 81.8,101.9 L 90.1,102.8 L 89.2,108.2 L 80.8,105.7 L 81.8,101.9 Z" fill="#7d6240" fill-rule="evenodd" stroke="#5e4a30" stroke-width="1"/><path d="M 452.5,390.3 L 449.9,385.7 L 458.1,380.8 L 461.0,385.6 L 452.5,390.3 Z" fill="#7d6240" fill-rule="evenodd" stroke="#5e4a30" stroke-width="1"/><path d="M 294.8,295.2 L 296.3,302.9 L 295.2,304.4 L 290.6,305.3 L 289.8,301.6 L 276.7,303.9 L 277.7,309.3 L 274.8,310.8 L 266.1,312.0 L 265.0,311.0 L 254.7,314.7 L 254.1,311.8 L 255.9,311.4 L 256.6,306.9 L 261.7,304.2 L 258.4,297.4 L 267.9,292.7 L 272.5,285.1 L 279.9,285.1 L 282.4,286.8 L 282.4,289.6 L 283.9,289.9 L 286.3,284.1 L 289.1,284.2 L 295.9,287.6 L 294.8,295.2 Z" fill="#7d6240" fill-rule="evenodd" stroke="#5e4a30" stroke-width="1"/><path d="M 253.5,312.2 L 251.3,304.9 L 245.1,293.7 L 248.7,291.7 L 249.8,293.7 L 253.3,291.8 L 260.4,304.9 L 256.6,306.9 L 255.9,311.4 L 253.5,312.2 Z" fill="#7d6240" fill-rule="evenodd" stroke="#5e4a30" stroke-width="1"/><path d="M 219.3,272.1 L 207.3,270.9 L 206.7,267.9 L 195.8,263.7 L 183.5,255.1 L 187.0,250.5 L 183.3,247.6 L 184.1,246.0 L 181.0,243.7 L 188.4,233.6 L 200.2,242.1 L 208.1,231.6 L 205.5,229.9 L 207.7,224.6 L 221.5,230.1 L 232.7,236.0 L 233.7,245.9 L 243.9,263.9 L 242.7,279.3 L 241.1,281.1 L 233.2,283.0 L 229.6,285.4 L 225.1,291.0 L 220.9,293.4 L 218.7,292.6 L 219.3,272.1 Z" fill="#7d6240" fill-rule="evenodd" stroke="#5e4a30" stroke-width="1"/><path d="M 355.8,566.7 L 361.1,567.9 L 359.0,573.8 L 353.8,571.2 L 355.8,566.7 Z" fill="#7d6240" fill-rule="evenodd" stroke="#5e4a30" stroke-width="1"/><path d="M 265.0,564.3 L 269.1,567.5 L 267.5,570.8 L 255.7,562.4 L 256.3,561.2 L 265.0,564.3 Z" fill="#7d6240" fill-rule="evenodd" stroke="#5e4a30" stroke-width="1"/><path d="M 66.3,480.9 L 64.3,486.0 L 57.5,486.8 L 58.6,482.0 L 61.0,480.3 L 63.7,474.3 L 58.0,461.1 L 59.7,460.2 L 59.1,458.3 L 63.6,455.4 L 67.9,467.3 L 64.7,468.8 L 65.7,471.6 L 64.7,472.2 L 66.9,476.7 L 64.5,479.9 L 66.3,480.9 Z" fill="#7d6240" fill-rule="evenodd" stroke="#5e4a30" stroke-width="1"/><path d="M 83.0,527.5 L 78.2,524.2 L 74.3,516.3 L 79.5,510.4 L 85.4,525.6 L 83.0,527.5 Z" fill="#7d6240" fill-rule="evenodd" stroke="#5e4a30" stroke-width="1"/><path d="M 424.1,329.0 L 421.0,319.4 L 427.4,317.8 L 429.1,325.9 L 424.1,329.0 Z" fill="#7d6240" fill-rule="evenodd" stroke="#5e4a30" stroke-width="1"/><path d="M 419.7,322.1 L 423.0,329.9 L 416.0,331.7 L 414.9,323.8 L 419.7,322.1 Z" fill="#7d6240" fill-rule="evenodd" stroke="#5e4a30" stroke-width="1"/><path d="M 411.7,331.4 L 409.1,332.4 L 408.3,324.7 L 413.3,323.8 L 415.0,331.3 L 411.8,332.4 L 411.7,331.4 Z" fill="#7d6240" fill-rule="evenodd" stroke="#5e4a30" stroke-width="1"/><path d="M 414.7,322.4 L 408.4,323.2 L 407.1,317.3 L 414.2,316.1 L 414.7,322.4 Z" fill="#7d6240" fill-rule="evenodd" stroke="#5e4a30" stroke-width="1"/><path d="M 426.6,316.2 L 421.3,317.8 L 419.8,311.7 L 424.8,310.2 L 426.6,316.2 Z" fill="#7d6240" fill-rule="evenodd" stroke="#5e4a30" stroke-width="1"/><path d="M 430.4,324.9 L 428.1,316.2 L 435.4,316.1 L 435.8,318.1 L 430.4,324.9 Z" fill="#7d6240" fill-rule="evenodd" stroke="#5e4a30" stroke-width="1"/><path d="M 434.1,309.8 L 442.8,310.8 L 439.4,315.3 L 438.8,314.6 L 436.8,316.3 L 433.4,315.1 L 434.1,309.8 Z" fill="#7d6240" fill-rule="evenodd" stroke="#5e4a30" stroke-width="1"/><path d="M 422.9,303.8 L 415.9,302.1 L 416.4,297.7 L 423.7,299.1 L 422.9,303.8 Z" fill="#7d6240" fill-rule="evenodd" stroke="#5e4a30" stroke-width="1"/><path d="M 431.8,290.1 L 432.9,284.3 L 442.2,285.1 L 441.6,289.5 L 439.3,289.1 L 436.3,291.1 L 431.8,290.1 Z" fill="#7d6240" fill-rule="evenodd" stroke="#5e4a30" stroke-width="1"/><path d="M 406.7,302.8 L 408.2,296.1 L 414.4,297.3 L 414.2,301.8 L 406.7,302.8 Z" fill="#7d6240" fill-rule="evenodd" stroke="#5e4a30" stroke-width="1"/><path d="M 410.6,286.0 L 415.1,286.3 L 414.9,288.6 L 418.2,289.4 L 417.6,291.9 L 412.4,290.0 L 412.2,291.2 L 417.4,292.8 L 414.9,296.2 L 409.4,295.2 L 410.6,286.0 Z" fill="#7d6240" fill-rule="evenodd" stroke="#5e4a30" stroke-width="1"/><path d="M 436.9,292.0 L 440.0,289.7 L 442.8,290.4 L 441.8,295.3 L 438.5,297.8 L 431.4,295.9 L 431.3,294.0 L 434.1,294.5 L 435.1,291.8 L 436.9,292.0 Z" fill="#7d6240" fill-rule="evenodd" stroke="#5e4a30" stroke-width="1"/><path d="M 430.6,301.6 L 431.7,299.1 L 430.0,299.3 L 430.3,297.0 L 436.7,298.1 L 438.7,301.3 L 438.4,303.0 L 430.6,301.6 Z" fill="#7d6240" fill-rule="evenodd" stroke="#5e4a30" stroke-width="1"/><path d="M 444.4,290.3 L 446.8,290.6 L 445.9,300.0 L 441.0,297.4 L 443.1,295.7 L 444.4,290.3 Z" fill="#7d6240" fill-rule="evenodd" stroke="#5e4a30" stroke-width="1"/><path d="M 443.9,307.8 L 442.2,307.5 L 442.4,306.1 L 439.7,305.7 L 439.8,300.6 L 445.7,300.8 L 443.9,307.8 Z" fill="#7d6240" fill-rule="evenodd" stroke="#5e4a30" stroke-width="1"/><path d="M 410.0,275.5 L 408.2,283.6 L 402.1,282.2 L 403.7,275.2 L 410.0,275.5 Z" fill="#7d6240" fill-rule="evenodd" stroke="#5e4a30" stroke-width="1"/><path d="M 408.9,272.8 L 408.1,274.6 L 403.5,274.2 L 395.2,270.1 L 396.6,267.1 L 408.9,272.8 Z" fill="#7d6240" fill-rule="evenodd" stroke="#5e4a30" stroke-width="1"/><path d="M 386.2,271.3 L 380.9,273.5 L 378.0,274.7 L 378.0,271.6 L 380.8,268.7 L 386.9,268.2 L 386.2,271.3 Z" fill="#7d6240" fill-rule="evenodd" stroke="#5e4a30" stroke-width="1"/><path d="M 384.7,279.6 L 394.0,274.0 L 398.5,275.6 L 390.6,278.4 L 391.1,282.8 L 384.1,285.6 L 382.8,283.4 L 385.7,281.9 L 384.7,279.6 Z" fill="#7d6240" fill-rule="evenodd" stroke="#5e4a30" stroke-width="1"/><path d="M 401.2,282.3 L 395.1,281.8 L 391.6,282.7 L 390.8,279.9 L 393.5,277.8 L 397.0,278.1 L 399.0,276.8 L 402.1,277.5 L 401.2,282.3 Z" fill="#7d6240" fill-rule="evenodd" stroke="#5e4a30" stroke-width="1"/><path d="M 404.6,299.2 L 403.7,303.3 L 396.5,302.5 L 397.3,297.9 L 404.6,299.2 Z" fill="#7d6240" fill-rule="evenodd" stroke="#5e4a30" stroke-width="1"/><path d="M 404.8,298.3 L 397.7,296.9 L 399.6,290.0 L 406.2,291.4 L 404.8,298.3 Z" fill="#7d6240" fill-rule="evenodd" stroke="#5e4a30" stroke-width="1"/><path d="M 395.5,283.6 L 405.7,285.2 L 407.0,287.5 L 406.4,290.6 L 396.3,288.3 L 395.5,283.6 Z" fill="#7d6240" fill-rule="evenodd" stroke="#5e4a30" stroke-width="1"/><path d="M 372.0,279.3 L 366.9,276.6 L 368.2,274.5 L 375.4,277.6 L 377.6,280.3 L 375.2,283.2 L 372.0,279.3 Z" fill="#7d6240" fill-rule="evenodd" stroke="#5e4a30" stroke-width="1"/><path d="M 391.8,270.2 L 402.3,274.8 L 402.3,276.6 L 394.0,274.0 L 383.8,280.1 L 384.7,281.7 L 382.6,282.9 L 380.0,278.4 L 388.2,274.8 L 391.8,270.2 Z" fill="#7d6240" fill-rule="evenodd" stroke="#5e4a30" stroke-width="1"/><path d="M 365.5,302.4 L 362.5,299.4 L 362.1,295.8 L 371.5,295.4 L 373.7,302.1 L 365.5,302.4 Z" fill="#7d6240" fill-rule="evenodd" stroke="#5e4a30" stroke-width="1"/><path d="M 381.9,293.5 L 383.7,295.7 L 381.3,297.8 L 385.1,297.6 L 385.2,301.9 L 374.5,302.4 L 373.1,297.5 L 378.9,295.8 L 381.9,293.5 Z" fill="#7d6240" fill-rule="evenodd" stroke="#5e4a30" stroke-width="1"/><path d="M 397.5,293.0 L 396.7,296.1 L 393.3,295.8 L 390.0,291.9 L 385.4,295.6 L 381.6,290.9 L 390.6,284.6 L 392.0,290.4 L 397.5,293.0 Z" fill="#7d6240" fill-rule="evenodd" stroke="#5e4a30" stroke-width="1"/><path d="M 396.3,302.5 L 385.6,301.9 L 385.6,296.5 L 397.2,297.8 L 396.3,302.5 Z" fill="#7d6240" fill-rule="evenodd" stroke="#5e4a30" stroke-width="1"/><path d="M 382.7,330.6 L 376.1,338.4 L 375.0,337.7 L 374.9,334.6 L 380.5,328.9 L 382.7,330.6 Z" fill="#7d6240" fill-rule="evenodd" stroke="#5e4a30" stroke-width="1"/><path d="M 369.4,319.2 L 362.3,313.8 L 360.2,314.4 L 360.0,310.7 L 361.9,310.4 L 371.8,315.5 L 372.5,316.4 L 369.4,319.2 Z" fill="#7d6240" fill-rule="evenodd" stroke="#5e4a30" stroke-width="1"/><path d="M 373.9,304.0 L 380.6,303.7 L 380.1,305.5 L 387.8,313.7 L 385.1,315.8 L 378.0,307.1 L 373.9,305.3 L 373.9,304.0 Z" fill="#7d6240" fill-rule="evenodd" stroke="#5e4a30" stroke-width="1"/><path d="M 388.9,314.5 L 390.4,316.7 L 392.0,316.1 L 394.1,317.3 L 390.7,323.5 L 387.0,320.5 L 385.3,316.8 L 388.9,314.5 Z" fill="#7d6240" fill-rule="evenodd" stroke="#5e4a30" stroke-width="1"/><path d="M 393.7,327.3 L 387.3,325.4 L 382.8,318.5 L 385.3,316.8 L 387.0,320.5 L 390.3,323.4 L 394.5,324.5 L 393.7,327.3 Z" fill="#7d6240" fill-rule="evenodd" stroke="#5e4a30" stroke-width="1"/><path d="M 391.7,315.3 L 390.1,312.3 L 387.4,311.1 L 382.7,306.4 L 382.5,303.6 L 390.9,303.5 L 390.6,309.1 L 397.5,311.4 L 396.8,312.9 L 393.4,312.1 L 394.4,314.0 L 391.7,315.3 Z" fill="#7d6240" fill-rule="evenodd" stroke="#5e4a30" stroke-width="1"/><path d="M 372.3,329.6 L 371.4,331.5 L 371.6,337.2 L 364.8,337.4 L 364.6,331.6 L 367.8,331.6 L 369.4,327.5 L 372.3,329.6 Z" fill="#7d6240" fill-rule="evenodd" stroke="#5e4a30" stroke-width="1"/><path d="M 371.6,338.1 L 371.8,343.5 L 363.4,343.7 L 364.1,337.9 L 371.6,338.1 Z" fill="#7d6240" fill-rule="evenodd" stroke="#5e4a30" stroke-width="1"/><path d="M 370.6,319.4 L 373.3,317.2 L 378.3,326.0 L 377.1,326.7 L 375.3,323.4 L 374.0,323.5 L 370.6,319.4 Z" fill="#7d6240" fill-rule="evenodd" stroke="#5e4a30" stroke-width="1"/><path d="M 380.5,328.9 L 373.3,317.2 L 375.4,315.4 L 382.4,327.0 L 380.5,328.9 Z" fill="#7d6240" fill-rule="evenodd" stroke="#5e4a30" stroke-width="1"/><path d="M 377.3,338.3 L 381.8,333.2 L 384.5,334.7 L 380.6,340.4 L 377.3,338.3 Z" fill="#7d6240" fill-rule="evenodd" stroke="#5e4a30" stroke-width="1"/><path d="M 371.3,346.1 L 373.9,341.6 L 378.3,344.1 L 379.8,349.1 L 371.3,352.0 L 369.2,346.9 L 371.3,346.1 Z" fill="#7d6240" fill-rule="evenodd" stroke="#5e4a30" stroke-width="1"/><path d="M 364.6,354.5 L 364.0,348.1 L 368.4,346.9 L 370.2,352.5 L 364.6,354.5 Z" fill="#7d6240" fill-rule="evenodd" stroke="#5e4a30" stroke-width="1"/><path d="M 368.1,319.3 L 367.7,322.7 L 369.7,325.1 L 368.2,327.9 L 364.5,325.5 L 363.6,320.2 L 366.0,317.9 L 368.1,319.3 Z" fill="#7d6240" fill-rule="evenodd" stroke="#5e4a30" stroke-width="1"/><path d="M 375.1,340.5 L 372.5,339.4 L 372.3,331.2 L 378.8,327.0 L 380.5,328.9 L 374.9,334.6 L 375.0,337.7 L 376.1,338.4 L 375.1,340.5 Z" fill="#7d6240" fill-rule="evenodd" stroke="#5e4a30" stroke-width="1"/><path d="M 359.5,305.1 L 363.2,304.5 L 366.6,309.0 L 366.0,309.7 L 374.6,314.7 L 372.5,316.4 L 361.9,310.4 L 360.0,310.7 L 359.5,305.1 Z" fill="#7d6240" fill-rule="evenodd" stroke="#5e4a30" stroke-width="1"/><path d="M 378.0,307.1 L 385.1,315.8 L 382.4,317.7 L 377.3,310.3 L 372.9,308.0 L 374.2,305.4 L 378.0,307.1 Z" fill="#7d6240" fill-rule="evenodd" stroke="#5e4a30" stroke-width="1"/><path d="M 390.6,338.5 L 385.1,335.5 L 387.8,330.7 L 391.0,331.6 L 391.4,330.3 L 392.4,330.6 L 390.6,338.5 Z" fill="#7d6240" fill-rule="evenodd" stroke="#5e4a30" stroke-width="1"/><path d="M 385.5,345.1 L 386.9,342.0 L 389.6,342.6 L 388.3,346.2 L 381.0,348.7 L 379.7,344.8 L 381.0,342.3 L 382.8,343.4 L 381.7,345.0 L 382.5,345.6 L 383.5,344.5 L 385.5,345.1 Z" fill="#7d6240" fill-rule="evenodd" stroke="#5e4a30" stroke-width="1"/><path d="M 385.6,374.0 L 379.4,372.5 L 381.0,367.9 L 383.9,369.2 L 390.1,369.4 L 390.4,373.6 L 385.6,374.0 Z" fill="#7d6240" fill-rule="evenodd" stroke="#5e4a30" stroke-width="1"/><path d="M 400.3,366.9 L 394.5,371.6 L 390.6,369.6 L 391.5,364.9 L 397.7,364.8 L 397.6,367.0 L 400.3,366.9 Z" fill="#7d6240" fill-rule="evenodd" stroke="#5e4a30" stroke-width="1"/><path d="M 383.7,362.3 L 390.4,364.4 L 389.4,368.4 L 384.2,368.1 L 381.6,366.8 L 383.7,362.3 Z" fill="#7d6240" fill-rule="evenodd" stroke="#5e4a30" stroke-width="1"/><path d="M 417.7,386.0 L 422.7,385.8 L 421.9,391.5 L 420.3,392.3 L 417.2,391.3 L 417.7,386.0 Z" fill="#7d6240" fill-rule="evenodd" stroke="#5e4a30" stroke-width="1"/><path d="M 404.9,388.3 L 402.4,391.1 L 396.7,391.4 L 396.1,390.5 L 397.1,385.6 L 402.6,385.4 L 405.3,384.2 L 404.9,388.3 Z" fill="#7d6240" fill-rule="evenodd" stroke="#5e4a30" stroke-width="1"/><path d="M 398.2,384.6 L 397.2,375.7 L 402.0,376.0 L 403.6,383.6 L 398.2,384.6 Z" fill="#7d6240" fill-rule="evenodd" stroke="#5e4a30" stroke-width="1"/><path d="M 406.3,377.9 L 405.2,375.3 L 415.9,372.6 L 415.7,378.4 L 414.6,379.7 L 411.5,381.1 L 409.4,376.5 L 406.3,377.9 Z" fill="#7d6240" fill-rule="evenodd" stroke="#5e4a30" stroke-width="1"/><path d="M 396.5,375.7 L 397.0,382.6 L 395.9,386.3 L 390.7,385.2 L 391.1,377.3 L 396.5,375.7 Z" fill="#7d6240" fill-rule="evenodd" stroke="#5e4a30" stroke-width="1"/><path d="M 378.9,377.0 L 390.3,377.0 L 389.4,388.2 L 378.0,387.7 L 378.9,377.0 Z" fill="#7d6240" fill-rule="evenodd" stroke="#5e4a30" stroke-width="1"/><path d="M 393.9,392.0 L 391.1,395.3 L 388.3,396.6 L 388.3,389.2 L 391.2,389.2 L 393.9,392.0 Z" fill="#7d6240" fill-rule="evenodd" stroke="#5e4a30" stroke-width="1"/><path d="M 408.0,396.6 L 396.2,400.3 L 394.6,396.2 L 393.2,395.4 L 395.2,392.0 L 404.1,391.6 L 407.7,395.3 L 408.0,396.6 Z" fill="#7d6240" fill-rule="evenodd" stroke="#5e4a30" stroke-width="1"/><path d="M 392.5,396.4 L 394.3,397.3 L 395.7,400.5 L 389.6,403.3 L 388.4,397.6 L 392.5,396.4 Z" fill="#7d6240" fill-rule="evenodd" stroke="#5e4a30" stroke-width="1"/><path d="M 389.8,403.8 L 385.6,404.1 L 384.7,398.3 L 388.4,397.6 L 389.8,403.8 Z" fill="#7d6240" fill-rule="evenodd" stroke="#5e4a30" stroke-width="1"/><path d="M 381.9,395.8 L 384.0,397.9 L 385.0,404.8 L 378.2,408.3 L 378.0,395.9 L 381.9,395.8 Z" fill="#7d6240" fill-rule="evenodd" stroke="#5e4a30" stroke-width="1"/><path d="M 386.7,396.8 L 386.6,395.7 L 383.9,395.8 L 383.6,389.3 L 388.3,389.2 L 388.3,396.6 L 386.7,396.8 Z" fill="#7d6240" fill-rule="evenodd" stroke="#5e4a30" stroke-width="1"/><path d="M 383.0,389.4 L 383.1,394.9 L 378.0,395.0 L 377.9,389.1 L 383.0,389.4 Z" fill="#7d6240" fill-rule="evenodd" stroke="#5e4a30" stroke-width="1"/><path d="M 366.3,402.2 L 364.3,406.6 L 355.5,402.3 L 354.2,399.9 L 359.1,396.7 L 366.3,402.2 Z" fill="#7d6240" fill-rule="evenodd" stroke="#5e4a30" stroke-width="1"/><path d="M 378.8,366.9 L 376.8,373.8 L 370.9,373.3 L 371.1,368.7 L 374.0,364.3 L 378.8,366.9 Z" fill="#7d6240" fill-rule="evenodd" stroke="#5e4a30" stroke-width="1"/><path d="M 360.2,372.1 L 353.1,368.8 L 355.1,365.7 L 355.9,366.4 L 358.6,363.2 L 362.9,366.1 L 360.2,372.1 Z" fill="#7d6240" fill-rule="evenodd" stroke="#5e4a30" stroke-width="1"/><path d="M 367.8,362.3 L 363.7,364.8 L 359.2,362.5 L 364.9,357.6 L 367.8,362.3 Z" fill="#7d6240" fill-rule="evenodd" stroke="#5e4a30" stroke-width="1"/><path d="M 364.3,374.3 L 361.3,373.2 L 365.0,365.3 L 368.7,363.4 L 372.6,363.7 L 370.7,367.8 L 367.3,366.7 L 366.6,369.4 L 364.6,370.6 L 364.3,374.3 Z" fill="#7d6240" fill-rule="evenodd" stroke="#5e4a30" stroke-width="1"/><path d="M 377.4,357.2 L 375.3,361.2 L 372.5,359.9 L 371.1,354.9 L 376.1,353.1 L 377.4,357.2 Z" fill="#7d6240" fill-rule="evenodd" stroke="#5e4a30" stroke-width="1"/><path d="M 377.7,357.4 L 380.3,356.6 L 383.0,358.1 L 380.4,363.7 L 375.8,361.4 L 377.7,357.4 Z" fill="#7d6240" fill-rule="evenodd" stroke="#5e4a30" stroke-width="1"/><path d="M 380.4,355.8 L 379.2,352.0 L 385.2,349.9 L 386.0,352.3 L 383.6,357.3 L 380.4,355.8 Z" fill="#7d6240" fill-rule="evenodd" stroke="#5e4a30" stroke-width="1"/><path d="M 395.0,354.4 L 391.9,361.2 L 385.8,358.2 L 388.2,353.1 L 387.7,349.7 L 393.6,348.5 L 395.0,354.4 Z" fill="#7d6240" fill-rule="evenodd" stroke="#5e4a30" stroke-width="1"/><path d="M 400.6,353.1 L 400.3,361.1 L 396.8,361.3 L 396.2,354.7 L 400.6,353.1 Z" fill="#7d6240" fill-rule="evenodd" stroke="#5e4a30" stroke-width="1"/><path d="M 355.8,384.9 L 350.8,378.2 L 349.6,375.6 L 354.9,373.8 L 359.2,375.8 L 358.6,379.2 L 360.5,382.2 L 360.5,385.3 L 355.8,384.9 Z" fill="#7d6240" fill-rule="evenodd" stroke="#5e4a30" stroke-width="1"/><path d="M 353.4,396.2 L 355.0,387.1 L 356.2,386.1 L 360.3,386.6 L 359.3,396.0 L 353.4,396.2 Z" fill="#7d6240" fill-rule="evenodd" stroke="#5e4a30" stroke-width="1"/><path d="M 367.1,402.5 L 375.4,400.3 L 375.7,407.9 L 369.2,408.3 L 368.7,409.1 L 364.9,407.8 L 367.1,402.5 Z" fill="#7d6240" fill-rule="evenodd" stroke="#5e4a30" stroke-width="1"/><path d="M 375.4,399.3 L 367.4,401.0 L 362.7,399.0 L 360.3,395.4 L 364.3,392.5 L 367.4,394.9 L 369.4,394.6 L 370.5,390.3 L 374.3,390.8 L 375.4,399.3 Z" fill="#7d6240" fill-rule="evenodd" stroke="#5e4a30" stroke-width="1"/><path d="M 368.9,390.6 L 364.1,391.6 L 360.6,390.7 L 361.5,382.6 L 359.3,377.5 L 360.0,376.1 L 370.0,377.9 L 368.9,390.6 Z" fill="#7d6240" fill-rule="evenodd" stroke="#5e4a30" stroke-width="1"/><path d="M 372.1,389.3 L 369.5,388.5 L 371.0,378.0 L 376.4,378.5 L 375.3,388.1 L 372.1,389.3 Z" fill="#7d6240" fill-rule="evenodd" stroke="#5e4a30" stroke-width="1"/><path d="M 399.1,529.0 L 393.2,540.1 L 386.0,541.2 L 392.4,526.0 L 399.1,529.0 Z" fill="#7d6240" fill-rule="evenodd" stroke="#5e4a30" stroke-width="1"/><path d="M 416.8,350.6 L 420.1,350.6 L 420.9,355.4 L 420.6,365.7 L 419.1,367.5 L 416.1,367.7 L 417.5,363.2 L 417.8,353.7 L 416.8,350.6 Z" fill="#7d6240" fill-rule="evenodd" stroke="#5e4a30" stroke-width="1"/><path d="M 417.9,385.1 L 416.6,378.8 L 422.8,379.9 L 422.7,385.0 L 417.9,385.1 Z" fill="#7d6240" fill-rule="evenodd" stroke="#5e4a30" stroke-width="1"/><path d="M 406.4,388.3 L 413.9,388.9 L 415.1,394.3 L 408.3,394.6 L 405.1,391.0 L 406.4,388.3 Z" fill="#7d6240" fill-rule="evenodd" stroke="#5e4a30" stroke-width="1"/><path d="M 413.0,381.4 L 414.9,387.2 L 413.5,388.2 L 406.0,387.1 L 406.9,383.9 L 413.0,381.4 Z" fill="#7d6240" fill-rule="evenodd" stroke="#5e4a30" stroke-width="1"/><path d="M 64.0,390.0 L 56.0,391.2 L 55.4,387.5 L 65.7,386.3 L 65.7,388.2 L 63.9,388.5 L 64.0,390.0 Z" fill="#7d6240" fill-rule="evenodd" stroke="#5e4a30" stroke-width="1"/><path d="M 45.9,388.6 L 55.4,387.5 L 56.0,391.1 L 51.6,392.8 L 51.1,391.3 L 47.5,392.8 L 45.9,388.6 Z" fill="#7d6240" fill-rule="evenodd" stroke="#5e4a30" stroke-width="1"/><path d="M 103.9,503.9 L 101.9,508.1 L 89.1,502.7 L 91.2,498.0 L 103.9,503.9 Z" fill="#7d6240" fill-rule="evenodd" stroke="#5e4a30" stroke-width="1"/><path d="M 89.7,495.7 L 76.7,491.0 L 73.4,484.7 L 69.0,466.1 L 74.1,455.5 L 77.9,456.9 L 77.2,459.7 L 81.9,462.8 L 78.3,472.6 L 83.0,481.1 L 93.3,486.2 L 89.7,495.7 Z" fill="#7d6240" fill-rule="evenodd" stroke="#5e4a30" stroke-width="1"/><path d="M 55.0,171.0 L 65.8,171.3 L 65.8,172.6 L 74.0,171.8 L 73.8,178.3 L 60.0,180.1 L 59.0,173.5 L 54.9,173.4 L 55.0,171.0 Z" fill="#7d6240" fill-rule="evenodd" stroke="#5e4a30" stroke-width="1"/><path d="M 383.3,559.4 L 379.3,553.9 L 397.3,551.5 L 396.4,552.6 L 397.0,555.2 L 392.8,555.9 L 393.1,558.4 L 383.3,559.4 Z" fill="#7d6240" fill-rule="evenodd" stroke="#5e4a30" stroke-width="1"/><path d="M 384.9,543.3 L 389.4,545.7 L 390.1,548.7 L 385.8,549.4 L 382.2,547.9 L 384.9,543.3 Z" fill="#7d6240" fill-rule="evenodd" stroke="#5e4a30" stroke-width="1"/><path d="M 390.6,550.8 L 381.1,552.6 L 379.9,551.9 L 382.2,547.9 L 385.8,549.4 L 390.1,548.7 L 390.6,550.8 Z" fill="#7d6240" fill-rule="evenodd" stroke="#5e4a30" stroke-width="1"/><path d="M 397.2,514.8 L 403.9,513.4 L 401.9,519.0 L 398.6,518.0 L 397.3,520.4 L 395.2,519.6 L 397.2,514.8 Z" fill="#7d6240" fill-rule="evenodd" stroke="#5e4a30" stroke-width="1"/><path d="M 145.5,336.4 L 138.4,326.4 L 138.0,324.7 L 139.8,320.2 L 149.3,322.4 L 147.2,328.4 L 150.2,333.8 L 145.5,336.4 Z" fill="#7d6240" fill-rule="evenodd" stroke="#5e4a30" stroke-width="1"/><path d="M 137.9,319.5 L 134.2,329.4 L 127.8,327.0 L 125.8,323.7 L 127.0,320.9 L 131.4,320.9 L 135.6,318.2 L 137.9,319.5 Z" fill="#7d6240" fill-rule="evenodd" stroke="#5e4a30" stroke-width="1"/><path d="M 137.1,339.4 L 130.0,343.2 L 127.5,342.7 L 126.2,333.7 L 131.3,330.0 L 135.5,331.8 L 137.5,336.0 L 136.0,336.8 L 137.1,339.4 Z" fill="#7d6240" fill-rule="evenodd" stroke="#5e4a30" stroke-width="1"/><path d="M 131.3,330.0 L 126.2,333.7 L 122.3,330.4 L 126.0,326.4 L 127.3,328.4 L 131.3,330.0 Z" fill="#7d6240" fill-rule="evenodd" stroke="#5e4a30" stroke-width="1"/><path d="M 122.0,318.6 L 124.2,320.0 L 123.9,324.1 L 126.0,326.4 L 122.3,330.4 L 117.0,321.7 L 122.0,318.6 Z" fill="#7d6240" fill-rule="evenodd" stroke="#5e4a30" stroke-width="1"/><path d="M 155.5,322.1 L 140.3,318.2 L 134.9,313.7 L 133.3,314.9 L 129.0,312.6 L 131.2,311.0 L 145.2,291.2 L 154.9,296.9 L 161.0,295.5 L 165.3,309.1 L 156.9,317.7 L 155.5,322.1 Z" fill="#7d6240" fill-rule="evenodd" stroke="#5e4a30" stroke-width="1"/><path d="M 127.9,345.3 L 138.1,340.4 L 139.6,342.3 L 130.2,348.3 L 128.8,347.5 L 127.9,345.3 Z" fill="#7d6240" fill-rule="evenodd" stroke="#5e4a30" stroke-width="1"/><path d="M 147.2,328.4 L 154.6,328.2 L 154.2,331.4 L 150.2,333.8 L 147.2,328.4 Z" fill="#7d6240" fill-rule="evenodd" stroke="#5e4a30" stroke-width="1"/><path d="M 139.3,326.6 L 145.5,336.4 L 143.1,340.7 L 141.2,341.8 L 137.6,332.9 L 135.0,329.7 L 136.3,327.6 L 139.3,326.6 Z" fill="#7d6240" fill-rule="evenodd" stroke="#5e4a30" stroke-width="1"/><path d="M 161.0,295.5 L 154.9,296.9 L 145.2,291.2 L 153.6,279.8 L 156.4,281.3 L 159.3,287.3 L 161.0,295.5 Z" fill="#7d6240" fill-rule="evenodd" stroke="#5e4a30" stroke-width="1"/><path d="M 167.4,309.1 L 165.8,301.9 L 169.2,298.6 L 172.1,298.6 L 172.1,295.7 L 174.0,292.7 L 182.4,298.1 L 178.8,306.2 L 171.3,308.9 L 167.4,309.1 Z" fill="#7d6240" fill-rule="evenodd" stroke="#5e4a30" stroke-width="1"/><path d="M 171.8,293.1 L 170.5,292.7 L 171.0,294.0 L 167.5,296.5 L 167.7,297.4 L 164.2,298.0 L 161.4,286.3 L 156.6,275.6 L 159.3,271.8 L 164.3,268.9 L 170.2,272.9 L 179.7,285.0 L 177.9,287.5 L 176.4,285.4 L 173.6,287.6 L 175.1,289.5 L 171.8,293.1 Z" fill="#7d6240" fill-rule="evenodd" stroke="#5e4a30" stroke-width="1"/><path d="M 190.9,292.3 L 185.2,305.1 L 183.7,306.8 L 180.9,306.4 L 180.6,305.1 L 183.5,299.3 L 185.7,299.7 L 186.0,296.9 L 183.8,295.2 L 181.2,296.1 L 176.3,290.4 L 181.1,286.6 L 183.1,287.6 L 183.6,289.5 L 187.1,290.0 L 190.9,292.3 Z" fill="#7d6240" fill-rule="evenodd" stroke="#5e4a30" stroke-width="1"/><path d="M 171.7,310.4 L 178.2,307.4 L 188.8,307.9 L 190.5,309.5 L 190.7,316.0 L 183.5,315.9 L 177.1,319.8 L 170.6,313.3 L 171.7,310.4 Z" fill="#7d6240" fill-rule="evenodd" stroke="#5e4a30" stroke-width="1"/><path d="M 206.3,313.2 L 204.4,308.0 L 205.6,306.5 L 202.3,304.8 L 200.9,308.4 L 202.8,308.6 L 204.8,314.4 L 197.4,313.0 L 191.8,314.9 L 191.8,308.0 L 190.0,306.1 L 187.2,306.6 L 185.2,304.9 L 190.9,292.3 L 206.0,298.2 L 205.5,299.9 L 206.6,298.3 L 214.5,300.3 L 215.5,303.4 L 214.0,308.1 L 208.8,310.7 L 207.1,312.8 L 206.3,313.2 Z" fill="#7d6240" fill-rule="evenodd" stroke="#5e4a30" stroke-width="1"/><path d="M 182.7,318.4 L 187.7,318.9 L 188.1,317.9 L 196.5,316.5 L 201.0,317.1 L 198.2,322.4 L 199.3,325.2 L 185.0,342.9 L 178.9,348.6 L 157.9,361.9 L 147.8,366.3 L 145.3,366.1 L 144.2,362.8 L 138.0,358.6 L 132.4,351.9 L 145.6,343.3 L 148.3,338.1 L 155.4,334.6 L 169.8,331.6 L 176.6,324.9 L 175.7,324.0 L 177.3,321.7 L 182.7,318.4 Z" fill="#7d6240" fill-rule="evenodd" stroke="#5e4a30" stroke-width="1"/><path d="M 210.8,332.6 L 215.8,328.1 L 220.2,330.7 L 220.3,332.8 L 219.0,334.7 L 210.8,332.6 Z" fill="#7d6240" fill-rule="evenodd" stroke="#5e4a30" stroke-width="1"/><path d="M 216.4,322.9 L 212.9,325.5 L 212.1,326.9 L 213.1,327.9 L 211.3,329.5 L 209.2,329.2 L 209.8,324.7 L 213.7,320.5 L 216.4,322.9 Z" fill="#7d6240" fill-rule="evenodd" stroke="#5e4a30" stroke-width="1"/><path d="M 234.3,318.3 L 240.2,321.8 L 239.6,324.0 L 236.4,326.3 L 234.7,322.8 L 233.2,323.0 L 231.4,321.3 L 234.3,318.3 Z" fill="#7d6240" fill-rule="evenodd" stroke="#5e4a30" stroke-width="1"/><path d="M 227.0,320.1 L 223.7,325.2 L 220.3,322.1 L 225.4,316.2 L 229.2,319.1 L 227.7,320.7 L 227.0,320.1 Z" fill="#7d6240" fill-rule="evenodd" stroke="#5e4a30" stroke-width="1"/><path d="M 324.0,343.3 L 324.4,346.3 L 322.4,348.8 L 320.9,347.6 L 320.0,348.7 L 316.2,345.8 L 316.4,343.8 L 319.9,340.0 L 324.0,343.3 Z" fill="#7d6240" fill-rule="evenodd" stroke="#5e4a30" stroke-width="1"/><path d="M 327.4,330.1 L 326.9,331.7 L 328.2,332.8 L 328.0,336.3 L 323.9,341.6 L 319.9,338.5 L 327.4,330.1 Z" fill="#7d6240" fill-rule="evenodd" stroke="#5e4a30" stroke-width="1"/><path d="M 329.5,334.7 L 330.6,334.8 L 330.7,333.0 L 327.4,330.1 L 329.7,327.5 L 332.4,329.0 L 332.2,337.4 L 328.7,337.4 L 329.5,334.7 Z" fill="#7d6240" fill-rule="evenodd" stroke="#5e4a30" stroke-width="1"/><path d="M 328.8,352.5 L 325.0,348.0 L 326.0,344.0 L 327.8,342.0 L 329.9,342.9 L 327.1,339.9 L 328.7,337.4 L 332.2,337.4 L 331.9,346.5 L 328.8,352.5 Z" fill="#7d6240" fill-rule="evenodd" stroke="#5e4a30" stroke-width="1"/><path d="M 319.2,354.2 L 324.3,348.9 L 328.8,352.5 L 327.3,358.4 L 325.2,360.5 L 319.4,355.7 L 319.2,354.2 Z" fill="#7d6240" fill-rule="evenodd" stroke="#5e4a30" stroke-width="1"/><path d="M 315.9,346.2 L 320.7,350.5 L 317.9,353.8 L 310.4,350.5 L 314.3,346.2 L 315.9,346.2 Z" fill="#7d6240" fill-rule="evenodd" stroke="#5e4a30" stroke-width="1"/><path d="M 310.9,336.8 L 318.6,339.2 L 311.2,347.8 L 306.0,345.0 L 306.1,342.5 L 310.9,336.8 Z" fill="#7d6240" fill-rule="evenodd" stroke="#5e4a30" stroke-width="1"/><path d="M 233.1,398.6 L 234.4,398.4 L 237.9,400.9 L 235.0,406.2 L 230.0,403.1 L 233.1,398.6 Z" fill="#7d6240" fill-rule="evenodd" stroke="#5e4a30" stroke-width="1"/><path d="M 221.3,401.6 L 219.5,402.0 L 214.4,397.7 L 214.3,394.7 L 216.1,393.9 L 219.1,396.1 L 218.2,397.5 L 221.7,399.9 L 221.3,401.6 Z" fill="#7d6240" fill-rule="evenodd" stroke="#5e4a30" stroke-width="1"/><path d="M 250.3,409.4 L 246.2,413.4 L 236.4,407.0 L 239.4,401.2 L 248.0,407.0 L 250.3,409.4 Z" fill="#7d6240" fill-rule="evenodd" stroke="#5e4a30" stroke-width="1"/><path d="M 252.2,415.3 L 249.5,413.5 L 251.9,409.8 L 257.0,413.0 L 254.1,420.2 L 250.2,418.8 L 252.2,415.3 Z" fill="#7d6240" fill-rule="evenodd" stroke="#5e4a30" stroke-width="1"/><path d="M 235.7,408.6 L 241.1,412.5 L 239.0,416.1 L 237.3,416.9 L 233.7,416.0 L 235.7,412.5 L 234.0,411.5 L 235.7,408.6 Z" fill="#7d6240" fill-rule="evenodd" stroke="#5e4a30" stroke-width="1"/><path d="M 213.5,394.5 L 213.7,398.1 L 218.4,402.4 L 221.2,402.8 L 223.5,401.0 L 233.7,407.9 L 232.5,410.9 L 228.4,408.9 L 226.0,411.2 L 218.8,406.2 L 210.6,397.2 L 208.6,394.3 L 208.4,391.6 L 212.3,383.2 L 215.5,384.7 L 215.0,385.5 L 216.8,386.8 L 214.6,389.7 L 214.9,392.9 L 213.5,394.5 Z" fill="#7d6240" fill-rule="evenodd" stroke="#5e4a30" stroke-width="1"/><path d="M 223.0,390.9 L 220.1,395.3 L 215.7,391.0 L 218.0,387.1 L 223.0,390.9 Z" fill="#7d6240" fill-rule="evenodd" stroke="#5e4a30" stroke-width="1"/><path d="M 229.6,402.8 L 221.8,398.3 L 222.5,397.0 L 221.2,396.1 L 223.8,391.8 L 233.7,396.6 L 229.6,402.8 Z" fill="#7d6240" fill-rule="evenodd" stroke="#5e4a30" stroke-width="1"/><path d="M 254.0,400.0 L 256.6,395.3 L 259.3,394.8 L 262.9,396.6 L 261.4,402.2 L 259.6,402.8 L 254.0,400.0 Z" fill="#7d6240" fill-rule="evenodd" stroke="#5e4a30" stroke-width="1"/><path d="M 248.3,396.0 L 249.0,392.7 L 253.2,392.0 L 254.5,392.8 L 254.8,394.7 L 251.4,401.5 L 244.3,397.1 L 245.6,394.6 L 248.3,396.0 Z" fill="#7d6240" fill-rule="evenodd" stroke="#5e4a30" stroke-width="1"/><path d="M 244.1,396.9 L 251.4,401.5 L 250.8,405.2 L 246.0,402.6 L 246.8,401.2 L 244.8,400.0 L 243.1,402.1 L 241.3,400.8 L 244.1,396.9 Z" fill="#7d6240" fill-rule="evenodd" stroke="#5e4a30" stroke-width="1"/><path d="M 247.7,391.1 L 241.3,400.8 L 240.0,400.0 L 240.4,395.2 L 245.0,389.4 L 247.7,391.1 Z" fill="#7d6240" fill-rule="evenodd" stroke="#5e4a30" stroke-width="1"/><path d="M 231.0,383.0 L 240.8,391.8 L 236.9,396.6 L 228.2,390.9 L 228.5,385.6 L 231.0,383.0 Z" fill="#7d6240" fill-rule="evenodd" stroke="#5e4a30" stroke-width="1"/><path d="M 241.5,390.9 L 232.8,381.3 L 239.4,378.0 L 244.6,385.7 L 243.9,388.7 L 241.5,390.9 Z" fill="#7d6240" fill-rule="evenodd" stroke="#5e4a30" stroke-width="1"/><path d="M 233.8,367.2 L 235.0,365.4 L 245.5,373.2 L 243.3,373.9 L 240.6,372.4 L 239.7,372.9 L 234.0,369.5 L 233.8,367.2 Z" fill="#7d6240" fill-rule="evenodd" stroke="#5e4a30" stroke-width="1"/><path d="M 220.8,380.8 L 231.1,371.4 L 234.2,370.9 L 239.7,375.5 L 234.7,377.8 L 235.1,378.6 L 230.5,380.6 L 225.7,384.9 L 221.3,385.5 L 219.6,384.2 L 220.8,380.8 Z" fill="#7d6240" fill-rule="evenodd" stroke="#5e4a30" stroke-width="1"/><path d="M 250.8,343.9 L 245.5,350.8 L 243.0,351.8 L 242.8,350.7 L 240.0,351.7 L 238.3,348.5 L 236.2,350.0 L 234.4,347.7 L 242.8,342.6 L 250.8,343.9 Z" fill="#7d6240" fill-rule="evenodd" stroke="#5e4a30" stroke-width="1"/><path d="M 249.1,361.3 L 248.9,363.2 L 247.2,364.5 L 236.6,355.9 L 238.9,353.6 L 246.2,360.1 L 249.1,361.3 Z" fill="#7d6240" fill-rule="evenodd" stroke="#5e4a30" stroke-width="1"/><path d="M 254.4,360.3 L 246.8,359.0 L 242.8,353.9 L 246.6,351.8 L 251.1,345.6 L 253.3,345.0 L 257.8,348.3 L 253.6,353.3 L 253.4,356.1 L 255.0,358.5 L 254.4,360.3 Z" fill="#7d6240" fill-rule="evenodd" stroke="#5e4a30" stroke-width="1"/><path d="M 243.8,361.9 L 238.6,368.0 L 235.0,365.4 L 237.2,362.6 L 239.0,363.5 L 241.7,360.2 L 243.8,361.9 Z" fill="#7d6240" fill-rule="evenodd" stroke="#5e4a30" stroke-width="1"/><path d="M 228.5,357.0 L 231.1,358.1 L 232.0,360.3 L 235.8,361.8 L 235.1,363.6 L 233.8,364.4 L 226.7,359.1 L 228.5,357.0 Z" fill="#7d6240" fill-rule="evenodd" stroke="#5e4a30" stroke-width="1"/><path d="M 234.2,357.2 L 232.4,357.5 L 228.3,354.8 L 230.8,351.0 L 235.7,355.1 L 234.2,357.2 Z" fill="#7d6240" fill-rule="evenodd" stroke="#5e4a30" stroke-width="1"/><path d="M 243.4,367.9 L 245.3,368.0 L 247.9,365.0 L 250.2,366.5 L 245.1,372.9 L 238.6,368.0 L 240.6,365.6 L 243.4,367.9 Z" fill="#7d6240" fill-rule="evenodd" stroke="#5e4a30" stroke-width="1"/><path d="M 262.8,379.1 L 260.4,383.1 L 257.2,383.7 L 253.8,381.5 L 258.1,377.1 L 262.8,379.1 Z" fill="#7d6240" fill-rule="evenodd" stroke="#5e4a30" stroke-width="1"/><path d="M 250.9,380.6 L 260.7,387.6 L 264.2,380.2 L 268.8,382.8 L 265.0,392.4 L 248.9,383.3 L 250.9,380.6 Z" fill="#7d6240" fill-rule="evenodd" stroke="#5e4a30" stroke-width="1"/><path d="M 259.5,403.7 L 257.9,410.9 L 254.1,409.0 L 253.2,407.4 L 254.1,405.4 L 252.2,404.2 L 253.3,400.9 L 259.5,403.7 Z" fill="#7d6240" fill-rule="evenodd" stroke="#5e4a30" stroke-width="1"/><path d="M 257.0,393.4 L 252.1,389.1 L 249.5,390.9 L 248.3,390.2 L 251.6,385.3 L 265.0,392.4 L 263.6,395.1 L 257.0,393.4 Z" fill="#7d6240" fill-rule="evenodd" stroke="#5e4a30" stroke-width="1"/><path d="M 269.0,381.4 L 261.0,376.4 L 261.4,375.7 L 257.6,372.9 L 256.2,374.8 L 256.5,376.4 L 254.8,377.4 L 248.6,372.3 L 252.7,367.6 L 257.9,371.2 L 261.0,367.7 L 272.0,375.0 L 269.0,381.4 Z" fill="#7d6240" fill-rule="evenodd" stroke="#5e4a30" stroke-width="1"/><path d="M 247.8,373.4 L 253.9,378.5 L 252.3,380.3 L 250.8,379.2 L 245.9,384.6 L 240.9,377.7 L 247.8,373.4 Z" fill="#7d6240" fill-rule="evenodd" stroke="#5e4a30" stroke-width="1"/><path d="M 234.3,364.8 L 233.0,367.8 L 228.8,368.0 L 227.4,365.2 L 225.7,366.8 L 229.4,371.2 L 224.8,374.2 L 219.9,379.9 L 218.6,383.4 L 213.8,381.5 L 218.2,370.2 L 224.3,364.2 L 226.7,359.1 L 234.3,364.8 Z" fill="#7d6240" fill-rule="evenodd" stroke="#5e4a30" stroke-width="1"/><path d="M 270.0,353.6 L 269.5,356.3 L 263.8,359.9 L 261.9,355.5 L 269.8,351.3 L 271.4,353.0 L 270.0,353.6 Z" fill="#7d6240" fill-rule="evenodd" stroke="#5e4a30" stroke-width="1"/><path d="M 252.7,367.6 L 256.5,358.9 L 263.2,364.5 L 257.9,371.2 L 252.7,367.6 Z" fill="#7d6240" fill-rule="evenodd" stroke="#5e4a30" stroke-width="1"/><path d="M 269.5,337.1 L 263.5,333.5 L 253.0,341.5 L 247.9,340.6 L 254.6,329.7 L 260.3,326.8 L 269.5,325.2 L 271.6,325.9 L 271.0,328.6 L 272.3,333.6 L 271.5,333.4 L 269.5,337.1 Z" fill="#7d6240" fill-rule="evenodd" stroke="#5e4a30" stroke-width="1"/><path d="M 273.7,324.0 L 265.8,324.2 L 264.7,319.7 L 272.4,318.5 L 274.7,319.0 L 275.2,320.4 L 273.7,324.0 Z" fill="#7d6240" fill-rule="evenodd" stroke="#5e4a30" stroke-width="1"/><path d="M 274.7,333.1 L 278.1,333.4 L 279.3,338.2 L 277.5,342.7 L 278.7,342.8 L 281.4,347.0 L 284.6,348.8 L 283.8,350.0 L 284.5,353.5 L 280.5,353.7 L 276.8,357.0 L 270.4,344.1 L 270.6,341.2 L 274.7,333.1 Z" fill="#7d6240" fill-rule="evenodd" stroke="#5e4a30" stroke-width="1"/><path d="M 288.1,402.2 L 267.7,410.5 L 261.9,411.3 L 260.7,410.2 L 266.3,399.2 L 265.5,399.0 L 270.9,384.8 L 274.4,384.6 L 273.3,378.9 L 281.2,364.7 L 286.3,368.3 L 292.6,370.6 L 295.6,374.4 L 294.5,377.1 L 297.1,380.4 L 298.9,379.1 L 302.4,382.4 L 301.9,384.3 L 303.1,385.0 L 296.6,395.5 L 300.3,401.5 L 288.1,402.2 Z" fill="#7d6240" fill-rule="evenodd" stroke="#5e4a30" stroke-width="1"/><path d="M 304.3,343.4 L 301.7,347.7 L 296.2,347.6 L 299.5,351.6 L 297.8,356.0 L 293.2,359.5 L 287.9,359.5 L 286.5,351.3 L 289.9,344.8 L 291.4,337.5 L 295.6,337.3 L 304.3,343.4 Z" fill="#7d6240" fill-rule="evenodd" stroke="#5e4a30" stroke-width="1"/><path d="M 328.9,327.2 L 320.5,334.7 L 318.3,334.3 L 318.1,336.9 L 311.9,335.1 L 313.0,328.6 L 317.7,324.4 L 319.7,318.6 L 321.4,318.0 L 324.0,319.6 L 328.8,320.3 L 328.9,327.2 Z" fill="#7d6240" fill-rule="evenodd" stroke="#5e4a30" stroke-width="1"/><path d="M 307.1,326.6 L 302.0,332.2 L 304.1,333.8 L 307.8,327.7 L 310.5,329.5 L 309.4,330.8 L 310.6,332.0 L 310.2,333.5 L 305.5,340.0 L 304.1,340.2 L 294.4,333.2 L 302.8,324.4 L 305.9,324.1 L 307.1,326.6 Z" fill="#7d6240" fill-rule="evenodd" stroke="#5e4a30" stroke-width="1"/><path d="M 305.3,314.3 L 314.5,312.3 L 312.9,305.0 L 306.3,306.9 L 305.7,304.9 L 314.0,302.6 L 317.0,306.9 L 317.3,319.7 L 315.8,323.1 L 311.4,327.1 L 308.6,325.2 L 309.0,323.4 L 306.2,321.9 L 305.6,323.5 L 304.2,323.5 L 292.5,312.7 L 304.3,310.6 L 305.3,314.3 Z" fill="#7d6240" fill-rule="evenodd" stroke="#5e4a30" stroke-width="1"/><path d="M 286.9,360.8 L 293.1,361.8 L 296.9,358.3 L 298.8,358.2 L 304.0,348.0 L 308.3,351.5 L 308.6,354.2 L 312.0,354.5 L 319.9,359.7 L 320.4,362.5 L 324.1,366.0 L 324.2,370.4 L 322.2,370.4 L 322.3,372.4 L 320.7,374.6 L 318.1,376.0 L 310.9,376.3 L 305.9,381.1 L 299.1,374.8 L 297.3,372.1 L 298.0,369.3 L 295.2,369.3 L 283.1,362.7 L 286.9,360.8 Z" fill="#7d6240" fill-rule="evenodd" stroke="#5e4a30" stroke-width="1"/><path d="M 305.4,282.9 L 303.2,280.9 L 301.4,284.0 L 299.2,285.4 L 283.7,279.9 L 283.1,277.9 L 286.9,265.5 L 307.2,272.0 L 308.6,274.0 L 310.1,273.6 L 310.6,277.1 L 305.4,282.9 Z" fill="#7d6240" fill-rule="evenodd" stroke="#5e4a30" stroke-width="1"/><path d="M 314.4,253.6 L 307.7,251.6 L 306.1,248.2 L 302.5,246.1 L 293.2,247.2 L 285.5,244.5 L 286.8,240.3 L 305.8,240.5 L 317.2,243.9 L 314.4,253.6 Z" fill="#7d6240" fill-rule="evenodd" stroke="#5e4a30" stroke-width="1"/><path d="M 284.1,244.7 L 278.3,246.6 L 271.8,241.9 L 272.1,240.3 L 277.5,241.5 L 285.4,240.3 L 284.1,244.7 Z" fill="#7d6240" fill-rule="evenodd" stroke="#5e4a30" stroke-width="1"/><path d="M 264.4,247.9 L 269.9,242.1 L 278.5,248.2 L 274.6,255.3 L 264.4,247.9 Z" fill="#7d6240" fill-rule="evenodd" stroke="#5e4a30" stroke-width="1"/><path d="M 283.2,250.9 L 281.7,247.3 L 282.9,246.5 L 284.8,246.1 L 290.0,248.6 L 287.8,261.4 L 279.2,258.6 L 283.2,250.9 Z" fill="#7d6240" fill-rule="evenodd" stroke="#5e4a30" stroke-width="1"/><path d="M 312.2,260.0 L 309.8,268.0 L 302.2,265.2 L 302.9,257.9 L 309.8,258.2 L 312.2,260.0 Z" fill="#7d6240" fill-rule="evenodd" stroke="#5e4a30" stroke-width="1"/><path d="M 302.5,287.9 L 314.3,277.0 L 319.1,276.1 L 324.7,278.0 L 323.6,291.3 L 312.3,300.4 L 299.9,304.6 L 297.4,302.7 L 296.5,297.8 L 302.2,296.6 L 302.0,295.2 L 304.9,294.7 L 302.5,287.9 Z" fill="#7d6240" fill-rule="evenodd" stroke="#5e4a30" stroke-width="1"/><path d="M 254.6,340.9 L 257.6,340.5 L 263.3,335.7 L 269.2,338.6 L 267.3,342.5 L 264.3,341.5 L 259.3,346.5 L 253.9,342.8 L 254.6,340.9 Z" fill="#7d6240" fill-rule="evenodd" stroke="#5e4a30" stroke-width="1"/><path d="M 285.5,347.9 L 279.6,342.0 L 280.3,339.1 L 279.0,332.9 L 278.4,332.0 L 274.7,332.1 L 273.7,327.7 L 275.4,323.9 L 291.0,333.8 L 287.3,340.3 L 287.4,344.1 L 285.5,347.9 Z" fill="#7d6240" fill-rule="evenodd" stroke="#5e4a30" stroke-width="1"/><path d="M 390.6,284.6 L 394.7,283.7 L 396.1,289.2 L 395.6,292.0 L 392.0,290.4 L 390.6,284.6 Z" fill="#7d6240" fill-rule="evenodd" stroke="#5e4a30" stroke-width="1"/><path d="M 411.0,284.9 L 412.2,279.4 L 417.2,280.6 L 416.3,285.3 L 411.0,284.9 Z" fill="#7d6240" fill-rule="evenodd" stroke="#5e4a30" stroke-width="1"/><path d="M 441.3,283.9 L 430.9,282.6 L 431.5,278.8 L 442.3,280.8 L 441.3,283.9 Z" fill="#7d6240" fill-rule="evenodd" stroke="#5e4a30" stroke-width="1"/><path d="M 390.6,309.1 L 390.9,303.5 L 393.4,304.4 L 392.1,307.3 L 397.9,308.3 L 397.1,311.3 L 390.6,309.1 Z" fill="#7d6240" fill-rule="evenodd" stroke="#5e4a30" stroke-width="1"/><path d="M 384.4,336.6 L 390.4,339.4 L 389.6,342.6 L 384.9,341.4 L 383.3,338.8 L 384.4,336.6 Z" fill="#7d6240" fill-rule="evenodd" stroke="#5e4a30" stroke-width="1"/><path d="M 406.8,315.3 L 417.7,312.3 L 418.5,314.7 L 407.1,317.3 L 406.8,315.3 Z" fill="#7d6240" fill-rule="evenodd" stroke="#5e4a30" stroke-width="1"/><path d="M 53.0,290.0 L 46.5,289.6 L 45.6,285.1 L 41.9,281.3 L 43.1,279.7 L 46.8,277.2 L 48.1,279.3 L 45.7,280.8 L 48.8,285.3 L 53.8,288.4 L 53.0,290.0 Z" fill="#7d6240" fill-rule="evenodd" stroke="#5e4a30" stroke-width="1"/><path d="M 42.9,310.2 L 40.8,307.9 L 41.1,300.8 L 39.6,300.8 L 39.6,299.6 L 43.1,299.4 L 44.1,302.0 L 44.0,307.1 L 45.1,308.5 L 42.9,310.2 Z" fill="#7d6240" fill-rule="evenodd" stroke="#5e4a30" stroke-width="1"/><path d="M 39.4,297.4 L 44.6,295.3 L 46.3,291.2 L 52.2,292.2 L 53.7,294.1 L 51.6,295.4 L 49.6,294.0 L 48.2,294.5 L 43.1,299.4 L 39.6,299.6 L 39.4,297.4 Z" fill="#7d6240" fill-rule="evenodd" stroke="#5e4a30" stroke-width="1"/><path d="M 43.1,299.4 L 48.2,294.5 L 49.6,294.0 L 51.6,295.4 L 47.1,300.3 L 46.7,307.4 L 45.1,308.5 L 44.0,307.1 L 44.1,302.0 L 43.1,299.4 Z" fill="#7d6240" fill-rule="evenodd" stroke="#5e4a30" stroke-width="1"/><path d="M 59.1,409.5 L 57.9,402.5 L 62.2,399.4 L 66.0,399.2 L 65.7,404.1 L 60.9,405.7 L 62.3,409.1 L 59.1,409.5 Z" fill="#7d6240" fill-rule="evenodd" stroke="#5e4a30" stroke-width="1"/><path d="M 58.2,433.8 L 57.5,429.6 L 61.6,424.2 L 63.5,423.5 L 66.2,427.3 L 61.1,432.1 L 58.2,433.8 Z" fill="#7d6240" fill-rule="evenodd" stroke="#5e4a30" stroke-width="1"/><path d="M 51.3,430.0 L 45.5,430.2 L 46.2,425.7 L 51.2,425.7 L 51.3,430.0 Z" fill="#7d6240" fill-rule="evenodd" stroke="#5e4a30" stroke-width="1"/><path d="M 54.3,422.0 L 53.3,418.4 L 63.7,416.5 L 64.0,418.9 L 57.7,420.0 L 54.3,422.0 Z" fill="#7d6240" fill-rule="evenodd" stroke="#5e4a30" stroke-width="1"/><path d="M 53.0,446.4 L 49.1,441.0 L 52.1,438.3 L 56.7,443.3 L 53.0,446.4 Z" fill="#7d6240" fill-rule="evenodd" stroke="#5e4a30" stroke-width="1"/><path d="M 142.1,511.2 L 134.8,510.5 L 138.5,489.1 L 145.6,490.5 L 142.1,511.2 Z" fill="#7d6240" fill-rule="evenodd" stroke="#5e4a30" stroke-width="1"/><path d="M 127.9,498.2 L 126.5,509.5 L 113.8,506.3 L 114.5,504.6 L 113.0,504.0 L 115.0,493.7 L 127.9,498.2 Z" fill="#7d6240" fill-rule="evenodd" stroke="#5e4a30" stroke-width="1"/><path d="M 86.8,505.3 L 87.6,511.0 L 84.3,509.9 L 81.6,510.8 L 80.5,506.9 L 86.8,505.3 Z" fill="#7d6240" fill-rule="evenodd" stroke="#5e4a30" stroke-width="1"/><path d="M 107.6,491.2 L 106.8,502.6 L 100.1,499.9 L 103.6,489.8 L 107.6,491.2 Z" fill="#7d6240" fill-rule="evenodd" stroke="#5e4a30" stroke-width="1"/><path d="M 95.3,497.9 L 98.6,488.0 L 100.6,488.7 L 97.5,498.8 L 95.3,497.9 Z" fill="#7d6240" fill-rule="evenodd" stroke="#5e4a30" stroke-width="1"/><path d="M 92.5,491.5 L 90.8,496.1 L 89.7,495.7 L 93.3,486.2 L 96.6,487.3 L 94.9,492.2 L 92.5,491.5 Z" fill="#7d6240" fill-rule="evenodd" stroke="#5e4a30" stroke-width="1"/><path d="M 28.0,486.1 L 27.0,491.2 L 21.2,492.9 L 22.0,491.4 L 20.3,491.2 L 23.9,488.6 L 24.9,485.8 L 28.0,486.1 Z" fill="#7d6240" fill-rule="evenodd" stroke="#5e4a30" stroke-width="1"/><path d="M 27.6,495.1 L 30.7,495.6 L 30.5,497.9 L 37.9,500.7 L 33.4,508.7 L 28.0,504.3 L 29.5,503.1 L 29.9,500.2 L 28.5,499.8 L 28.2,497.9 L 26.5,498.1 L 27.6,495.1 Z" fill="#7d6240" fill-rule="evenodd" stroke="#5e4a30" stroke-width="1"/><path d="M 71.8,489.0 L 68.3,491.7 L 61.6,487.5 L 67.9,485.1 L 71.8,489.0 Z" fill="#7d6240" fill-rule="evenodd" stroke="#5e4a30" stroke-width="1"/><path d="M 52.6,491.7 L 56.7,487.0 L 61.6,487.5 L 68.3,491.7 L 66.4,493.4 L 63.7,491.5 L 59.5,497.0 L 52.6,491.7 Z" fill="#7d6240" fill-rule="evenodd" stroke="#5e4a30" stroke-width="1"/><path d="M 58.6,454.7 L 55.6,449.7 L 60.4,447.3 L 62.5,452.4 L 58.6,454.7 Z" fill="#7d6240" fill-rule="evenodd" stroke="#5e4a30" stroke-width="1"/><path d="M 68.5,428.1 L 74.7,428.6 L 72.2,435.6 L 66.5,431.5 L 63.6,431.6 L 68.5,428.1 Z" fill="#7d6240" fill-rule="evenodd" stroke="#5e4a30" stroke-width="1"/><path d="M 46.8,433.4 L 51.9,438.4 L 49.5,440.5 L 45.0,438.1 L 45.1,435.0 L 46.8,433.4 Z" fill="#7d6240" fill-rule="evenodd" stroke="#5e4a30" stroke-width="1"/><path d="M 72.2,435.6 L 70.1,445.0 L 60.6,443.0 L 60.1,440.7 L 64.3,438.8 L 59.7,433.9 L 62.7,431.4 L 66.5,431.5 L 72.2,435.6 Z" fill="#7d6240" fill-rule="evenodd" stroke="#5e4a30" stroke-width="1"/><path d="M 63.5,423.5 L 78.9,417.4 L 79.4,418.1 L 74.7,428.6 L 67.5,428.0 L 63.5,423.5 Z" fill="#7d6240" fill-rule="evenodd" stroke="#5e4a30" stroke-width="1"/><path d="M 64.5,421.6 L 60.6,422.7 L 60.3,423.7 L 59.3,422.3 L 55.2,424.6 L 54.3,422.0 L 57.7,420.0 L 64.0,418.9 L 64.5,421.6 Z" fill="#7d6240" fill-rule="evenodd" stroke="#5e4a30" stroke-width="1"/><path d="M 69.6,465.8 L 62.8,448.7 L 69.2,448.9 L 70.1,445.0 L 79.7,447.0 L 80.0,451.0 L 77.9,456.9 L 74.1,455.5 L 69.6,465.8 Z" fill="#7d6240" fill-rule="evenodd" stroke="#5e4a30" stroke-width="1"/><path d="M 62.8,448.7 L 60.6,443.0 L 70.1,445.0 L 69.2,448.9 L 62.8,448.7 Z" fill="#7d6240" fill-rule="evenodd" stroke="#5e4a30" stroke-width="1"/><path d="M 51.6,404.3 L 57.4,402.6 L 57.7,407.1 L 52.1,407.7 L 51.6,404.3 Z" fill="#7d6240" fill-rule="evenodd" stroke="#5e4a30" stroke-width="1"/><path d="M 42.5,379.7 L 41.2,375.7 L 51.7,372.4 L 52.2,376.6 L 42.5,379.7 Z" fill="#7d6240" fill-rule="evenodd" stroke="#5e4a30" stroke-width="1"/><path d="M 44.3,314.5 L 43.5,311.1 L 48.1,308.3 L 57.1,311.1 L 57.0,316.5 L 44.3,314.5 Z" fill="#7d6240" fill-rule="evenodd" stroke="#5e4a30" stroke-width="1"/><path d="M 48.3,307.0 L 47.9,301.3 L 54.4,295.1 L 60.2,302.6 L 57.5,307.6 L 57.4,309.9 L 48.3,307.0 Z" fill="#7d6240" fill-rule="evenodd" stroke="#5e4a30" stroke-width="1"/><path d="M 54.6,271.6 L 60.4,276.0 L 56.8,282.7 L 54.4,281.5 L 53.4,283.4 L 50.7,281.7 L 48.9,278.7 L 54.5,275.3 L 53.2,273.1 L 54.6,271.6 Z" fill="#7d6240" fill-rule="evenodd" stroke="#5e4a30" stroke-width="1"/><path d="M 57.2,284.7 L 61.8,287.2 L 58.7,292.5 L 54.9,288.9 L 57.2,284.7 Z" fill="#7d6240" fill-rule="evenodd" stroke="#5e4a30" stroke-width="1"/><path d="M 155.7,225.0 L 150.9,221.4 L 156.6,213.6 L 161.4,217.2 L 155.7,225.0 Z" fill="#7d6240" fill-rule="evenodd" stroke="#5e4a30" stroke-width="1"/><path d="M 164.2,220.1 L 168.5,214.3 L 175.8,219.8 L 175.0,221.0 L 169.7,217.2 L 166.4,221.8 L 164.2,220.1 Z" fill="#7d6240" fill-rule="evenodd" stroke="#5e4a30" stroke-width="1"/><path d="M 161.0,207.5 L 169.3,213.2 L 167.8,215.6 L 163.2,212.4 L 162.5,213.4 L 163.4,214.5 L 162.1,216.2 L 157.1,212.9 L 161.0,207.5 Z" fill="#7d6240" fill-rule="evenodd" stroke="#5e4a30" stroke-width="1"/><path d="M 161.5,256.0 L 150.8,247.6 L 156.9,239.3 L 162.3,242.8 L 164.2,242.9 L 168.5,237.0 L 173.1,240.4 L 161.5,256.0 Z" fill="#7d6240" fill-rule="evenodd" stroke="#5e4a30" stroke-width="1"/><path d="M 165.9,232.5 L 162.9,229.8 L 168.2,222.5 L 171.4,224.9 L 165.9,232.5 Z" fill="#7d6240" fill-rule="evenodd" stroke="#5e4a30" stroke-width="1"/><path d="M 178.3,219.7 L 185.7,225.1 L 183.9,227.8 L 176.6,222.2 L 178.3,219.7 Z" fill="#7d6240" fill-rule="evenodd" stroke="#5e4a30" stroke-width="1"/><path d="M 154.3,213.6 L 150.9,218.1 L 145.9,214.6 L 149.4,209.9 L 154.3,213.6 Z" fill="#7d6240" fill-rule="evenodd" stroke="#5e4a30" stroke-width="1"/><path d="M 154.4,202.9 L 159.4,206.4 L 155.0,212.5 L 150.1,209.0 L 154.4,202.9 Z" fill="#7d6240" fill-rule="evenodd" stroke="#5e4a30" stroke-width="1"/><path d="M 146.1,206.1 L 149.1,208.3 L 144.9,213.9 L 142.0,211.8 L 146.1,206.1 Z" fill="#7d6240" fill-rule="evenodd" stroke="#5e4a30" stroke-width="1"/><path d="M 137.8,198.5 L 139.2,196.4 L 148.7,203.1 L 148.6,204.2 L 147.5,205.6 L 137.8,198.5 Z" fill="#7d6240" fill-rule="evenodd" stroke="#5e4a30" stroke-width="1"/><path d="M 139.0,196.2 L 140.5,194.0 L 150.1,201.0 L 148.7,203.1 L 139.0,196.2 Z" fill="#7d6240" fill-rule="evenodd" stroke="#5e4a30" stroke-width="1"/><path d="M 117.0,297.3 L 120.5,289.2 L 133.3,294.9 L 128.6,303.3 L 117.0,297.3 Z" fill="#7d6240" fill-rule="evenodd" stroke="#5e4a30" stroke-width="1"/><path d="M 122.5,283.4 L 131.0,286.4 L 129.2,291.6 L 120.5,288.3 L 122.5,283.4 Z" fill="#7d6240" fill-rule="evenodd" stroke="#5e4a30" stroke-width="1"/><path d="M 115.0,297.8 L 107.2,294.3 L 109.8,288.4 L 117.8,291.6 L 115.0,297.8 Z" fill="#7d6240" fill-rule="evenodd" stroke="#5e4a30" stroke-width="1"/><path d="M 112.8,280.9 L 120.6,283.1 L 117.8,290.2 L 110.5,287.4 L 112.8,280.9 Z" fill="#7d6240" fill-rule="evenodd" stroke="#5e4a30" stroke-width="1"/><path d="M 101.5,291.7 L 106.0,278.9 L 111.2,280.5 L 106.3,293.9 L 101.5,291.7 Z" fill="#7d6240" fill-rule="evenodd" stroke="#5e4a30" stroke-width="1"/><path d="M 84.9,296.4 L 83.2,292.0 L 85.0,288.6 L 89.4,290.9 L 86.8,297.3 L 84.9,296.4 Z" fill="#7d6240" fill-rule="evenodd" stroke="#5e4a30" stroke-width="1"/><path d="M 68.5,308.4 L 68.3,312.2 L 61.1,310.0 L 62.2,306.7 L 68.5,308.4 Z" fill="#7d6240" fill-rule="evenodd" stroke="#5e4a30" stroke-width="1"/><path d="M 69.7,305.3 L 68.5,308.4 L 61.6,306.6 L 62.2,303.4 L 69.7,305.3 Z" fill="#7d6240" fill-rule="evenodd" stroke="#5e4a30" stroke-width="1"/><path d="M 58.2,283.5 L 61.0,277.7 L 65.6,280.2 L 63.0,285.9 L 58.2,283.5 Z" fill="#7d6240" fill-rule="evenodd" stroke="#5e4a30" stroke-width="1"/><path d="M 63.1,288.4 L 67.4,279.3 L 72.1,281.9 L 67.5,290.7 L 63.1,288.4 Z" fill="#7d6240" fill-rule="evenodd" stroke="#5e4a30" stroke-width="1"/><path d="M 69.3,289.7 L 73.0,282.3 L 77.7,284.9 L 73.9,292.1 L 69.3,289.7 Z" fill="#7d6240" fill-rule="evenodd" stroke="#5e4a30" stroke-width="1"/><path d="M 74.3,294.5 L 77.9,286.9 L 83.2,289.0 L 82.5,294.9 L 78.1,296.5 L 74.3,294.5 Z" fill="#7d6240" fill-rule="evenodd" stroke="#5e4a30" stroke-width="1"/><path d="M 73.7,295.6 L 77.8,297.7 L 82.9,296.0 L 86.6,298.6 L 85.9,300.0 L 79.9,302.8 L 76.0,303.0 L 71.7,299.7 L 73.7,295.6 Z" fill="#7d6240" fill-rule="evenodd" stroke="#5e4a30" stroke-width="1"/><path d="M 64.5,298.4 L 67.8,292.3 L 72.8,294.9 L 70.7,299.3 L 64.9,299.9 L 64.5,298.4 Z" fill="#7d6240" fill-rule="evenodd" stroke="#5e4a30" stroke-width="1"/><path d="M 62.5,300.1 L 57.1,294.5 L 62.5,289.5 L 66.9,291.9 L 62.5,300.1 Z" fill="#7d6240" fill-rule="evenodd" stroke="#5e4a30" stroke-width="1"/><path d="M 58.3,318.3 L 59.1,311.2 L 71.3,313.9 L 71.3,318.9 L 63.5,317.8 L 58.3,318.3 Z" fill="#7d6240" fill-rule="evenodd" stroke="#5e4a30" stroke-width="1"/><path d="M 82.1,312.2 L 80.3,305.2 L 88.1,301.7 L 88.6,305.6 L 86.9,305.6 L 87.5,311.9 L 82.1,312.2 Z" fill="#7d6240" fill-rule="evenodd" stroke="#5e4a30" stroke-width="1"/><path d="M 88.7,317.9 L 81.0,320.0 L 80.9,313.0 L 87.4,313.1 L 88.7,317.9 Z" fill="#7d6240" fill-rule="evenodd" stroke="#5e4a30" stroke-width="1"/><path d="M 73.3,321.4 L 73.3,305.6 L 79.1,305.5 L 79.8,320.4 L 77.0,321.9 L 73.3,321.4 Z" fill="#7d6240" fill-rule="evenodd" stroke="#5e4a30" stroke-width="1"/></svg>