<?xml version="1.0" encoding="UTF-8"?><svg xmlns="http://www.w3.org/2000/svg" viewBox="0 0 1000 782" font-family="Arial, sans-serif"><rect width="1000" height="782" fill="white"/><text x="50" y="48" fill="#D32333" font-weight="800" font-size="25">Recommended plan — a worked example</text><circle cx="65.0" cy="93.0" r="6" fill="#2f7d33"/><circle cx="95.0" cy="93.0" r="6" fill="#2f7d33"/><circle cx="125.0" cy="93.0" r="6" fill="#2f7d33"/><circle cx="155.0" cy="93.0" r="6" fill="#2f7d33"/><circle cx="185.0" cy="93.0" r="6" fill="#2f7d33"/><circle cx="215.0" cy="93.0" r="6" fill="#2f7d33"/><circle cx="245.0" cy="93.0" r="6" fill="#2f7d33"/><circle cx="275.0" cy="93.0" r="6" fill="#2f7d33"/><circle cx="305.0" cy="93.0" r="6" fill="#2f7d33"/><circle cx="335.0" cy="93.0" r="6" fill="#2f7d33"/><circle cx="365.0" cy="93.0" r="6" fill="#2f7d33"/><circle cx="395.0" cy="93.0" r="6" fill="#2f7d33"/><circle cx="425.0" cy="93.0" r="6" fill="#2f7d33"/><circle cx="455.0" cy="93.0" r="6" fill="#2f7d33"/><circle cx="485.0" cy="93.0" r="6" fill="#2f7d33"/><circle cx="515.0" cy="93.0" r="6" fill="#2f7d33"/><circle cx="545.0" cy="93.0" r="6" fill="#2f7d33"/><circle cx="575.0" cy="93.0" r="6" fill="#2f7d33"/><circle cx="605.0" cy="93.0" r="6" fill="#2f7d33"/><circle cx="635.0" cy="93.0" r="6" fill="#2f7d33"/><circle cx="665.0" cy="93.0" r="6" fill="#2f7d33"/><circle cx="695.0" cy="93.0" r="6" fill="#2f7d33"/><circle cx="725.0" cy="93.0" r="6" fill="#2f7d33"/><circle cx="755.0" cy="93.0" r="6" fill="#2f7d33"/><circle cx="785.0" cy="93.0" r="6" fill="#2f7d33"/><circle cx="815.0" cy="93.0" r="6" fill="#2f7d33"/><circle cx="845.0" cy="93.0" r="6" fill="#2f7d33"/><circle cx="875.0" cy="93.0" r="6" fill="#2f7d33"/><circle cx="905.0" cy="93.0" r="6" fill="#2f7d33"/><circle cx="935.0" cy="93.0" r="6" fill="#2f7d33"/><circle cx="65.0" cy="123.0" r="6" fill="#2f7d33"/><circle cx="95.0" cy="123.0" r="6" fill="#2f7d33"/><circle cx="125.0" cy="123.0" r="6" fill="#2f7d33"/><circle cx="155.0" cy="123.0" r="6" fill="#2f7d33"/><circle cx="185.0" cy="123.0" r="6" fill="#2f7d33"/><circle cx="215.0" cy="123.0" r="6" fill="#2f7d33"/><circle cx="245.0" cy="123.0" r="6" fill="#2f7d33"/><circle cx="275.0" cy="123.0" r="6" fill="#2f7d33"/><circle cx="305.0" cy="123.0" r="6" fill="#2f7d33"/><circle cx="335.0" cy="123.0" r="6" fill="#2f7d33"/><circle cx="365.0" cy="123.0" r="6" fill="#2f7d33"/><circle cx="395.0" cy="123.0" r="6" fill="#2f7d33"/><circle cx="425.0" cy="123.0" r="6" fill="#2f7d33"/><circle cx="455.0" cy="123.0" r="6" fill="#2f7d33"/><circle cx="485.0" cy="123.0" r="6" fill="#2f7d33"/><circle cx="515.0" cy="123.0" r="6" fill="#2f7d33"/><circle cx="545.0" cy="123.0" r="6" fill="#2f7d33"/><circle cx="575.0" cy="123.0" r="6" fill="#2f7d33"/><circle cx="605.0" cy="123.0" r="6" fill="#2f7d33"/><circle cx="635.0" cy="123.0" r="6" fill="#2f7d33"/><circle cx="665.0" cy="123.0" r="6" fill="#2f7d33"/><circle cx="695.0" cy="123.0" r="6" fill="#2f7d33"/><circle cx="725.0" cy="123.0" r="6" fill="#2f7d33"/><circle cx="755.0" cy="123.0" r="6" fill="#2f7d33"/><circle cx="785.0" cy="123.0" r="6" fill="#2f7d33"/><circle cx="815.0" cy="123.0" r="6" fill="#2f7d33"/><circle cx="845.0" cy="123.0" r="6" fill="#2f7d33"/><circle cx="875.0" cy="123.0" r="6" fill="#2f7d33"/><circle cx="905.0" cy="123.0" r="6" fill="#2f7d33"/><circle cx="935.0" cy="123.0" r="6" fill="#2f7d33"/><circle cx="65.0" cy="153.0" r="6" fill="#2f7d33"/><circle cx="95.0" cy="153.0" r="6" fill="#2f7d33"/><circle cx="125.0" cy="153.0" r="6" fill="#2f7d33"/><circle cx="155.0" cy="153.0" r="6" fill="#2f7d33"/><circle cx="185.0" cy="153.0" r="6" fill="#2f7d33"/><circle cx="215.0" cy="153.0" r="6" fill="#2f7d33"/><circle cx="245.0" cy="153.0" r="6" fill="#2f7d33"/><circle cx="275.0" cy="153.0" r="6" fill="#2f7d33"/><circle cx="305.0" cy="153.0" r="6" fill="#2f7d33"/><circle cx="335.0" cy="153.0" r="6" fill="#2f7d33"/><circle cx="365.0" cy="153.0" r="6" fill="#2f7d33"/><circle cx="395.0" cy="153.0" r="6" fill="#2f7d33"/><circle cx="425.0" cy="153.0" r="6" fill="#2f7d33"/><circle cx="455.0" cy="153.0" r="6" fill="#2f7d33"/><circle cx="485.0" cy="153.0" r="6" fill="#2f7d33"/><circle cx="515.0" cy="153.0" r="12" fill="#3a3a3a"/><circle cx="545.0" cy="153.0" r="6" fill="#2f7d33"/><circle cx="575.0" cy="153.0" r="6" fill="#2f7d33"/><circle cx="605.0" cy="153.0" r="6" fill="#2f7d33"/><circle cx="635.0" cy="153.0" r="6" fill="#2f7d33"/><circle cx="665.0" cy="153.0" r="6" fill="#2f7d33"/><circle cx="695.0" cy="153.0" r="6" fill="#2f7d33"/><circle cx="725.0" cy="153.0" r="6" fill="#2f7d33"/><circle cx="755.0" cy="153.0" r="6" fill="#2f7d33"/><circle cx="785.0" cy="153.0" r="6" fill="#2f7d33"/><circle cx="815.0" cy="153.0" r="6" fill="#2f7d33"/><circle cx="845.0" cy="153.0" r="6" fill="#2f7d33"/><circle cx="875.0" cy="153.0" r="6" fill="#2f7d33"/><circle cx="905.0" cy="153.0" r="6" fill="#2f7d33"/><circle cx="935.0" cy="153.0" r="6" fill="#2f7d33"/><circle cx="65.0" cy="183.0" r="6" fill="#2f7d33"/><circle cx="95.0" cy="183.0" r="6" fill="#2f7d33"/><circle cx="125.0" cy="183.0" r="6" fill="#2f7d33"/><circle cx="155.0" cy="183.0" r="6" fill="#2f7d33"/><circle cx="185.0" cy="183.0" r="6" fill="#2f7d33"/><circle cx="215.0" cy="183.0" r="6" fill="#2f7d33"/><circle cx="245.0" cy="183.0" r="6" fill="#2f7d33"/><circle cx="275.0" cy="183.0" r="6" fill="#2f7d33"/><circle cx="305.0" cy="183.0" r="6" fill="#2f7d33"/><circle cx="335.0" cy="183.0" r="6" fill="#2f7d33"/><circle cx="365.0" cy="183.0" r="6" fill="#2f7d33"/><circle cx="395.0" cy="183.0" r="6" fill="#2f7d33"/><circle cx="425.0" cy="183.0" r="6" fill="#2f7d33"/><circle cx="455.0" cy="183.0" r="12" fill="#3a3a3a"/><circle cx="485.0" cy="183.0" r="12" fill="#3a3a3a"/><circle cx="515.0" cy="183.0" r="12" fill="#3a3a3a"/><circle cx="545.0" cy="183.0" r="12" fill="#3a3a3a"/><circle cx="575.0" cy="183.0" r="12" fill="#3a3a3a"/><circle cx="605.0" cy="183.0" r="6" fill="#2f7d33"/><circle cx="635.0" cy="183.0" r="6" fill="#2f7d33"/><circle cx="665.0" cy="183.0" r="6" fill="#2f7d33"/><circle cx="695.0" cy="183.0" r="6" fill="#2f7d33"/><circle cx="725.0" cy="183.0" r="6" fill="#2f7d33"/><circle cx="755.0" cy="183.0" r="6" fill="#2f7d33"/><circle cx="785.0" cy="183.0" r="6" fill="#2f7d33"/><circle cx="815.0" cy="183.0" r="6" fill="#2f7d33"/><circle cx="845.0" cy="183.0" r="6" fill="#2f7d33"/><circle cx="875.0" cy="183.0" r="6" fill="#2f7d33"/><circle cx="905.0" cy="183.0" r="6" fill="#2f7d33"/><circle cx="935.0" cy="183.0" r="6" fill="#2f7d33"/><circle cx="65.0" cy="213.0" r="6" fill="#2f7d33"/><circle cx="95.0" cy="213.0" r="6" fill="#2f7d33"/><circle cx="125.0" cy="213.0" r="6" fill="#2f7d33"/><circle cx="155.0" cy="213.0" r="6" fill="#2f7d33"/><circle cx="185.0" cy="213.0" r="6" fill="#2f7d33"/><circle cx="215.0" cy="213.0" r="6" fill="#2f7d33"/><circle cx="245.0" cy="213.0" r="6" fill="#2f7d33"/><circle cx="275.0" cy="213.0" r="6" fill="#2f7d33"/><circle cx="305.0" cy="213.0" r="12" fill="#3a3a3a"/><circle cx="335.0" cy="213.0" r="12" fill="#3a3a3a"/><circle cx="365.0" cy="213.0" r="12" fill="#3a3a3a"/><circle cx="395.0" cy="213.0" r="6" fill="#2f7d33"/><circle cx="425.0" cy="213.0" r="12" fill="#3a3a3a"/><circle cx="455.0" cy="213.0" r="12" fill="#3a3a3a"/><circle cx="485.0" cy="213.0" r="12" fill="#3a3a3a"/><circle cx="515.0" cy="213.0" r="12" fill="#3a3a3a"/><circle cx="545.0" cy="213.0" r="12" fill="#3a3a3a"/><circle cx="575.0" cy="213.0" r="12" fill="#3a3a3a"/><circle cx="605.0" cy="213.0" r="12" fill="#3a3a3a"/><circle cx="635.0" cy="213.0" r="6" fill="#2f7d33"/><circle cx="665.0" cy="213.0" r="6" fill="#2f7d33"/><circle cx="695.0" cy="213.0" r="6" fill="#2f7d33"/><circle cx="725.0" cy="213.0" r="6" fill="#2f7d33"/><circle cx="755.0" cy="213.0" r="6" fill="#2f7d33"/><circle cx="785.0" cy="213.0" r="6" fill="#2f7d33"/><circle cx="815.0" cy="213.0" r="6" fill="#2f7d33"/><circle cx="845.0" cy="213.0" r="6" fill="#2f7d33"/><circle cx="875.0" cy="213.0" r="6" fill="#2f7d33"/><circle cx="905.0" cy="213.0" r="6" fill="#2f7d33"/><circle cx="935.0" cy="213.0" r="6" fill="#2f7d33"/><circle cx="65.0" cy="243.0" r="6" fill="#2f7d33"/><circle cx="95.0" cy="243.0" r="6" fill="#2f7d33"/><circle cx="125.0" cy="243.0" r="6" fill="#2f7d33"/><circle cx="155.0" cy="243.0" r="6" fill="#2f7d33"/><circle cx="185.0" cy="243.0" r="6" fill="#2f7d33"/><circle cx="215.0" cy="243.0" r="6" fill="#2f7d33"/><circle cx="245.0" cy="243.0" r="6" fill="#2f7d33"/><circle cx="275.0" cy="243.0" r="12" fill="#3a3a3a"/><circle cx="305.0" cy="243.0" r="12" fill="#3a3a3a"/><circle cx="335.0" cy="243.0" r="12" fill="#3a3a3a"/><circle cx="365.0" cy="243.0" r="12" fill="#3a3a3a"/><circle cx="395.0" cy="243.0" r="12" fill="#3a3a3a"/><circle cx="425.0" cy="243.0" r="12" fill="#3a3a3a"/><circle cx="455.0" cy="243.0" r="12" fill="#3a3a3a"/><circle cx="485.0" cy="243.0" r="12" fill="#3a3a3a"/><circle cx="515.0" cy="243.0" r="12" fill="#3a3a3a"/><circle cx="545.0" cy="243.0" r="12" fill="#3a3a3a"/><circle cx="575.0" cy="243.0" r="12" fill="#3a3a3a"/><circle cx="605.0" cy="243.0" r="12" fill="#3a3a3a"/><circle cx="635.0" cy="243.0" r="12" fill="#3a3a3a"/><circle cx="665.0" cy="243.0" r="6" fill="#2f7d33"/><circle cx="695.0" cy="243.0" r="6" fill="#2f7d33"/><circle cx="725.0" cy="243.0" r="6" fill="#2f7d33"/><circle cx="755.0" cy="243.0" r="6" fill="#2f7d33"/><circle cx="785.0" cy="243.0" r="6" fill="#2f7d33"/><circle cx="815.0" cy="243.0" r="6" fill="#2f7d33"/><circle cx="845.0" cy="243.0" r="6" fill="#2f7d33"/><circle cx="875.0" cy="243.0" r="6" fill="#2f7d33"/><circle cx="905.0" cy="243.0" r="6" fill="#2f7d33"/><circle cx="935.0" cy="243.0" r="6" fill="#2f7d33"/><circle cx="65.0" cy="273.0" r="6" fill="#2f7d33"/><circle cx="95.0" cy="273.0" r="6" fill="#2f7d33"/><circle cx="125.0" cy="273.0" r="6" fill="#2f7d33"/><circle cx="155.0" cy="273.0" r="6" fill="#2f7d33"/><circle cx="185.0" cy="273.0" r="6" fill="#2f7d33"/><circle cx="215.0" cy="273.0" r="6" fill="#2f7d33"/><circle cx="245.0" cy="273.0" r="12" fill="#3a3a3a"/><circle cx="275.0" cy="273.0" r="12" fill="#3a3a3a"/><circle cx="305.0" cy="273.0" r="12" fill="#3a3a3a"/><circle cx="335.0" cy="273.0" r="12" fill="#3a3a3a"/><circle cx="365.0" cy="273.0" r="12" fill="#3a3a3a"/><circle cx="395.0" cy="273.0" r="12" fill="#3a3a3a"/><circle cx="425.0" cy="273.0" r="12" fill="#3a3a3a"/><circle cx="455.0" cy="273.0" r="12" fill="#3a3a3a"/><circle cx="485.0" cy="273.0" r="12" fill="#7d6240"/><circle cx="515.0" cy="273.0" r="12" fill="#3a3a3a"/><circle cx="545.0" cy="273.0" r="12" fill="#3a3a3a"/><circle cx="575.0" cy="273.0" r="12" fill="#3a3a3a"/><circle cx="605.0" cy="273.0" r="12" fill="#3a3a3a"/><circle cx="635.0" cy="273.0" r="12" fill="#3a3a3a"/><circle cx="665.0" cy="273.0" r="12" fill="#3a3a3a"/><circle cx="695.0" cy="273.0" r="12" fill="#3a3a3a"/><circle cx="725.0" cy="273.0" r="6" fill="#2f7d33"/><circle cx="755.0" cy="273.0" r="12" fill="#3a3a3a"/><circle cx="785.0" cy="273.0" r="12" fill="#3a3a3a"/><circle cx="815.0" cy="273.0" r="12" fill="#3a3a3a"/><circle cx="845.0" cy="273.0" r="6" fill="#2f7d33"/><circle cx="875.0" cy="273.0" r="6" fill="#2f7d33"/><circle cx="905.0" cy="273.0" r="6" fill="#2f7d33"/><circle cx="935.0" cy="273.0" r="6" fill="#2f7d33"/><circle cx="65.0" cy="303.0" r="6" fill="#2f7d33"/><circle cx="95.0" cy="303.0" r="6" fill="#2f7d33"/><circle cx="125.0" cy="303.0" r="6" fill="#2f7d33"/><circle cx="155.0" cy="303.0" r="6" fill="#2f7d33"/><circle cx="185.0" cy="303.0" r="6" fill="#2f7d33"/><circle cx="215.0" cy="303.0" r="12" fill="#3a3a3a"/><circle cx="245.0" cy="303.0" r="12" fill="#3a3a3a"/><circle cx="275.0" cy="303.0" r="12" fill="#3a3a3a"/><circle cx="305.0" cy="303.0" r="12" fill="#3a3a3a"/><circle cx="335.0" cy="303.0" r="12" fill="#3a3a3a"/><circle cx="365.0" cy="303.0" r="12" fill="#3a3a3a"/><circle cx="395.0" cy="303.0" r="12" fill="#3a3a3a"/><circle cx="425.0" cy="303.0" r="12" fill="#7d6240"/><circle cx="455.0" cy="303.0" r="12" fill="#7d6240"/><circle cx="485.0" cy="303.0" r="12" fill="#7d6240"/><circle cx="515.0" cy="303.0" r="12" fill="#7d6240"/><circle cx="545.0" cy="303.0" r="12" fill="#7d6240"/><circle cx="575.0" cy="303.0" r="12" fill="#3a3a3a"/><circle cx="605.0" cy="303.0" r="12" fill="#3a3a3a"/><circle cx="635.0" cy="303.0" r="12" fill="#3a3a3a"/><circle cx="665.0" cy="303.0" r="12" fill="#3a3a3a"/><circle cx="695.0" cy="303.0" r="12" fill="#3a3a3a"/><circle cx="725.0" cy="303.0" r="12" fill="#3a3a3a"/><circle cx="755.0" cy="303.0" r="12" fill="#3a3a3a"/><circle cx="785.0" cy="303.0" r="12" fill="#3a3a3a"/><circle cx="815.0" cy="303.0" r="12" fill="#3a3a3a"/><circle cx="845.0" cy="303.0" r="12" fill="#3a3a3a"/><circle cx="875.0" cy="303.0" r="6" fill="#2f7d33"/><circle cx="905.0" cy="303.0" r="6" fill="#2f7d33"/><circle cx="935.0" cy="303.0" r="6" fill="#2f7d33"/><circle cx="65.0" cy="333.0" r="6" fill="#2f7d33"/><circle cx="95.0" cy="333.0" r="6" fill="#2f7d33"/><circle cx="125.0" cy="333.0" r="6" fill="#2f7d33"/><circle cx="155.0" cy="333.0" r="6" fill="#2f7d33"/><circle cx="185.0" cy="333.0" r="6" fill="#2f7d33"/><circle cx="215.0" cy="333.0" r="12" fill="#3a3a3a"/><circle cx="245.0" cy="333.0" r="12" fill="#3a3a3a"/><circle cx="275.0" cy="333.0" r="12" fill="#3a3a3a"/><circle cx="305.0" cy="333.0" r="12" fill="#3a3a3a"/><circle cx="335.0" cy="333.0" r="12" fill="#3a3a3a"/><circle cx="365.0" cy="333.0" r="12" fill="#3a3a3a"/><circle cx="395.0" cy="333.0" r="12" fill="#3a3a3a"/><circle cx="425.0" cy="333.0" r="12" fill="#7d6240"/><circle cx="455.0" cy="333.0" r="12" fill="#7d6240"/><circle cx="485.0" cy="333.0" r="12" fill="#7d6240"/><circle cx="515.0" cy="333.0" r="12" fill="#7d6240"/><circle cx="545.0" cy="333.0" r="12" fill="#7d6240"/><circle cx="575.0" cy="333.0" r="12" fill="#3a3a3a"/><circle cx="605.0" cy="333.0" r="12" fill="#3a3a3a"/><circle cx="635.0" cy="333.0" r="12" fill="#3a3a3a"/><circle cx="665.0" cy="333.0" r="12" fill="#3a3a3a"/><circle cx="695.0" cy="333.0" r="12" fill="#3a3a3a"/><circle cx="725.0" cy="333.0" r="12" fill="#3a3a3a"/><circle cx="755.0" cy="333.0" r="12" fill="#3a3a3a"/><circle cx="785.0" cy="333.0" r="12" fill="#3a3a3a"/><circle cx="815.0" cy="333.0" r="12" fill="#3a3a3a"/><circle cx="845.0" cy="333.0" r="12" fill="#3a3a3a"/><circle cx="875.0" cy="333.0" r="6" fill="#2f7d33"/><circle cx="905.0" cy="333.0" r="6" fill="#2f7d33"/><circle cx="935.0" cy="333.0" r="6" fill="#2f7d33"/><circle cx="65.0" cy="363.0" r="6" fill="#2f7d33"/><circle cx="95.0" cy="363.0" r="6" fill="#2f7d33"/><circle cx="125.0" cy="363.0" r="6" fill="#2f7d33"/><circle cx="155.0" cy="363.0" r="6" fill="#2f7d33"/><circle cx="185.0" cy="363.0" r="6" fill="#2f7d33"/><circle cx="215.0" cy="363.0" r="12" fill="#3a3a3a"/><circle cx="245.0" cy="363.0" r="12" fill="#3a3a3a"/><circle cx="275.0" cy="363.0" r="12" fill="#3a3a3a"/><circle cx="305.0" cy="363.0" r="12" fill="#3a3a3a"/><circle cx="335.0" cy="363.0" r="12" fill="#3a3a3a"/><circle cx="365.0" cy="363.0" r="12" fill="#3a3a3a"/><circle cx="395.0" cy="363.0" r="12" fill="#7d6240"/><circle cx="425.0" cy="363.0" r="12" fill="#7d6240"/><circle cx="455.0" cy="363.0" r="12" fill="#7d6240"/><circle cx="485.0" cy="363.0" r="12" fill="#7d6240"/><circle cx="515.0" cy="363.0" r="12" fill="#7d6240"/><circle cx="545.0" cy="363.0" r="12" fill="#7d6240"/><circle cx="575.0" cy="363.0" r="12" fill="#7d6240"/><circle cx="605.0" cy="363.0" r="12" fill="#3a3a3a"/><circle cx="635.0" cy="363.0" r="12" fill="#3a3a3a"/><circle cx="665.0" cy="363.0" r="12" fill="#3a3a3a"/><circle cx="695.0" cy="363.0" r="12" fill="#3a3a3a"/><circle cx="725.0" cy="363.0" r="12" fill="#3a3a3a"/><circle cx="755.0" cy="363.0" r="12" fill="#3a3a3a"/><circle cx="785.0" cy="363.0" r="12" fill="#3a3a3a"/><circle cx="815.0" cy="363.0" r="12" fill="#3a3a3a"/><circle cx="845.0" cy="363.0" r="12" fill="#3a3a3a"/><circle cx="875.0" cy="363.0" r="6" fill="#2f7d33"/><circle cx="905.0" cy="363.0" r="6" fill="#2f7d33"/><circle cx="935.0" cy="363.0" r="6" fill="#2f7d33"/><circle cx="65.0" cy="393.0" r="6" fill="#2f7d33"/><circle cx="95.0" cy="393.0" r="6" fill="#2f7d33"/><circle cx="125.0" cy="393.0" r="6" fill="#2f7d33"/><circle cx="155.0" cy="393.0" r="6" fill="#2f7d33"/><circle cx="185.0" cy="393.0" r="6" fill="#2f7d33"/><circle cx="215.0" cy="393.0" r="6" fill="#2f7d33"/><circle cx="245.0" cy="393.0" r="12" fill="#3a3a3a"/><circle cx="275.0" cy="393.0" r="12" fill="#3a3a3a"/><circle cx="305.0" cy="393.0" r="12" fill="#3a3a3a"/><circle cx="335.0" cy="393.0" r="12" fill="#3a3a3a"/><circle cx="365.0" cy="393.0" r="12" fill="#3a3a3a"/><circle cx="395.0" cy="393.0" r="12" fill="#3a3a3a"/><circle cx="425.0" cy="393.0" r="12" fill="#7d6240"/><circle cx="455.0" cy="393.0" r="12" fill="#7d6240"/><circle cx="485.0" cy="393.0" r="12" fill="#7d6240"/><circle cx="515.0" cy="393.0" r="12" fill="#7d6240"/><circle cx="545.0" cy="393.0" r="12" fill="#7d6240"/><circle cx="575.0" cy="393.0" r="12" fill="#3a3a3a"/><circle cx="605.0" cy="393.0" r="12" fill="#3a3a3a"/><circle cx="635.0" cy="393.0" r="12" fill="#3a3a3a"/><circle cx="665.0" cy="393.0" r="12" fill="#3a3a3a"/><circle cx="695.0" cy="393.0" r="12" fill="#3a3a3a"/><circle cx="725.0" cy="393.0" r="12" fill="#3a3a3a"/><circle cx="755.0" cy="393.0" r="12" fill="#3a3a3a"/><circle cx="785.0" cy="393.0" r="12" fill="#3a3a3a"/><circle cx="815.0" cy="393.0" r="12" fill="#3a3a3a"/><circle cx="845.0" cy="393.0" r="12" fill="#3a3a3a"/><circle cx="875.0" cy="393.0" r="6" fill="#2f7d33"/><circle cx="905.0" cy="393.0" r="6" fill="#2f7d33"/><circle cx="935.0" cy="393.0" r="6" fill="#2f7d33"/><circle cx="65.0" cy="423.0" r="6" fill="#2f7d33"/><circle cx="95.0" cy="423.0" r="6" fill="#2f7d33"/><circle cx="125.0" cy="423.0" r="6" fill="#2f7d33"/><circle cx="155.0" cy="423.0" r="6" fill="#2f7d33"/><circle cx="185.0" cy="423.0" r="6" fill="#2f7d33"/><circle cx="215.0" cy="423.0" r="12" fill="#3a3a3a"/><circle cx="245.0" cy="423.0" r="12" fill="#3a3a3a"/><circle cx="275.0" cy="423.0" r="12" fill="#3a3a3a"/><circle cx="305.0" cy="423.0" r="12" fill="#3a3a3a"/><circle cx="335.0" cy="423.0" r="12" fill="#3a3a3a"/><circle cx="365.0" cy="423.0" r="12" fill="#3a3a3a"/><circle cx="395.0" cy="423.0" r="12" fill="#3a3a3a"/><circle cx="425.0" cy="423.0" r="12" fill="#7d6240"/><circle cx="455.0" cy="423.0" r="12" fill="#7d6240"/><circle cx="485.0" cy="423.0" r="12" fill="#7d6240"/><circle cx="515.0" cy="423.0" r="12" fill="#7d6240"/><circle cx="545.0" cy="423.0" r="12" fill="#7d6240"/><circle cx="575.0" cy="423.0" r="12" fill="#3a3a3a"/><circle cx="605.0" cy="423.0" r="12" fill="#3a3a3a"/><circle cx="635.0" cy="423.0" r="12" fill="#3a3a3a"/><circle cx="665.0" cy="423.0" r="12" fill="#3a3a3a"/><circle cx="695.0" cy="423.0" r="12" fill="#3a3a3a"/><circle cx="725.0" cy="423.0" r="12" fill="#3a3a3a"/><circle cx="755.0" cy="423.0" r="12" fill="#3a3a3a"/><circle cx="785.0" cy="423.0" r="12" fill="#3a3a3a"/><circle cx="815.0" cy="423.0" r="12" fill="#3a3a3a"/><circle cx="845.0" cy="423.0" r="6" fill="#2f7d33"/><circle cx="875.0" cy="423.0" r="6" fill="#2f7d33"/><circle cx="905.0" cy="423.0" r="6" fill="#2f7d33"/><circle cx="935.0" cy="423.0" r="6" fill="#2f7d33"/><circle cx="65.0" cy="453.0" r="6" fill="#2f7d33"/><circle cx="95.0" cy="453.0" r="6" fill="#2f7d33"/><circle cx="125.0" cy="453.0" r="6" fill="#2f7d33"/><circle cx="155.0" cy="453.0" r="6" fill="#2f7d33"/><circle cx="185.0" cy="453.0" r="12" fill="#3a3a3a"/><circle cx="215.0" cy="453.0" r="12" fill="#3a3a3a"/><circle cx="245.0" cy="453.0" r="12" fill="#3a3a3a"/><circle cx="275.0" cy="453.0" r="12" fill="#3a3a3a"/><circle cx="305.0" cy="453.0" r="12" fill="#3a3a3a"/><circle cx="335.0" cy="453.0" r="12" fill="#3a3a3a"/><circle cx="365.0" cy="453.0" r="12" fill="#3a3a3a"/><circle cx="395.0" cy="453.0" r="12" fill="#3a3a3a"/><circle cx="425.0" cy="453.0" r="12" fill="#3a3a3a"/><circle cx="455.0" cy="453.0" r="12" fill="#3a3a3a"/><circle cx="485.0" cy="453.0" r="12" fill="#7d6240"/><circle cx="515.0" cy="453.0" r="12" fill="#3a3a3a"/><circle cx="545.0" cy="453.0" r="12" fill="#3a3a3a"/><circle cx="575.0" cy="453.0" r="12" fill="#3a3a3a"/><circle cx="605.0" cy="453.0" r="12" fill="#3a3a3a"/><circle cx="635.0" cy="453.0" r="12" fill="#3a3a3a"/><circle cx="665.0" cy="453.0" r="12" fill="#3a3a3a"/><circle cx="695.0" cy="453.0" r="12" fill="#3a3a3a"/><circle cx="725.0" cy="453.0" r="12" fill="#3a3a3a"/><circle cx="755.0" cy="453.0" r="12" fill="#3a3a3a"/><circle cx="785.0" cy="453.0" r="12" fill="#3a3a3a"/><circle cx="815.0" cy="453.0" r="6" fill="#2f7d33"/><circle cx="845.0" cy="453.0" r="6" fill="#2f7d33"/><circle cx="875.0" cy="453.0" r="6" fill="#2f7d33"/><circle cx="905.0" cy="453.0" r="6" fill="#2f7d33"/><circle cx="935.0" cy="453.0" r="6" fill="#2f7d33"/><circle cx="65.0" cy="483.0" r="6" fill="#2f7d33"/><circle cx="95.0" cy="483.0" r="6" fill="#2f7d33"/><circle cx="125.0" cy="483.0" r="6" fill="#2f7d33"/><circle cx="155.0" cy="483.0" r="6" fill="#2f7d33"/><circle cx="185.0" cy="483.0" r="12" fill="#3a3a3a"/><circle cx="215.0" cy="483.0" r="12" fill="#3a3a3a"/><circle cx="245.0" cy="483.0" r="12" fill="#3a3a3a"/><circle cx="275.0" cy="483.0" r="12" fill="#3a3a3a"/><circle cx="305.0" cy="483.0" r="12" fill="#3a3a3a"/><circle cx="335.0" cy="483.0" r="12" fill="#3a3a3a"/><circle cx="365.0" cy="483.0" r="12" fill="#3a3a3a"/><circle cx="395.0" cy="483.0" r="12" fill="#3a3a3a"/><circle cx="425.0" cy="483.0" r="12" fill="#3a3a3a"/><circle cx="455.0" cy="483.0" r="12" fill="#3a3a3a"/><circle cx="485.0" cy="483.0" r="12" fill="#3a3a3a"/><circle cx="515.0" cy="483.0" r="12" fill="#3a3a3a"/><circle cx="545.0" cy="483.0" r="12" fill="#3a3a3a"/><circle cx="575.0" cy="483.0" r="12" fill="#3a3a3a"/><circle cx="605.0" cy="483.0" r="12" fill="#3a3a3a"/><circle cx="635.0" cy="483.0" r="12" fill="#3a3a3a"/><circle cx="665.0" cy="483.0" r="12" fill="#3a3a3a"/><circle cx="695.0" cy="483.0" r="12" fill="#3a3a3a"/><circle cx="725.0" cy="483.0" r="12" fill="#3a3a3a"/><circle cx="755.0" cy="483.0" r="12" fill="#3a3a3a"/><circle cx="785.0" cy="483.0" r="12" fill="#3a3a3a"/><circle cx="815.0" cy="483.0" r="12" fill="#3a3a3a"/><circle cx="845.0" cy="483.0" r="6" fill="#2f7d33"/><circle cx="875.0" cy="483.0" r="6" fill="#2f7d33"/><circle cx="905.0" cy="483.0" r="6" fill="#2f7d33"/><circle cx="935.0" cy="483.0" r="6" fill="#2f7d33"/><circle cx="65.0" cy="513.0" r="6" fill="#2f7d33"/><circle cx="95.0" cy="513.0" r="6" fill="#2f7d33"/><circle cx="125.0" cy="513.0" r="6" fill="#2f7d33"/><circle cx="155.0" cy="513.0" r="6" fill="#2f7d33"/><circle cx="185.0" cy="513.0" r="12" fill="#3a3a3a"/><circle cx="215.0" cy="513.0" r="12" fill="#3a3a3a"/><circle cx="245.0" cy="513.0" r="12" fill="#3a3a3a"/><circle cx="275.0" cy="513.0" r="12" fill="#3a3a3a"/><circle cx="305.0" cy="513.0" r="12" fill="#3a3a3a"/><circle cx="335.0" cy="513.0" r="12" fill="#3a3a3a"/><circle cx="365.0" cy="513.0" r="12" fill="#3a3a3a"/><circle cx="395.0" cy="513.0" r="12" fill="#3a3a3a"/><circle cx="425.0" cy="513.0" r="12" fill="#3a3a3a"/><circle cx="455.0" cy="513.0" r="12" fill="#3a3a3a"/><circle cx="485.0" cy="513.0" r="12" fill="#3a3a3a"/><circle cx="515.0" cy="513.0" r="12" fill="#3a3a3a"/><circle cx="545.0" cy="513.0" r="12" fill="#3a3a3a"/><circle cx="575.0" cy="513.0" r="12" fill="#3a3a3a"/><circle cx="605.0" cy="513.0" r="6" fill="#2f7d33"/><circle cx="635.0" cy="513.0" r="12" fill="#3a3a3a"/><circle cx="665.0" cy="513.0" r="12" fill="#3a3a3a"/><circle cx="695.0" cy="513.0" r="12" fill="#3a3a3a"/><circle cx="725.0" cy="513.0" r="12" fill="#3a3a3a"/><circle cx="755.0" cy="513.0" r="12" fill="#3a3a3a"/><circle cx="785.0" cy="513.0" r="12" fill="#3a3a3a"/><circle cx="815.0" cy="513.0" r="12" fill="#3a3a3a"/><circle cx="845.0" cy="513.0" r="6" fill="#2f7d33"/><circle cx="875.0" cy="513.0" r="6" fill="#2f7d33"/><circle cx="905.0" cy="513.0" r="6" fill="#2f7d33"/><circle cx="935.0" cy="513.0" r="6" fill="#2f7d33"/><circle cx="65.0" cy="543.0" r="6" fill="#2f7d33"/><circle cx="95.0" cy="543.0" r="6" fill="#2f7d33"/><circle cx="125.0" cy="543.0" r="6" fill="#2f7d33"/><circle cx="155.0" cy="543.0" r="6" fill="#2f7d33"/><circle cx="185.0" cy="543.0" r="6" fill="#2f7d33"/><circle cx="215.0" cy="543.0" r="12" fill="#3a3a3a"/><circle cx="245.0" cy="543.0" r="12" fill="#3a3a3a"/><circle cx="275.0" cy="543.0" r="12" fill="#3a3a3a"/><circle cx="305.0" cy="543.0" r="12" fill="#3a3a3a"/><circle cx="335.0" cy="543.0" r="12" fill="#3a3a3a"/><circle cx="365.0" cy="543.0" r="12" fill="#3a3a3a"/><circle cx="395.0" cy="543.0" r="12" fill="#3a3a3a"/><circle cx="425.0" cy="543.0" r="12" fill="#3a3a3a"/><circle cx="455.0" cy="543.0" r="12" fill="#3a3a3a"/><circle cx="485.0" cy="543.0" r="12" fill="#3a3a3a"/><circle cx="515.0" cy="543.0" r="12" fill="#3a3a3a"/><circle cx="545.0" cy="543.0" r="12" fill="#3a3a3a"/><circle cx="575.0" cy="543.0" r="6" fill="#2f7d33"/><circle cx="605.0" cy="543.0" r="6" fill="#2f7d33"/><circle cx="635.0" cy="543.0" r="12" fill="#3a3a3a"/><circle cx="665.0" cy="543.0" r="12" fill="#3a3a3a"/><circle cx="695.0" cy="543.0" r="12" fill="#3a3a3a"/><circle cx="725.0" cy="543.0" r="12" fill="#3a3a3a"/><circle cx="755.0" cy="543.0" r="12" fill="#3a3a3a"/><circle cx="785.0" cy="543.0" r="12" fill="#3a3a3a"/><circle cx="815.0" cy="543.0" r="12" fill="#3a3a3a"/><circle cx="845.0" cy="543.0" r="6" fill="#2f7d33"/><circle cx="875.0" cy="543.0" r="6" fill="#2f7d33"/><circle cx="905.0" cy="543.0" r="6" fill="#2f7d33"/><circle cx="935.0" cy="543.0" r="6" fill="#2f7d33"/><circle cx="65.0" cy="573.0" r="6" fill="#2f7d33"/><circle cx="95.0" cy="573.0" r="6" fill="#2f7d33"/><circle cx="125.0" cy="573.0" r="6" fill="#2f7d33"/><circle cx="155.0" cy="573.0" r="6" fill="#2f7d33"/><circle cx="185.0" cy="573.0" r="6" fill="#2f7d33"/><circle cx="215.0" cy="573.0" r="6" fill="#2f7d33"/><circle cx="245.0" cy="573.0" r="12" fill="#3a3a3a"/><circle cx="275.0" cy="573.0" r="12" fill="#3a3a3a"/><circle cx="305.0" cy="573.0" r="12" fill="#3a3a3a"/><circle cx="335.0" cy="573.0" r="6" fill="#2f7d33"/><circle cx="365.0" cy="573.0" r="12" fill="#3a3a3a"/><circle cx="395.0" cy="573.0" r="12" fill="#3a3a3a"/><circle cx="425.0" cy="573.0" r="12" fill="#3a3a3a"/><circle cx="455.0" cy="573.0" r="12" fill="#3a3a3a"/><circle cx="485.0" cy="573.0" r="12" fill="#3a3a3a"/><circle cx="515.0" cy="573.0" r="12" fill="#3a3a3a"/><circle cx="545.0" cy="573.0" r="12" fill="#3a3a3a"/><circle cx="575.0" cy="573.0" r="6" fill="#2f7d33"/><circle cx="605.0" cy="573.0" r="6" fill="#2f7d33"/><circle cx="635.0" cy="573.0" r="12" fill="#3a3a3a"/><circle cx="665.0" cy="573.0" r="12" fill="#3a3a3a"/><circle cx="695.0" cy="573.0" r="12" fill="#3a3a3a"/><circle cx="725.0" cy="573.0" r="12" fill="#3a3a3a"/><circle cx="755.0" cy="573.0" r="12" fill="#3a3a3a"/><circle cx="785.0" cy="573.0" r="12" fill="#3a3a3a"/><circle cx="815.0" cy="573.0" r="12" fill="#3a3a3a"/><circle cx="845.0" cy="573.0" r="6" fill="#2f7d33"/><circle cx="875.0" cy="573.0" r="6" fill="#2f7d33"/><circle cx="905.0" cy="573.0" r="6" fill="#2f7d33"/><circle cx="935.0" cy="573.0" r="6" fill="#2f7d33"/><circle cx="65.0" cy="603.0" r="6" fill="#2f7d33"/><circle cx="95.0" cy="603.0" r="6" fill="#2f7d33"/><circle cx="125.0" cy="603.0" r="6" fill="#2f7d33"/><circle cx="155.0" cy="603.0" r="6" fill="#2f7d33"/><circle cx="185.0" cy="603.0" r="6" fill="#2f7d33"/><circle cx="215.0" cy="603.0" r="6" fill="#2f7d33"/><circle cx="245.0" cy="603.0" r="6" fill="#2f7d33"/><circle cx="275.0" cy="603.0" r="6" fill="#2f7d33"/><circle cx="305.0" cy="603.0" r="6" fill="#2f7d33"/><circle cx="335.0" cy="603.0" r="6" fill="#2f7d33"/><circle cx="365.0" cy="603.0" r="6" fill="#2f7d33"/><circle cx="395.0" cy="603.0" r="6" fill="#2f7d33"/><circle cx="425.0" cy="603.0" r="12" fill="#3a3a3a"/><circle cx="455.0" cy="603.0" r="12" fill="#3a3a3a"/><circle cx="485.0" cy="603.0" r="12" fill="#3a3a3a"/><circle cx="515.0" cy="603.0" r="6" fill="#2f7d33"/><circle cx="545.0" cy="603.0" r="6" fill="#2f7d33"/><circle cx="575.0" cy="603.0" r="6" fill="#2f7d33"/><circle cx="605.0" cy="603.0" r="6" fill="#2f7d33"/><circle cx="635.0" cy="603.0" r="6" fill="#2f7d33"/><circle cx="665.0" cy="603.0" r="12" fill="#3a3a3a"/><circle cx="695.0" cy="603.0" r="12" fill="#3a3a3a"/><circle cx="725.0" cy="603.0" r="12" fill="#3a3a3a"/><circle cx="755.0" cy="603.0" r="12" fill="#3a3a3a"/><circle cx="785.0" cy="603.0" r="12" fill="#3a3a3a"/><circle cx="815.0" cy="603.0" r="6" fill="#2f7d33"/><circle cx="845.0" cy="603.0" r="6" fill="#2f7d33"/><circle cx="875.0" cy="603.0" r="6" fill="#2f7d33"/><circle cx="905.0" cy="603.0" r="6" fill="#2f7d33"/><circle cx="935.0" cy="603.0" r="6" fill="#2f7d33"/><circle cx="65.0" cy="633.0" r="6" fill="#2f7d33"/><circle cx="95.0" cy="633.0" r="6" fill="#2f7d33"/><circle cx="125.0" cy="633.0" r="6" fill="#2f7d33"/><circle cx="155.0" cy="633.0" r="6" fill="#2f7d33"/><circle cx="185.0" cy="633.0" r="6" fill="#2f7d33"/><circle cx="215.0" cy="633.0" r="6" fill="#2f7d33"/><circle cx="245.0" cy="633.0" r="6" fill="#2f7d33"/><circle cx="275.0" cy="633.0" r="6" fill="#2f7d33"/><circle cx="305.0" cy="633.0" r="6" fill="#2f7d33"/><circle cx="335.0" cy="633.0" r="6" fill="#2f7d33"/><circle cx="365.0" cy="633.0" r="6" fill="#2f7d33"/><circle cx="395.0" cy="633.0" r="6" fill="#2f7d33"/><circle cx="425.0" cy="633.0" r="6" fill="#2f7d33"/><circle cx="455.0" cy="633.0" r="6" fill="#2f7d33"/><circle cx="485.0" cy="633.0" r="6" fill="#2f7d33"/><circle cx="515.0" cy="633.0" r="6" fill="#2f7d33"/><circle cx="545.0" cy="633.0" r="6" fill="#2f7d33"/><circle cx="575.0" cy="633.0" r="6" fill="#2f7d33"/><circle cx="605.0" cy="633.0" r="6" fill="#2f7d33"/><circle cx="635.0" cy="633.0" r="6" fill="#2f7d33"/><circle cx="665.0" cy="633.0" r="6" fill="#2f7d33"/><circle cx="695.0" cy="633.0" r="6" fill="#2f7d33"/><circle cx="725.0" cy="633.0" r="12" fill="#3a3a3a"/><circle cx="755.0" cy="633.0" r="6" fill="#2f7d33"/><circle cx="785.0" cy="633.0" r="6" fill="#2f7d33"/><circle cx="815.0" cy="633.0" r="6" fill="#2f7d33"/><circle cx="845.0" cy="633.0" r="6" fill="#2f7d33"/><circle cx="875.0" cy="633.0" r="6" fill="#2f7d33"/><circle cx="905.0" cy="633.0" r="6" fill="#2f7d33"/><circle cx="935.0" cy="633.0" r="6" fill="#2f7d33"/><circle cx="65.0" cy="663.0" r="6" fill="#2f7d33"/><circle cx="95.0" cy="663.0" r="6" fill="#2f7d33"/><circle cx="125.0" cy="663.0" r="6" fill="#2f7d33"/><circle cx="155.0" cy="663.0" r="6" fill="#2f7d33"/><circle cx="185.0" cy="663.0" r="6" fill="#2f7d33"/><circle cx="215.0" cy="663.0" r="6" fill="#2f7d33"/><circle cx="245.0" cy="663.0" r="6" fill="#2f7d33"/><circle cx="275.0" cy="663.0" r="6" fill="#2f7d33"/><circle cx="305.0" cy="663.0" r="6" fill="#2f7d33"/><circle cx="335.0" cy="663.0" r="6" fill="#2f7d33"/><circle cx="365.0" cy="663.0" r="6" fill="#2f7d33"/><circle cx="395.0" cy="663.0" r="6" fill="#2f7d33"/><circle cx="425.0" cy="663.0" r="6" fill="#2f7d33"/><circle cx="455.0" cy="663.0" r="6" fill="#2f7d33"/><circle cx="485.0" cy="663.0" r="6" fill="#2f7d33"/><circle cx="515.0" cy="663.0" r="6" fill="#2f7d33"/><circle cx="545.0" cy="663.0" r="6" fill="#2f7d33"/><circle cx="575.0" cy="663.0" r="6" fill="#2f7d33"/><circle cx="605.0" cy="663.0" r="6" fill="#2f7d33"/><circle cx="635.0" cy="663.0" r="6" fill="#2f7d33"/><circle cx="665.0" cy="663.0" r="6" fill="#2f7d33"/><circle cx="695.0" cy="663.0" r="6" fill="#2f7d33"/><circle cx="725.0" cy="663.0" r="6" fill="#2f7d33"/><circle cx="755.0" cy="663.0" r="6" fill="#2f7d33"/><circle cx="785.0" cy="663.0" r="6" fill="#2f7d33"/><circle cx="815.0" cy="663.0" r="6" fill="#2f7d33"/><circle cx="845.0" cy="663.0" r="6" fill="#2f7d33"/><circle cx="875.0" cy="663.0" r="6" fill="#2f7d33"/><circle cx="905.0" cy="663.0" r="6" fill="#2f7d33"/><circle cx="935.0" cy="663.0" r="6" fill="#2f7d33"/><circle cx="485.0" cy="363.0" r="12.5" fill="white" stroke="#962858" stroke-width="3.5"/><circle cx="485.0" cy="363.0" r="3" fill="#962858"/><circle cx="335.0" cy="333.0" r="12.5" fill="white" stroke="#D32333" stroke-width="3.5"/><circle cx="335.0" cy="333.0" r="3" fill="#D32333"/><circle cx="665.0" cy="393.0" r="12.5" fill="white" stroke="#D32333" stroke-width="3.5"/><circle cx="665.0" cy="393.0" r="3" fill="#D32333"/><circle cx="455.0" cy="483.0" r="12.5" fill="white" stroke="#D32333" stroke-width="3.5"/><circle cx="455.0" cy="483.0" r="3" fill="#D32333"/><circle cx="725.0" cy="513.0" r="12.5" fill="white" stroke="#D32333" stroke-width="3.5"/><circle cx="725.0" cy="513.0" r="3" fill="#D32333"/><circle cx="60" cy="713" r="6" fill="#2f7d33"/><text x="78" y="718" fill="#3a3a3a" font-size="16">nature</text><circle cx="164" cy="713" r="11" fill="#3a3a3a"/><text x="182" y="718" fill="#3a3a3a" font-size="16">new built</text><circle cx="295" cy="713" r="11" fill="#7d6240"/><text x="313" y="718" fill="#3a3a3a" font-size="16">existing built</text><circle cx="471.0" cy="713.0" r="9" fill="white" stroke="#D32333" stroke-width="3.5"/><circle cx="471.0" cy="713.0" r="3" fill="#D32333"/><text x="489" y="718" fill="#3a3a3a" font-size="16">new centre</text><circle cx="611.0" cy="713.0" r="9" fill="white" stroke="#962858" stroke-width="3.5"/><circle cx="611.0" cy="713.0" r="3" fill="#962858"/><text x="629" y="718" fill="#3a3a3a" font-size="16">existing centre</text></svg>