<?xml version="1.0" encoding="UTF-8"?><svg xmlns="http://www.w3.org/2000/svg" viewBox="0 0 1360.09 675.65"><defs><style>.cls-1,.cls-2{font-family:ArialMT, Arial;}.cls-3{font-size:12px;}.cls-3,.cls-4{font-family:Arial-Black, 'Arial Black';font-weight:800;}.cls-3,.cls-4,.cls-5,.cls-6,.cls-7{fill:#e94c54;}.cls-8{stroke:#0071bc;stroke-width:3px;}.cls-8,.cls-9{fill:none;stroke-miterlimit:10;}.cls-4,.cls-10{font-size:18px;}.cls-11{fill:#009245;}.cls-12{fill:#0071bc;}.cls-13,.cls-2{fill:#333;}.cls-6,.cls-7,.cls-14{font-family:Arial-BoldMT, Arial;font-weight:700;}.cls-7{font-size:14px;}.cls-2{font-size:21px;}.cls-9{stroke:#e94c54;stroke-width:.25px;}</style></defs><g id="grid"><text class="cls-4" transform="translate(19.57 46.48)"><tspan x="0" y="0">1</tspan></text><text class="cls-4" transform="translate(83.43 663.55)"><tspan x="0" y="0">1</tspan></text><text class="cls-4" transform="translate(133.52 663.55)"><tspan x="0" y="0">2</tspan></text><text class="cls-4" transform="translate(183.61 663.55)"><tspan x="0" y="0">3</tspan></text><text class="cls-4" transform="translate(233.7 663.55)"><tspan x="0" y="0">4</tspan></text><text class="cls-4" transform="translate(283.8 663.55)"><tspan x="0" y="0">5</tspan></text><text class="cls-4" transform="translate(333.89 663.55)"><tspan x="0" y="0">6</tspan></text><text class="cls-4" transform="translate(383.98 663.55)"><tspan x="0" y="0">7</tspan></text><text class="cls-4" transform="translate(434.07 663.55)"><tspan x="0" y="0">8</tspan></text><text class="cls-4" transform="translate(484.16 663.55)"><tspan x="0" y="0">9</tspan></text><text class="cls-4" transform="translate(528.25 663.55)"><tspan x="0" y="0">10</tspan></text><text class="cls-4" transform="translate(578.34 663.55)"><tspan x="0" y="0">11</tspan></text><text class="cls-4" transform="translate(628.43 663.55)"><tspan x="0" y="0">12</tspan></text><text class="cls-4" transform="translate(678.52 663.55)"><tspan x="0" y="0">13</tspan></text><text class="cls-4" transform="translate(728.61 663.55)"><tspan x="0" y="0">14</tspan></text><text class="cls-4" transform="translate(778.7 663.55)"><tspan x="0" y="0">15</tspan></text><text class="cls-4" transform="translate(828.79 663.55)"><tspan x="0" y="0">16</tspan></text><text class="cls-7" transform="translate(955.13 36.98)"><tspan x="0" y="0">context parameters (hypothetical):</tspan><tspan x="0" y="19.8">100 x 100m grid</tspan><tspan x="0" y="39.6">600m walking distance threshold</tspan><tspan x="0" y="59.4">400m green span</tspan></text><text class="cls-2" transform="translate(1022.54 566.71)"><tspan x="0" y="0">centrality</tspan></text><text class="cls-2" transform="translate(1022.54 514.42)"><tspan x="0" y="0">built cell</tspan></text><text class="cls-2" transform="translate(1022.54 467.78)"><tspan x="0" y="0">green periphery</tspan></text><text class="cls-2" transform="translate(1022.54 620.78)"><tspan x="0" y="0">candidate location</tspan></text><text class="cls-4" transform="translate(19.57 97.02)"><tspan x="0" y="0">2</tspan></text><text class="cls-4" transform="translate(19.57 147.57)"><tspan x="0" y="0">3</tspan></text><text class="cls-4" transform="translate(19.57 198.12)"><tspan x="0" y="0">4</tspan></text><text class="cls-4" transform="translate(19.57 248.66)"><tspan x="0" y="0">5</tspan></text><text class="cls-4" transform="translate(19.57 299.21)"><tspan x="0" y="0">6</tspan></text><text class="cls-4" transform="translate(19.57 349.76)"><tspan x="0" y="0">7</tspan></text><text class="cls-4" transform="translate(19.57 400.3)"><tspan x="0" y="0">8</tspan></text><text class="cls-4" transform="translate(19.57 450.85)"><tspan x="0" y="0">9</tspan></text><text class="cls-4" transform="translate(13.57 501.39)"><tspan x="0" y="0">10</tspan></text><text class="cls-4" transform="translate(13.57 551.94)"><tspan x="0" y="0">11</tspan></text><text class="cls-4" transform="translate(13.57 602.49)"><tspan x="0" y="0">12</tspan></text><line class="cls-9" x1="58.1" y1="41.48" x2="894.68" y2="41.48"/><line class="cls-9" x1="89.43" y1="621.21" x2="89.43" y2="19.42"/><line class="cls-9" x1="139.53" y1="621.21" x2="139.53" y2="19.42"/><line class="cls-9" x1="189.62" y1="621.21" x2="189.62" y2="19.42"/><line class="cls-9" x1="239.71" y1="621.21" x2="239.71" y2="19.42"/><line class="cls-9" x1="289.8" y1="621.21" x2="289.8" y2="19.42"/><line class="cls-9" x1="339.89" y1="621.21" x2="339.89" y2="19.42"/><line class="cls-9" x1="389.98" y1="621.21" x2="389.98" y2="19.42"/><line class="cls-9" x1="440.07" y1="621.21" x2="440.07" y2="19.42"/><line class="cls-9" x1="490.16" y1="621.21" x2="490.16" y2="19.42"/><line class="cls-9" x1="540.25" y1="621.21" x2="540.25" y2="19.42"/><line class="cls-9" x1="590.35" y1="621.21" x2="590.35" y2="19.42"/><line class="cls-9" x1="640.44" y1="621.21" x2="640.44" y2="19.42"/><line class="cls-9" x1="690.53" y1="621.21" x2="690.53" y2="19.42"/><line class="cls-9" x1="740.62" y1="621.21" x2="740.62" y2="19.42"/><line class="cls-9" x1="790.71" y1="621.21" x2="790.71" y2="19.42"/><line class="cls-9" x1="840.8" y1="621.21" x2="840.8" y2="19.42"/><line class="cls-9" x1="58.1" y1="92.02" x2="894.68" y2="92.02"/><line class="cls-9" x1="58.1" y1="142.57" x2="894.68" y2="142.57"/><line class="cls-9" x1="58.1" y1="193.12" x2="894.68" y2="193.12"/><line class="cls-9" x1="58.1" y1="243.66" x2="894.68" y2="243.66"/><line class="cls-9" x1="58.1" y1="294.21" x2="894.68" y2="294.21"/><line class="cls-9" x1="58.1" y1="344.75" x2="894.68" y2="344.75"/><line class="cls-9" x1="58.1" y1="395.3" x2="894.68" y2="395.3"/><line class="cls-9" x1="58.1" y1="445.85" x2="894.68" y2="445.85"/><line class="cls-9" x1="58.1" y1="496.39" x2="894.68" y2="496.39"/><line class="cls-9" x1="58.1" y1="546.94" x2="894.68" y2="546.94"/><line class="cls-9" x1="58.1" y1="597.49" x2="894.68" y2="597.49"/><path class="cls-12" d="m987.09,603.73c7.44,0,13.49,6.05,13.49,13.49s-6.05,13.49-13.49,13.49-13.49-6.05-13.49-13.49,6.05-13.49,13.49-13.49m0-3c-9.1,0-16.49,7.38-16.49,16.49s7.38,16.49,16.49,16.49,16.49-7.38,16.49-16.49-7.38-16.49-16.49-16.49h0Z"/><line class="cls-8" x1="969.26" y1="599.39" x2="975.44" y2="605.56"/><line class="cls-8" x1="998.74" y1="628.87" x2="1004.92" y2="635.04"/><line class="cls-8" x1="998.74" y1="605.65" x2="1004.92" y2="599.47"/><line class="cls-8" x1="969.35" y1="635.04" x2="975.53" y2="628.87"/></g><g id="itx"><circle class="cls-11" cx="89.43" cy="142.57" r="7.5"/><circle class="cls-11" cx="139.53" cy="193.12" r="7.5"/><circle class="cls-11" cx="139.53" cy="92.02" r="7.5"/><circle class="cls-11" cx="189.62" cy="92.02" r="7.5"/><circle class="cls-11" cx="239.71" cy="92.02" r="7.5"/><circle class="cls-11" cx="289.8" cy="142.57" r="7.5"/><circle class="cls-11" cx="339.89" cy="92.02" r="7.5"/><circle class="cls-11" cx="389.98" cy="41.48" r="7.5"/><circle class="cls-11" cx="440.07" cy="92.02" r="7.5"/><circle class="cls-11" cx="440.07" cy="142.57" r="7.5"/><circle class="cls-11" cx="440.07" cy="193.12" r="7.5"/><circle class="cls-11" cx="89.43" cy="243.66" r="7.5"/><circle class="cls-11" cx="89.43" cy="294.21" r="7.5"/><circle class="cls-11" cx="89.43" cy="344.75" r="7.5"/><circle class="cls-11" cx="840.8" cy="344.75" r="7.5"/><circle class="cls-11" cx="139.53" cy="395.3" r="7.5"/><circle class="cls-11" cx="139.53" cy="445.85" r="7.5"/><circle class="cls-11" cx="389.98" cy="597.49" r="7.5"/><circle class="cls-11" cx="440.07" cy="597.49" r="7.5"/><circle class="cls-11" cx="490.16" cy="546.94" r="7.5"/><circle class="cls-11" cx="490.16" cy="294.21" r="7.5"/><circle class="cls-11" cx="540.25" cy="496.39" r="7.5"/><circle class="cls-11" cx="540.25" cy="294.21" r="7.5"/><circle class="cls-11" cx="590.35" cy="496.39" r="7.5"/><circle class="cls-11" cx="590.35" cy="294.21" r="7.5"/><circle class="cls-11" cx="640.44" cy="294.21" r="7.5"/><circle class="cls-11" cx="640.44" cy="496.39" r="7.5"/><circle class="cls-11" cx="690.53" cy="546.94" r="7.5"/><circle class="cls-11" cx="690.53" cy="193.12" r="7.5"/><circle class="cls-11" cx="740.62" cy="496.39" r="7.5"/><circle class="cls-11" cx="740.62" cy="243.66" r="7.5"/><circle class="cls-11" cx="640.44" cy="243.66" r="7.5"/><circle class="cls-11" cx="790.71" cy="445.85" r="7.5"/><circle class="cls-11" cx="790.71" cy="294.21" r="7.5"/><circle class="cls-11" cx="840.8" cy="395.3" r="7.5"/><circle class="cls-11" cx="987.09" cy="461.25" r="7.5"/><circle class="cls-11" cx="239.71" cy="496.39" r="7.5"/><circle class="cls-11" cx="189.62" cy="496.39" r="7.5"/><circle class="cls-11" cx="339.89" cy="546.94" r="7.5"/><circle class="cls-11" cx="289.8" cy="546.94" r="7.5"/></g><g id="built"><circle class="cls-13" cx="189.62" cy="142.57" r="12.8"/><circle class="cls-13" cx="239.71" cy="142.57" r="12.8"/><circle class="cls-13" cx="339.89" cy="142.57" r="12.8"/><circle class="cls-13" cx="389.98" cy="142.57" r="12.8"/><circle class="cls-13" cx="440.07" cy="344.75" r="12.8"/><circle class="cls-13" cx="440.07" cy="293.88" r="12.8"/><circle class="cls-13" cx="440.07" cy="395.3" r="12.8"/><circle class="cls-13" cx="189.62" cy="445.85" r="12.8"/><circle class="cls-13" cx="239.71" cy="445.85" r="12.8"/><circle class="cls-13" cx="289.8" cy="445.85" r="12.8"/><circle class="cls-13" cx="289.8" cy="496.39" r="12.8"/><circle class="cls-13" cx="339.89" cy="496.39" r="12.8"/><circle class="cls-13" cx="389.98" cy="496.39" r="12.8"/><circle class="cls-13" cx="440.07" cy="496.39" r="12.8"/><circle class="cls-13" cx="389.98" cy="546.94" r="12.8"/><circle class="cls-13" cx="440.07" cy="546.94" r="12.8"/><circle class="cls-13" cx="490.16" cy="496.39" r="12.8"/><circle class="cls-13" cx="339.89" cy="445.85" r="12.8"/><circle class="cls-13" cx="389.98" cy="445.85" r="12.8"/><circle class="cls-13" cx="440.07" cy="445.85" r="12.8"/><circle class="cls-13" cx="490.16" cy="344.75" r="12.8"/><circle class="cls-13" cx="490.16" cy="395.3" r="12.8"/><circle class="cls-13" cx="490.16" cy="445.85" r="12.8"/><circle class="cls-13" cx="540.25" cy="344.75" r="12.8"/><circle class="cls-13" cx="540.25" cy="395.3" r="12.8"/><circle class="cls-13" cx="540.25" cy="445.85" r="12.8"/><circle class="cls-13" cx="590.35" cy="445.85" r="12.8"/><circle class="cls-13" cx="590.35" cy="344.75" r="12.8"/><circle class="cls-13" cx="640.44" cy="395.3" r="12.8"/><circle class="cls-13" cx="690.53" cy="395.3" r="12.8"/><circle class="cls-13" cx="640.44" cy="445.85" r="12.8"/><circle class="cls-13" cx="690.53" cy="344.75" r="12.8"/><circle class="cls-13" cx="640.44" cy="344.75" r="12.8"/><circle class="cls-13" cx="690.53" cy="294.21" r="12.8"/><circle class="cls-13" cx="690.53" cy="445.85" r="12.8"/><circle class="cls-13" cx="690.53" cy="496.39" r="12.8"/><circle class="cls-13" cx="740.62" cy="344.75" r="12.8"/><circle class="cls-13" cx="740.62" cy="294.21" r="12.8"/><circle class="cls-13" cx="690.53" cy="243.66" r="12.8"/><circle class="cls-13" cx="740.62" cy="395.3" r="12.8"/><circle class="cls-13" cx="790.71" cy="344.75" r="12.8"/><circle class="cls-13" cx="790.71" cy="395.3" r="12.8"/><circle class="cls-13" cx="987.09" cy="508.58" r="12.8"/><circle class="cls-13" cx="740.62" cy="445.85" r="12.8"/><circle class="cls-13" cx="339.89" cy="294.21" r="12.8"/><circle class="cls-13" cx="389.98" cy="294.21" r="12.8"/><circle class="cls-13" cx="139.53" cy="344.75" r="12.8"/><circle class="cls-13" cx="189.62" cy="344.75" r="12.8"/><circle class="cls-13" cx="239.71" cy="344.75" r="12.8"/><circle class="cls-13" cx="289.8" cy="344.75" r="12.8"/><circle class="cls-13" cx="339.89" cy="344.75" r="12.8"/><circle class="cls-13" cx="389.98" cy="344.75" r="12.8"/><circle class="cls-13" cx="189.62" cy="395.3" r="12.8"/><circle class="cls-13" cx="239.71" cy="395.3" r="12.8"/><circle class="cls-13" cx="289.8" cy="395.3" r="12.8"/><circle class="cls-13" cx="339.89" cy="395.3" r="12.8"/><circle class="cls-13" cx="389.98" cy="395.3" r="12.8"/><circle class="cls-13" cx="139.53" cy="142.57" r="12.8"/><circle class="cls-13" cx="389.98" cy="92.02" r="12.8"/><circle class="cls-13" cx="189.62" cy="193.12" r="12.8"/><circle class="cls-13" cx="239.71" cy="193.12" r="12.8"/><circle class="cls-13" cx="289.8" cy="193.12" r="12.8"/><circle class="cls-13" cx="339.89" cy="193.12" r="12.8"/><circle class="cls-13" cx="389.98" cy="193.12" r="12.8"/><circle class="cls-13" cx="139.53" cy="243.66" r="12.8"/><circle class="cls-13" cx="189.62" cy="243.66" r="12.8"/><circle class="cls-13" cx="239.71" cy="243.66" r="12.8"/><circle class="cls-13" cx="289.8" cy="243.66" r="12.8"/><circle class="cls-13" cx="339.89" cy="243.66" r="12.8"/><circle class="cls-13" cx="389.98" cy="243.66" r="12.8"/><circle class="cls-13" cx="139.53" cy="294.21" r="12.8"/><circle class="cls-13" cx="189.62" cy="294.21" r="12.8"/><circle class="cls-13" cx="239.71" cy="294.21" r="12.8"/></g><g id="centres"><path class="cls-5" d="m289.8,285.05c5.05,0,9.16,4.11,9.16,9.15s-4.11,9.15-9.16,9.15-9.15-4.11-9.15-9.15,4.11-9.15,9.15-9.15m0-9c-10.03,0-18.15,8.13-18.15,18.15s8.13,18.15,18.15,18.15,18.16-8.13,18.16-18.15-8.13-18.15-18.16-18.15h0Z"/><path class="cls-5" d="m590.35,386.15c5.05,0,9.15,4.11,9.15,9.15s-4.11,9.15-9.15,9.15-9.16-4.11-9.16-9.15,4.11-9.15,9.16-9.15m0-9c-10.03,0-18.16,8.13-18.16,18.15s8.13,18.15,18.16,18.15,18.15-8.13,18.15-18.15-8.13-18.15-18.15-18.15h0Z"/><path class="cls-5" d="m987.09,551.68c5.05,0,9.16,4.11,9.16,9.15s-4.11,9.16-9.16,9.16-9.15-4.11-9.15-9.16,4.11-9.15,9.15-9.15m0-9c-10.03,0-18.15,8.13-18.15,18.15s8.13,18.16,18.15,18.16,18.16-8.13,18.16-18.16-8.13-18.15-18.16-18.15h0Z"/></g><g id="Step_1b"><text class="cls-10" transform="translate(955.72 139.31)"><tspan class="cls-14"><tspan x="0" y="0">Step 1:</tspan></tspan><tspan class="cls-14"><tspan x="0" y="27.6">Location (b):</tspan></tspan><tspan class="cls-6"><tspan x="0" y="55.2">y=2, x=12</tspan></tspan><tspan class="cls-1"><tspan x="0" y="110.4">Is the cell already built?</tspan></tspan><tspan class="cls-1" x="0" y="138">If </tspan><tspan class="cls-14" x="15" y="138">no</tspan><tspan class="cls-1" x="36.99" y="138">: continue.</tspan><tspan class="cls-1"><tspan x="0" y="193.2">Is the cell on the green periphery?</tspan></tspan><tspan class="cls-1" x="0" y="220.8">If </tspan><tspan class="cls-14" x="15" y="220.8">no</tspan><tspan class="cls-1" x="36.99" y="220.8">: bail.</tspan></text><text class="cls-3" transform="translate(659.31 84.52)"><tspan x="0" y="0">2,12</tspan></text><path class="cls-12" d="m639.39,78.54c7.44,0,13.49,6.05,13.49,13.49s-6.05,13.49-13.49,13.49-13.49-6.05-13.49-13.49,6.05-13.49,13.49-13.49m0-3c-9.1,0-16.49,7.38-16.49,16.49s7.38,16.49,16.49,16.49,16.49-7.38,16.49-16.49-7.38-16.49-16.49-16.49h0Z"/><line class="cls-8" x1="621.56" y1="74.19" x2="627.74" y2="80.37"/><line class="cls-8" x1="651.04" y1="103.67" x2="657.22" y2="109.85"/><line class="cls-8" x1="651.04" y1="80.46" x2="657.22" y2="74.28"/><line class="cls-8" x1="621.65" y1="109.85" x2="627.83" y2="103.67"/><circle class="cls-11" cx="440.07" cy="243.66" r="7.5"/></g></svg>