<?xml version="1.0" encoding="UTF-8"?><svg xmlns="http://www.w3.org/2000/svg" viewBox="0 0 1360 720" font-family="Arial, sans-serif"><line x1="92.0" y1="16.0" x2="92.0" y2="626.0" stroke="#D32333" stroke-width="0.5" opacity="0.3"/><line x1="142.0" y1="16.0" x2="142.0" y2="626.0" stroke="#D32333" stroke-width="0.5" opacity="0.3"/><line x1="192.0" y1="16.0" x2="192.0" y2="626.0" stroke="#D32333" stroke-width="0.5" opacity="0.3"/><line x1="242.0" y1="16.0" x2="242.0" y2="626.0" stroke="#D32333" stroke-width="0.5" opacity="0.3"/><line x1="292.0" y1="16.0" x2="292.0" y2="626.0" stroke="#D32333" stroke-width="0.5" opacity="0.3"/><line x1="342.0" y1="16.0" x2="342.0" y2="626.0" stroke="#D32333" stroke-width="0.5" opacity="0.3"/><line x1="392.0" y1="16.0" x2="392.0" y2="626.0" stroke="#D32333" stroke-width="0.5" opacity="0.3"/><line x1="442.0" y1="16.0" x2="442.0" y2="626.0" stroke="#D32333" stroke-width="0.5" opacity="0.3"/><line x1="492.0" y1="16.0" x2="492.0" y2="626.0" stroke="#D32333" stroke-width="0.5" opacity="0.3"/><line x1="542.0" y1="16.0" x2="542.0" y2="626.0" stroke="#D32333" stroke-width="0.5" opacity="0.3"/><line x1="592.0" y1="16.0" x2="592.0" y2="626.0" stroke="#D32333" stroke-width="0.5" opacity="0.3"/><line x1="642.0" y1="16.0" x2="642.0" y2="626.0" stroke="#D32333" stroke-width="0.5" opacity="0.3"/><line x1="692.0" y1="16.0" x2="692.0" y2="626.0" stroke="#D32333" stroke-width="0.5" opacity="0.3"/><line x1="742.0" y1="16.0" x2="742.0" y2="626.0" stroke="#D32333" stroke-width="0.5" opacity="0.3"/><line x1="792.0" y1="16.0" x2="792.0" y2="626.0" stroke="#D32333" stroke-width="0.5" opacity="0.3"/><line x1="842.0" y1="16.0" x2="842.0" y2="626.0" stroke="#D32333" stroke-width="0.5" opacity="0.3"/><line x1="62.0" y1="46.0" x2="872.0" y2="46.0" stroke="#D32333" stroke-width="0.5" opacity="0.3"/><line x1="62.0" y1="96.0" x2="872.0" y2="96.0" stroke="#D32333" stroke-width="0.5" opacity="0.3"/><line x1="62.0" y1="146.0" x2="872.0" y2="146.0" stroke="#D32333" stroke-width="0.5" opacity="0.3"/><line x1="62.0" y1="196.0" x2="872.0" y2="196.0" stroke="#D32333" stroke-width="0.5" opacity="0.3"/><line x1="62.0" y1="246.0" x2="872.0" y2="246.0" stroke="#D32333" stroke-width="0.5" opacity="0.3"/><line x1="62.0" y1="296.0" x2="872.0" y2="296.0" stroke="#D32333" stroke-width="0.5" opacity="0.3"/><line x1="62.0" y1="346.0" x2="872.0" y2="346.0" stroke="#D32333" stroke-width="0.5" opacity="0.3"/><line x1="62.0" y1="396.0" x2="872.0" y2="396.0" stroke="#D32333" stroke-width="0.5" opacity="0.3"/><line x1="62.0" y1="446.0" x2="872.0" y2="446.0" stroke="#D32333" stroke-width="0.5" opacity="0.3"/><line x1="62.0" y1="496.0" x2="872.0" y2="496.0" stroke="#D32333" stroke-width="0.5" opacity="0.3"/><line x1="62.0" y1="546.0" x2="872.0" y2="546.0" stroke="#D32333" stroke-width="0.5" opacity="0.3"/><line x1="62.0" y1="596.0" x2="872.0" y2="596.0" stroke="#D32333" stroke-width="0.5" opacity="0.3"/><text x="92.0" y="654.0" fill="#D32333" font-weight="800" font-size="18" text-anchor="middle">1</text><text x="142.0" y="654.0" fill="#D32333" font-weight="800" font-size="18" text-anchor="middle">2</text><text x="192.0" y="654.0" fill="#D32333" font-weight="800" font-size="18" text-anchor="middle">3</text><text x="242.0" y="654.0" fill="#D32333" font-weight="800" font-size="18" text-anchor="middle">4</text><text x="292.0" y="654.0" fill="#D32333" font-weight="800" font-size="18" text-anchor="middle">5</text><text x="342.0" y="654.0" fill="#D32333" font-weight="800" font-size="18" text-anchor="middle">6</text><text x="392.0" y="654.0" fill="#D32333" font-weight="800" font-size="18" text-anchor="middle">7</text><text x="442.0" y="654.0" fill="#D32333" font-weight="800" font-size="18" text-anchor="middle">8</text><text x="492.0" y="654.0" fill="#D32333" font-weight="800" font-size="18" text-anchor="middle">9</text><text x="542.0" y="654.0" fill="#D32333" font-weight="800" font-size="18" text-anchor="middle">10</text><text x="592.0" y="654.0" fill="#D32333" font-weight="800" font-size="18" text-anchor="middle">11</text><text x="642.0" y="654.0" fill="#D32333" font-weight="800" font-size="18" text-anchor="middle">12</text><text x="692.0" y="654.0" fill="#D32333" font-weight="800" font-size="18" text-anchor="middle">13</text><text x="742.0" y="654.0" fill="#D32333" font-weight="800" font-size="18" text-anchor="middle">14</text><text x="792.0" y="654.0" fill="#D32333" font-weight="800" font-size="18" text-anchor="middle">15</text><text x="842.0" y="654.0" fill="#D32333" font-weight="800" font-size="18" text-anchor="middle">16</text><text x="40.0" y="52.0" fill="#D32333" font-weight="800" font-size="18" text-anchor="middle">1</text><text x="40.0" y="102.0" fill="#D32333" font-weight="800" font-size="18" text-anchor="middle">2</text><text x="40.0" y="152.0" fill="#D32333" font-weight="800" font-size="18" text-anchor="middle">3</text><text x="40.0" y="202.0" fill="#D32333" font-weight="800" font-size="18" text-anchor="middle">4</text><text x="40.0" y="252.0" fill="#D32333" font-weight="800" font-size="18" text-anchor="middle">5</text><text x="40.0" y="302.0" fill="#D32333" font-weight="800" font-size="18" text-anchor="middle">6</text><text x="40.0" y="352.0" fill="#D32333" font-weight="800" font-size="18" text-anchor="middle">7</text><text x="40.0" y="402.0" fill="#D32333" font-weight="800" font-size="18" text-anchor="middle">8</text><text x="40.0" y="452.0" fill="#D32333" font-weight="800" font-size="18" text-anchor="middle">9</text><text x="40.0" y="502.0" fill="#D32333" font-weight="800" font-size="18" text-anchor="middle">10</text><text x="40.0" y="552.0" fill="#D32333" font-weight="800" font-size="18" text-anchor="middle">11</text><text x="40.0" y="602.0" fill="#D32333" font-weight="800" font-size="18" text-anchor="middle">12</text><circle cx="142.0" cy="96.0" r="7.5" fill="#2f7d33"/><circle cx="192.0" cy="96.0" r="7.5" fill="#2f7d33"/><circle cx="242.0" cy="96.0" r="7.5" fill="#2f7d33"/><circle cx="292.0" cy="96.0" r="7.5" fill="#2f7d33"/><circle cx="342.0" cy="96.0" r="7.5" fill="#2f7d33"/><circle cx="392.0" cy="96.0" r="7.5" fill="#2f7d33"/><circle cx="442.0" cy="96.0" r="7.5" fill="#2f7d33"/><circle cx="492.0" cy="96.0" r="7.5" fill="#2f7d33"/><circle cx="542.0" cy="96.0" r="7.5" fill="#2f7d33"/><circle cx="592.0" cy="96.0" r="7.5" fill="#2f7d33"/><circle cx="92.0" cy="146.0" r="7.5" fill="#2f7d33"/><circle cx="142.0" cy="146.0" r="7.5" fill="#2f7d33"/><circle cx="192.0" cy="146.0" r="12.8" fill="#3a3a3a"/><circle cx="242.0" cy="146.0" r="12.8" fill="#3a3a3a"/><circle cx="292.0" cy="146.0" r="12.8" fill="#3a3a3a"/><circle cx="342.0" cy="146.0" r="12.8" fill="#3a3a3a"/><circle cx="392.0" cy="146.0" r="12.8" fill="#3a3a3a"/><circle cx="442.0" cy="146.0" r="12.8" fill="#3a3a3a"/><circle cx="492.0" cy="146.0" r="12.8" fill="#3a3a3a"/><circle cx="542.0" cy="146.0" r="12.8" fill="#3a3a3a"/><circle cx="592.0" cy="146.0" r="7.5" fill="#2f7d33"/><circle cx="642.0" cy="146.0" r="7.5" fill="#2f7d33"/><circle cx="92.0" cy="196.0" r="7.5" fill="#2f7d33"/><circle cx="142.0" cy="196.0" r="12.8" fill="#3a3a3a"/><circle cx="192.0" cy="196.0" r="12.8" fill="#3a3a3a"/><circle cx="242.0" cy="196.0" r="12.8" fill="#3a3a3a"/><circle cx="292.0" cy="196.0" r="12.8" fill="#3a3a3a"/><circle cx="342.0" cy="196.0" r="12.8" fill="#3a3a3a"/><circle cx="392.0" cy="196.0" r="12.8" fill="#3a3a3a"/><circle cx="442.0" cy="196.0" r="12.8" fill="#3a3a3a"/><circle cx="492.0" cy="196.0" r="12.8" fill="#3a3a3a"/><circle cx="542.0" cy="196.0" r="12.8" fill="#3a3a3a"/><circle cx="592.0" cy="196.0" r="12.8" fill="#3a3a3a"/><circle cx="642.0" cy="196.0" r="7.5" fill="#2f7d33"/><circle cx="692.0" cy="196.0" r="7.5" fill="#2f7d33"/><circle cx="742.0" cy="196.0" r="7.5" fill="#2f7d33"/><circle cx="92.0" cy="246.0" r="7.5" fill="#2f7d33"/><circle cx="142.0" cy="246.0" r="12.8" fill="#3a3a3a"/><circle cx="192.0" cy="246.0" r="12.8" fill="#3a3a3a"/><circle cx="242.0" cy="246.0" r="12.8" fill="#3a3a3a"/><circle cx="292.0" cy="246.0" r="12.8" fill="#3a3a3a"/><circle cx="342.0" cy="246.0" r="12.8" fill="#3a3a3a"/><circle cx="392.0" cy="246.0" r="12.8" fill="#3a3a3a"/><circle cx="442.0" cy="246.0" r="12.8" fill="#3a3a3a"/><circle cx="492.0" cy="246.0" r="12.8" fill="#3a3a3a"/><circle cx="542.0" cy="246.0" r="12.8" fill="#3a3a3a"/><circle cx="592.0" cy="246.0" r="12.8" fill="#3a3a3a"/><circle cx="642.0" cy="246.0" r="12.8" fill="#3a3a3a"/><circle cx="692.0" cy="246.0" r="12.8" fill="#3a3a3a"/><circle cx="742.0" cy="246.0" r="7.5" fill="#2f7d33"/><circle cx="792.0" cy="246.0" r="7.5" fill="#2f7d33"/><circle cx="92.0" cy="296.0" r="7.5" fill="#2f7d33"/><circle cx="142.0" cy="296.0" r="12.8" fill="#3a3a3a"/><circle cx="192.0" cy="296.0" r="12.8" fill="#3a3a3a"/><circle cx="242.0" cy="296.0" r="12.8" fill="#3a3a3a"/><circle cx="292.0" cy="296.0" r="12.8" fill="#3a3a3a"/><circle cx="342.0" cy="296.0" r="12.8" fill="#3a3a3a"/><circle cx="392.0" cy="296.0" r="12.8" fill="#3a3a3a"/><circle cx="442.0" cy="296.0" r="12.8" fill="#3a3a3a"/><circle cx="492.0" cy="296.0" r="12.8" fill="#3a3a3a"/><circle cx="542.0" cy="296.0" r="12.8" fill="#3a3a3a"/><circle cx="592.0" cy="296.0" r="12.8" fill="#3a3a3a"/><circle cx="642.0" cy="296.0" r="12.8" fill="#3a3a3a"/><circle cx="692.0" cy="296.0" r="12.8" fill="#3a3a3a"/><circle cx="742.0" cy="296.0" r="12.8" fill="#3a3a3a"/><circle cx="792.0" cy="296.0" r="7.5" fill="#2f7d33"/><circle cx="92.0" cy="346.0" r="7.5" fill="#2f7d33"/><circle cx="142.0" cy="346.0" r="7.5" fill="#2f7d33"/><circle cx="192.0" cy="346.0" r="12.8" fill="#3a3a3a"/><circle cx="242.0" cy="346.0" r="12.8" fill="#3a3a3a"/><circle cx="292.0" cy="346.0" r="12.8" fill="#3a3a3a"/><circle cx="342.0" cy="346.0" r="12.8" fill="#3a3a3a"/><circle cx="392.0" cy="346.0" r="12.8" fill="#3a3a3a"/><circle cx="442.0" cy="346.0" r="12.8" fill="#3a3a3a"/><circle cx="492.0" cy="346.0" r="12.8" fill="#3a3a3a"/><circle cx="542.0" cy="346.0" r="12.8" fill="#3a3a3a"/><circle cx="592.0" cy="346.0" r="12.8" fill="#3a3a3a"/><circle cx="642.0" cy="346.0" r="12.8" fill="#3a3a3a"/><circle cx="692.0" cy="346.0" r="12.8" fill="#3a3a3a"/><circle cx="742.0" cy="346.0" r="12.8" fill="#3a3a3a"/><circle cx="792.0" cy="346.0" r="7.5" fill="#2f7d33"/><circle cx="142.0" cy="396.0" r="7.5" fill="#2f7d33"/><circle cx="192.0" cy="396.0" r="7.5" fill="#2f7d33"/><circle cx="242.0" cy="396.0" r="12.8" fill="#3a3a3a"/><circle cx="292.0" cy="396.0" r="12.8" fill="#3a3a3a"/><circle cx="342.0" cy="396.0" r="12.8" fill="#3a3a3a"/><circle cx="392.0" cy="396.0" r="12.8" fill="#3a3a3a"/><circle cx="442.0" cy="396.0" r="12.8" fill="#3a3a3a"/><circle cx="492.0" cy="396.0" r="12.8" fill="#3a3a3a"/><circle cx="542.0" cy="396.0" r="12.8" fill="#3a3a3a"/><circle cx="592.0" cy="396.0" r="12.8" fill="#3a3a3a"/><circle cx="642.0" cy="396.0" r="12.8" fill="#3a3a3a"/><circle cx="692.0" cy="396.0" r="12.8" fill="#3a3a3a"/><circle cx="742.0" cy="396.0" r="12.8" fill="#3a3a3a"/><circle cx="792.0" cy="396.0" r="7.5" fill="#2f7d33"/><circle cx="192.0" cy="446.0" r="7.5" fill="#2f7d33"/><circle cx="242.0" cy="446.0" r="12.8" fill="#3a3a3a"/><circle cx="292.0" cy="446.0" r="12.8" fill="#3a3a3a"/><circle cx="342.0" cy="446.0" r="12.8" fill="#3a3a3a"/><circle cx="392.0" cy="446.0" r="12.8" fill="#3a3a3a"/><circle cx="442.0" cy="446.0" r="12.8" fill="#3a3a3a"/><circle cx="492.0" cy="446.0" r="12.8" fill="#3a3a3a"/><circle cx="542.0" cy="446.0" r="12.8" fill="#3a3a3a"/><circle cx="592.0" cy="446.0" r="12.8" fill="#3a3a3a"/><circle cx="642.0" cy="446.0" r="12.8" fill="#3a3a3a"/><circle cx="692.0" cy="446.0" r="12.8" fill="#3a3a3a"/><circle cx="742.0" cy="446.0" r="12.8" fill="#3a3a3a"/><circle cx="792.0" cy="446.0" r="7.5" fill="#2f7d33"/><circle cx="192.0" cy="496.0" r="7.5" fill="#2f7d33"/><circle cx="242.0" cy="496.0" r="12.8" fill="#3a3a3a"/><circle cx="292.0" cy="496.0" r="12.8" fill="#3a3a3a"/><circle cx="342.0" cy="496.0" r="12.8" fill="#3a3a3a"/><circle cx="392.0" cy="496.0" r="12.8" fill="#3a3a3a"/><circle cx="442.0" cy="496.0" r="12.8" fill="#3a3a3a"/><circle cx="492.0" cy="496.0" r="12.8" fill="#3a3a3a"/><circle cx="542.0" cy="496.0" r="12.8" fill="#3a3a3a"/><circle cx="592.0" cy="496.0" r="12.8" fill="#3a3a3a"/><circle cx="642.0" cy="496.0" r="12.8" fill="#3a3a3a"/><circle cx="692.0" cy="496.0" r="12.8" fill="#3a3a3a"/><circle cx="742.0" cy="496.0" r="7.5" fill="#2f7d33"/><circle cx="792.0" cy="496.0" r="7.5" fill="#2f7d33"/><circle cx="192.0" cy="546.0" r="7.5" fill="#2f7d33"/><circle cx="242.0" cy="546.0" r="12.8" fill="#3a3a3a"/><circle cx="292.0" cy="546.0" r="12.8" fill="#3a3a3a"/><circle cx="342.0" cy="546.0" r="12.8" fill="#3a3a3a"/><circle cx="392.0" cy="546.0" r="12.8" fill="#3a3a3a"/><circle cx="442.0" cy="546.0" r="12.8" fill="#3a3a3a"/><circle cx="492.0" cy="546.0" r="12.8" fill="#3a3a3a"/><circle cx="542.0" cy="546.0" r="12.8" fill="#3a3a3a"/><circle cx="592.0" cy="546.0" r="12.8" fill="#3a3a3a"/><circle cx="642.0" cy="546.0" r="12.8" fill="#3a3a3a"/><circle cx="692.0" cy="546.0" r="12.8" fill="#3a3a3a"/><circle cx="742.0" cy="546.0" r="7.5" fill="#2f7d33"/><circle cx="192.0" cy="596.0" r="7.5" fill="#2f7d33"/><circle cx="242.0" cy="596.0" r="7.5" fill="#2f7d33"/><circle cx="292.0" cy="596.0" r="12.8" fill="#3a3a3a"/><circle cx="342.0" cy="596.0" r="12.8" fill="#3a3a3a"/><circle cx="392.0" cy="596.0" r="12.8" fill="#3a3a3a"/><circle cx="442.0" cy="596.0" r="12.8" fill="#3a3a3a"/><circle cx="492.0" cy="596.0" r="12.8" fill="#3a3a3a"/><circle cx="542.0" cy="596.0" r="12.8" fill="#3a3a3a"/><circle cx="592.0" cy="596.0" r="12.8" fill="#3a3a3a"/><circle cx="642.0" cy="596.0" r="12.8" fill="#3a3a3a"/><circle cx="692.0" cy="596.0" r="7.5" fill="#2f7d33"/><circle cx="742.0" cy="596.0" r="7.5" fill="#2f7d33"/><circle cx="292.0" cy="296.0" r="9" fill="white" stroke="#D32333" stroke-width="3.5"/><circle cx="292.0" cy="296.0" r="2.6" fill="#D32333"/><circle cx="642.0" cy="396.0" r="9" fill="white" stroke="#D32333" stroke-width="3.5"/><circle cx="642.0" cy="396.0" r="2.6" fill="#D32333"/><text x="880" y="150" fill="#D32333" font-weight="700" font-size="14">context parameters (hypothetical):</text><text x="880" y="171" fill="#D32333" font-weight="700" font-size="14">100 m grid cells</text><text x="880" y="192" fill="#D32333" font-weight="700" font-size="14">600 m centre walk</text><text x="880" y="213" fill="#D32333" font-weight="700" font-size="14">400 m green span</text><text x="880" y="280" fill="#3a3a3a" font-weight="700" font-size="22">Step 0 — population</text><text x="880" y="322" fill="#3a3a3a" font-weight="400" font-size="15">Is the population still below</text><text x="880" y="348" fill="#3a3a3a" font-weight="400" font-size="15">the target?</text><text x="880" y="400" fill="#3a3a3a" font-weight="700" font-size="15">Yes → visit every cell.</text><text x="880" y="426" fill="#3a3a3a" font-weight="400" font-size="15">If the target is met, stop.</text><circle cx="889" cy="451" r="7.5" fill="#2f7d33"/><text x="916" y="456" fill="#3a3a3a" font-size="16">green periphery</text><circle cx="889" cy="493" r="11" fill="#3a3a3a"/><text x="916" y="498" fill="#3a3a3a" font-size="16">built cell</text><circle cx="889" cy="535" r="8" fill="white" stroke="#D32333" stroke-width="3"/><circle cx="889" cy="535" r="2.3" fill="#D32333"/><text x="916" y="540" fill="#3a3a3a" font-size="16">centrality</text><circle cx="889" cy="577" r="8" fill="none" stroke="#1f6fbf" stroke-width="2.6"/><text x="916" y="582" fill="#3a3a3a" font-size="16">candidate location</text></svg>